{"glyphs":{"0":{"ha":686,"x_min":27,"x_max":659,"o":"m 343 -11 q 577 74 495 -11 q 659 318 659 159 l 659 857 q 581 1115 659 1025 q 343 1204 503 1204 q 105 1115 184 1204 q 27 857 27 1025 l 27 318 q 110 74 27 159 q 343 -11 192 -11 m 343 209 q 300 234 316 209 q 284 290 284 259 l 284 880 q 293 953 284 922 q 343 985 302 985 q 393 953 384 985 q 402 880 402 922 l 402 290 q 387 234 402 259 q 343 209 371 209 "},"1":{"ha":459,"x_min":17,"x_max":418,"o":"m 165 0 l 418 0 l 418 1194 l 226 1194 q 171 1118 207 1149 q 94 1068 136 1086 q 17 1045 53 1050 l 17 854 q 98 872 55 854 q 165 920 140 890 l 165 0 "},"2":{"ha":686,"x_min":39,"x_max":669,"o":"m 42 0 l 661 0 l 661 225 l 336 225 q 398 327 363 279 q 472 420 434 374 q 570 549 526 484 q 642 693 615 614 q 669 877 669 772 q 587 1115 669 1031 q 356 1198 505 1198 q 162 1151 231 1198 q 66 1014 94 1104 q 39 795 39 924 q 40 758 39 777 q 42 722 41 738 l 293 722 l 293 868 q 353 975 293 975 q 405 944 392 975 q 417 872 417 914 q 390 714 417 785 q 321 584 363 644 q 232 467 279 524 q 140 348 184 409 q 70 217 97 288 q 42 57 42 146 l 42 0 "},"3":{"ha":686,"x_min":26,"x_max":652,"o":"m 328 -14 q 577 83 502 -14 q 652 359 652 180 q 644 496 652 439 q 612 590 637 552 q 537 652 588 628 q 625 733 602 675 q 649 878 649 790 q 344 1196 649 1196 q 109 1119 186 1196 q 33 878 33 1042 q 33 856 33 867 q 34 836 33 844 l 281 836 l 281 872 q 294 947 281 918 q 345 977 307 977 q 404 876 404 977 q 371 784 404 811 q 277 756 338 756 l 277 542 q 287 543 281 543 q 300 543 292 543 q 381 497 360 543 q 401 389 401 451 l 401 359 q 390 243 401 279 q 336 208 378 208 q 283 240 295 208 q 271 321 271 273 l 271 446 l 26 446 l 26 321 q 98 70 26 153 q 328 -14 170 -14 "},"4":{"ha":686,"x_min":12,"x_max":673,"o":"m 366 -1 l 610 -1 l 610 189 l 673 189 l 673 388 l 610 388 l 610 1194 l 238 1194 l 12 375 l 12 189 l 366 189 l 366 -1 m 225 388 l 366 989 l 366 388 l 225 388 "},"5":{"ha":686,"x_min":31,"x_max":663,"o":"m 343 -17 q 511 16 448 -17 q 607 111 574 49 q 651 259 640 172 q 663 453 663 345 q 652 610 663 537 q 614 739 642 684 q 535 826 587 795 q 403 857 484 857 q 332 841 362 857 q 284 802 302 824 l 284 970 l 627 970 l 627 1194 l 58 1194 l 58 559 l 277 559 q 345 658 277 658 q 386 639 373 658 q 402 591 399 620 q 406 534 406 563 l 406 299 q 394 232 406 258 q 343 206 382 206 q 300 225 314 206 q 283 274 287 244 q 279 336 279 304 l 279 438 l 31 438 l 31 260 q 118 51 31 119 q 343 -17 205 -17 "},"6":{"ha":686,"x_min":37,"x_max":670,"o":"m 359 -11 q 544 39 475 -11 q 641 177 612 88 q 670 386 670 267 q 650 583 670 504 q 576 701 629 661 q 424 741 523 741 q 341 721 375 741 q 290 670 307 702 l 290 909 q 306 973 290 951 q 361 995 321 995 q 403 975 391 995 q 418 926 415 956 q 421 866 421 896 l 421 842 l 651 842 l 651 970 q 611 1100 651 1048 q 506 1178 571 1152 q 366 1204 441 1204 q 190 1171 256 1204 q 91 1074 124 1138 q 47 914 58 1009 q 37 695 37 819 l 37 372 q 65 159 37 245 q 164 32 94 74 q 359 -11 235 -11 m 350 209 q 290 297 290 209 l 290 445 q 353 530 290 530 q 408 432 408 530 l 408 336 q 400 244 408 280 q 350 209 392 209 "},"7":{"ha":686,"x_min":47,"x_max":650,"o":"m 98 1 l 368 1 q 430 377 380 187 q 564 758 479 566 q 626 919 602 846 q 650 1064 650 992 l 650 1194 l 47 1194 l 47 973 l 385 973 l 318 812 q 228 583 275 708 q 145 313 181 458 q 98 1 109 168 "},"8":{"ha":686,"x_min":31,"x_max":655,"o":"m 343 -13 q 583 83 511 -13 q 655 356 655 180 l 655 435 q 636 580 655 526 q 553 667 617 634 q 633 751 613 693 q 654 896 654 810 q 576 1134 654 1060 q 343 1208 499 1208 q 112 1136 191 1208 q 32 905 32 1064 l 32 874 q 55 744 32 796 q 133 669 78 691 q 53 583 75 639 q 31 435 31 526 l 31 356 q 103 83 31 180 q 343 -13 175 -13 m 343 769 q 280 883 280 769 q 293 955 280 921 q 343 989 307 989 q 393 955 380 989 q 406 883 406 921 q 343 769 406 769 m 343 223 q 279 328 279 223 l 279 437 q 292 522 279 492 q 343 553 306 553 q 394 522 379 553 q 408 437 408 492 l 408 328 q 343 223 408 223 "},"9":{"ha":686,"x_min":37,"x_max":670,"o":"m 341 -11 q 517 22 451 -11 q 616 120 583 56 q 660 279 649 184 q 670 498 670 374 l 670 821 q 641 1035 670 949 q 543 1162 612 1120 q 348 1204 473 1204 q 163 1155 231 1204 q 66 1016 95 1105 q 37 808 37 927 q 57 611 37 690 q 131 493 77 532 q 283 453 184 453 q 366 473 332 453 q 416 524 399 492 l 416 284 q 401 221 416 243 q 345 199 385 199 q 304 218 317 199 q 289 268 292 238 q 286 328 286 298 l 286 352 l 56 352 l 56 223 q 96 94 56 146 q 201 15 136 41 q 341 -11 266 -11 m 353 664 q 298 762 298 664 l 298 858 q 307 949 298 913 q 357 985 315 985 q 416 897 416 985 l 416 749 q 353 664 416 664 "},"\r":{"ha":326,"x_min":0,"x_max":0,"o":""},"\u0000":{"ha":0,"x_min":0,"x_max":0,"o":""}," ":{"ha":326,"x_min":0,"x_max":0,"o":""},"A":{"ha":674,"x_min":20,"x_max":654,"o":"m 20 0 l 252 0 l 267 193 l 411 193 l 428 0 l 654 0 l 541 1194 l 136 1194 l 20 0 m 284 383 l 330 990 l 340 990 l 393 383 l 284 383 "},"Æ":{"ha":889,"x_min":-30,"x_max":863,"o":"m -30 0 l 229 0 l 282 325 l 422 325 l 422 0 l 863 0 l 863 211 l 653 211 l 653 509 l 838 509 l 838 711 l 653 711 l 653 984 l 847 984 l 847 1194 l 188 1194 l -30 0 m 313 522 l 380 991 l 419 991 l 419 522 l 313 522 "},"Ǽ":{"ha":889,"x_min":-30,"x_max":863,"o":"m -30 0 l 229 0 l 282 325 l 422 325 l 422 0 l 863 0 l 863 211 l 653 211 l 653 509 l 838 509 l 838 711 l 653 711 l 653 984 l 847 984 l 847 1194 l 188 1194 l -30 0 m 313 522 l 380 991 l 419 991 l 419 522 l 313 522 m 378 1230 l 701 1293 l 701 1529 l 378 1381 l 378 1230 "},"Ǣ":{"ha":889,"x_min":-30,"x_max":863,"o":"m -30 0 l 229 0 l 282 325 l 422 325 l 422 0 l 863 0 l 863 211 l 653 211 l 653 509 l 838 509 l 838 711 l 653 711 l 653 984 l 847 984 l 847 1194 l 188 1194 l -30 0 m 313 522 l 380 991 l 419 991 l 419 522 l 313 522 m 319 1274 l 760 1274 l 760 1378 l 319 1378 l 319 1274 "},"Á":{"ha":674,"x_min":20,"x_max":654,"o":"m 20 0 l 252 0 l 267 193 l 411 193 l 428 0 l 654 0 l 541 1194 l 136 1194 l 20 0 m 284 383 l 330 990 l 340 990 l 393 383 l 284 383 m 175 1230 l 497 1293 l 497 1529 l 175 1381 l 175 1230 "},"Ă":{"ha":674,"x_min":20,"x_max":654,"o":"m 20 0 l 252 0 l 267 193 l 411 193 l 428 0 l 654 0 l 541 1194 l 136 1194 l 20 0 m 284 383 l 330 990 l 340 990 l 393 383 l 284 383 m 338 1256 q 533 1307 460 1256 q 606 1472 606 1358 q 606 1482 606 1475 q 605 1495 606 1489 l 431 1495 q 412 1437 431 1457 q 340 1417 392 1417 q 268 1437 288 1417 q 248 1495 248 1457 l 75 1495 q 73 1467 73 1481 q 146 1306 73 1356 q 338 1256 220 1256 "},"Ắ":{"ha":674,"x_min":20,"x_max":654,"o":"m 20 0 l 252 0 l 267 193 l 411 193 l 428 0 l 654 0 l 541 1194 l 136 1194 l 20 0 m 284 383 l 330 990 l 340 990 l 393 383 l 284 383 m 224 1466 l 478 1509 l 478 1664 l 224 1537 l 224 1466 m 333 1241 q 455 1265 404 1241 q 534 1328 507 1289 q 562 1408 562 1366 q 560 1432 562 1415 l 424 1432 q 405 1368 424 1390 q 333 1346 385 1346 q 262 1368 281 1346 q 242 1432 242 1390 l 113 1432 q 111 1403 111 1417 q 139 1326 111 1363 q 216 1265 166 1289 q 333 1241 267 1241 "},"Ặ":{"ha":674,"x_min":20,"x_max":654,"o":"m 20 0 l 252 0 l 267 193 l 411 193 l 428 0 l 654 0 l 541 1194 l 136 1194 l 20 0 m 284 383 l 330 990 l 340 990 l 393 383 l 284 383 m 336 1256 q 531 1302 458 1256 q 604 1451 604 1349 q 602 1475 604 1459 l 429 1475 q 409 1411 429 1433 q 337 1390 389 1390 q 265 1411 285 1390 q 245 1475 245 1433 l 72 1475 q 70 1447 70 1461 q 143 1301 70 1347 q 336 1256 217 1256 m 216 -269 l 458 -269 l 458 -67 l 216 -67 l 216 -269 "},"Ằ":{"ha":674,"x_min":20,"x_max":654,"o":"m 20 0 l 252 0 l 267 193 l 411 193 l 428 0 l 654 0 l 541 1194 l 136 1194 l 20 0 m 284 383 l 330 990 l 340 990 l 393 383 l 284 383 m 478 1466 l 478 1537 l 224 1664 l 224 1509 l 478 1466 m 333 1241 q 455 1265 404 1241 q 534 1328 507 1289 q 562 1408 562 1366 q 560 1432 562 1417 l 424 1432 q 405 1368 424 1390 q 333 1346 385 1346 q 262 1368 281 1346 q 242 1432 242 1390 l 113 1432 q 111 1403 111 1417 q 139 1326 111 1363 q 216 1265 166 1289 q 333 1241 267 1241 "},"Ẳ":{"ha":674,"x_min":20,"x_max":654,"o":"m 20 0 l 252 0 l 267 193 l 411 193 l 428 0 l 654 0 l 541 1194 l 136 1194 l 20 0 m 284 383 l 330 990 l 340 990 l 393 383 l 284 383 m 340 1444 q 422 1490 389 1459 q 455 1574 455 1520 q 425 1648 455 1622 q 343 1674 395 1674 q 266 1660 304 1674 l 266 1584 q 304 1591 285 1591 q 347 1551 347 1591 q 333 1517 347 1530 q 296 1496 319 1505 l 340 1444 m 333 1241 q 455 1265 404 1241 q 534 1328 507 1289 q 562 1408 562 1366 q 561 1418 562 1411 q 560 1432 561 1425 l 424 1432 q 405 1368 424 1390 q 333 1346 385 1346 q 262 1368 281 1346 q 242 1432 242 1390 l 113 1432 q 111 1403 111 1417 q 139 1326 111 1363 q 216 1265 166 1289 q 333 1241 267 1241 "},"Ẵ":{"ha":674,"x_min":20,"x_max":654,"o":"m 20 0 l 252 0 l 267 193 l 411 193 l 428 0 l 654 0 l 541 1194 l 136 1194 l 20 0 m 284 383 l 330 990 l 340 990 l 393 383 l 284 383 m 430 1474 q 513 1512 488 1474 q 557 1597 538 1550 l 472 1624 q 415 1586 449 1586 q 363 1598 388 1586 q 311 1621 338 1609 q 253 1632 285 1632 q 178 1601 202 1632 q 136 1525 153 1569 l 211 1486 q 237 1513 223 1506 q 268 1520 252 1520 q 320 1509 294 1520 q 373 1486 346 1497 q 430 1474 399 1474 m 333 1241 q 455 1265 404 1241 q 534 1328 507 1289 q 562 1408 562 1366 q 561 1418 562 1411 q 560 1432 561 1425 l 424 1432 q 405 1368 424 1390 q 333 1346 385 1346 q 262 1368 281 1346 q 242 1432 242 1390 l 113 1432 q 111 1403 111 1417 q 139 1326 111 1363 q 216 1265 166 1289 q 333 1241 267 1241 "},"Ǎ":{"ha":674,"x_min":20,"x_max":654,"o":"m 20 0 l 252 0 l 267 193 l 411 193 l 428 0 l 654 0 l 541 1194 l 136 1194 l 20 0 m 284 383 l 330 990 l 340 990 l 393 383 l 284 383 m 198 1255 l 475 1255 l 638 1529 l 395 1529 l 336 1335 l 278 1529 l 35 1529 l 198 1255 "},"Â":{"ha":674,"x_min":20,"x_max":654,"o":"m 20 0 l 252 0 l 267 193 l 411 193 l 428 0 l 654 0 l 541 1194 l 136 1194 l 20 0 m 284 383 l 330 990 l 340 990 l 393 383 l 284 383 m 35 1255 l 278 1255 l 336 1449 l 395 1255 l 638 1255 l 475 1529 l 198 1529 l 35 1255 "},"Ấ":{"ha":674,"x_min":20,"x_max":818,"o":"m 20 0 l 252 0 l 267 193 l 411 193 l 428 0 l 654 0 l 541 1194 l 136 1194 l 20 0 m 284 383 l 330 990 l 340 990 l 393 383 l 284 383 m 532 1356 l 690 1356 l 818 1495 l 610 1495 l 532 1356 m 76 1247 l 269 1247 l 336 1339 l 404 1247 l 597 1247 l 436 1419 l 237 1419 l 76 1247 "},"Ậ":{"ha":674,"x_min":20,"x_max":654,"o":"m 20 0 l 252 0 l 267 193 l 411 193 l 428 0 l 654 0 l 541 1194 l 136 1194 l 20 0 m 284 383 l 330 990 l 340 990 l 393 383 l 284 383 m 216 -269 l 458 -269 l 458 -67 l 216 -67 l 216 -269 m 35 1262 l 278 1262 l 336 1408 l 395 1262 l 638 1262 l 475 1488 l 198 1488 l 35 1262 "},"Ầ":{"ha":674,"x_min":20,"x_max":736,"o":"m 20 0 l 252 0 l 267 193 l 411 193 l 428 0 l 654 0 l 541 1194 l 136 1194 l 20 0 m 284 383 l 330 990 l 340 990 l 393 383 l 284 383 m 578 1356 l 736 1356 l 659 1495 l 450 1495 l 578 1356 m 76 1247 l 269 1247 l 336 1339 l 404 1247 l 597 1247 l 436 1419 l 237 1419 l 76 1247 "},"Ẩ":{"ha":674,"x_min":20,"x_max":702,"o":"m 20 0 l 252 0 l 267 193 l 411 193 l 428 0 l 654 0 l 541 1194 l 136 1194 l 20 0 m 284 383 l 330 990 l 340 990 l 393 383 l 284 383 m 587 1329 q 669 1375 636 1344 q 702 1459 702 1405 q 672 1533 702 1506 q 590 1559 642 1559 q 513 1545 551 1559 l 513 1469 q 551 1476 532 1476 q 593 1436 593 1476 q 579 1402 593 1415 q 543 1381 566 1390 l 587 1329 m 76 1247 l 269 1247 l 336 1339 l 404 1247 l 597 1247 l 436 1419 l 237 1419 l 76 1247 "},"Ẫ":{"ha":674,"x_min":20,"x_max":654,"o":"m 20 0 l 252 0 l 267 193 l 411 193 l 428 0 l 654 0 l 541 1194 l 136 1194 l 20 0 m 284 383 l 330 990 l 340 990 l 393 383 l 284 383 m 418 1453 q 500 1490 475 1453 q 545 1575 526 1528 l 460 1603 q 403 1565 437 1565 q 351 1576 376 1565 q 299 1599 326 1588 q 241 1611 273 1611 q 165 1579 190 1611 q 123 1503 141 1548 l 199 1464 q 225 1491 211 1484 q 256 1499 239 1499 q 308 1487 283 1499 q 360 1464 334 1476 q 418 1453 387 1453 m 76 1247 l 269 1247 l 336 1339 l 404 1247 l 597 1247 l 436 1419 l 237 1419 l 76 1247 "},"Ȁ":{"ha":674,"x_min":7,"x_max":654,"o":"m 20 0 l 252 0 l 267 193 l 411 193 l 428 0 l 654 0 l 541 1194 l 136 1194 l 20 0 m 284 383 l 330 990 l 340 990 l 393 383 l 284 383 m 203 1252 l 315 1291 l 165 1616 l 7 1543 l 203 1252 m 408 1252 l 520 1291 l 395 1616 l 239 1543 l 408 1252 "},"Ä":{"ha":674,"x_min":20,"x_max":654,"o":"m 20 0 l 252 0 l 267 193 l 411 193 l 428 0 l 654 0 l 541 1194 l 136 1194 l 20 0 m 284 383 l 330 990 l 340 990 l 393 383 l 284 383 m 374 1261 l 617 1261 l 617 1463 l 374 1463 l 374 1261 m 46 1261 l 289 1261 l 289 1463 l 46 1463 l 46 1261 "},"Ǟ":{"ha":674,"x_min":20,"x_max":654,"o":"m 20 0 l 252 0 l 267 193 l 411 193 l 428 0 l 654 0 l 541 1194 l 136 1194 l 20 0 m 284 383 l 330 990 l 340 990 l 393 383 l 284 383 m 379 1261 l 622 1261 l 622 1429 l 379 1429 l 379 1261 m 51 1261 l 294 1261 l 294 1429 l 51 1429 l 51 1261 m 116 1503 l 557 1503 l 557 1607 l 116 1607 l 116 1503 "},"Ȧ":{"ha":674,"x_min":20,"x_max":654,"o":"m 20 0 l 252 0 l 267 193 l 411 193 l 428 0 l 654 0 l 541 1194 l 136 1194 l 20 0 m 284 383 l 330 990 l 340 990 l 393 383 l 284 383 m 215 1256 l 458 1256 l 458 1458 l 215 1458 l 215 1256 "},"Ạ":{"ha":674,"x_min":20,"x_max":654,"o":"m 20 0 l 252 0 l 267 193 l 411 193 l 428 0 l 654 0 l 541 1194 l 136 1194 l 20 0 m 284 383 l 330 990 l 340 990 l 393 383 l 284 383 m 216 -269 l 458 -269 l 458 -67 l 216 -67 l 216 -269 "},"Ǡ":{"ha":674,"x_min":20,"x_max":654,"o":"m 20 0 l 252 0 l 267 193 l 411 193 l 428 0 l 654 0 l 541 1194 l 136 1194 l 20 0 m 284 383 l 330 990 l 340 990 l 393 383 l 284 383 m 215 1256 l 458 1256 l 458 1431 l 215 1431 l 215 1256 m 116 1491 l 557 1491 l 557 1594 l 116 1594 l 116 1491 "},"À":{"ha":674,"x_min":20,"x_max":654,"o":"m 20 0 l 252 0 l 267 193 l 411 193 l 428 0 l 654 0 l 541 1194 l 136 1194 l 20 0 m 284 383 l 330 990 l 340 990 l 393 383 l 284 383 m 497 1230 l 497 1381 l 175 1529 l 175 1293 l 497 1230 "},"Ả":{"ha":674,"x_min":20,"x_max":654,"o":"m 20 0 l 252 0 l 267 193 l 411 193 l 428 0 l 654 0 l 541 1194 l 136 1194 l 20 0 m 284 383 l 330 990 l 340 990 l 393 383 l 284 383 m 317 1246 q 448 1319 395 1270 q 501 1455 501 1369 q 453 1574 501 1531 q 321 1616 406 1616 q 197 1594 256 1616 l 197 1472 q 258 1482 226 1482 q 326 1418 326 1482 q 304 1364 326 1384 q 245 1330 281 1343 l 317 1246 "},"Ȃ":{"ha":674,"x_min":20,"x_max":654,"o":"m 20 0 l 252 0 l 267 193 l 411 193 l 428 0 l 654 0 l 541 1194 l 136 1194 l 20 0 m 284 383 l 330 990 l 340 990 l 393 383 l 284 383 m 85 1267 l 245 1267 q 271 1335 245 1313 q 336 1358 297 1358 q 402 1335 376 1358 q 428 1267 428 1313 l 588 1267 q 589 1280 589 1274 q 589 1290 589 1286 q 523 1454 589 1403 q 335 1506 457 1506 q 150 1455 216 1506 q 83 1295 83 1405 q 85 1267 83 1280 "},"Ɑ":{"ha":725,"x_min":43,"x_max":718,"o":"m 246 -11 q 362 20 311 -11 q 435 128 413 51 q 536 20 470 47 q 718 -7 602 -7 l 718 208 q 652 229 673 208 q 631 298 631 250 l 631 1194 l 394 1194 l 394 1088 q 339 1175 374 1146 q 246 1204 304 1204 q 115 1163 159 1204 q 58 1047 72 1121 q 43 878 43 974 l 43 317 q 58 146 43 220 q 115 31 72 73 q 246 -11 159 -11 m 338 189 q 292 216 304 189 q 281 292 281 244 l 281 902 q 292 978 281 950 q 338 1005 304 1005 q 382 976 370 1005 q 394 902 394 946 l 394 292 q 382 218 394 248 q 338 189 370 189 "},"Ā":{"ha":674,"x_min":20,"x_max":654,"o":"m 20 0 l 252 0 l 267 193 l 411 193 l 428 0 l 654 0 l 541 1194 l 136 1194 l 20 0 m 284 383 l 330 990 l 340 990 l 393 383 l 284 383 m 117 1274 l 557 1274 l 557 1378 l 117 1378 l 117 1274 "},"Ą":{"ha":674,"x_min":20,"x_max":660,"o":"m 20 0 l 252 0 l 267 193 l 411 193 l 428 0 l 654 0 l 541 1194 l 136 1194 l 20 0 m 284 383 l 330 990 l 340 990 l 393 383 l 284 383 m 526 -428 q 660 -401 595 -428 l 660 -250 q 581 -265 614 -265 q 503 -189 503 -265 q 538 -86 503 -133 q 612 0 574 -39 l 469 0 q 290 -224 290 -100 q 322 -333 290 -288 q 408 -404 354 -379 q 526 -428 461 -428 "},"Å":{"ha":674,"x_min":20,"x_max":654,"o":"m 20 0 l 252 0 l 267 193 l 411 193 l 428 0 l 654 0 l 541 1194 l 136 1194 l 20 0 m 284 383 l 330 990 l 340 990 l 393 383 l 284 383 m 336 1248 q 510 1309 445 1248 q 576 1477 576 1370 q 510 1645 576 1584 q 336 1706 445 1706 q 162 1645 227 1706 q 96 1477 96 1584 q 162 1309 96 1369 q 336 1248 227 1248 m 336 1371 q 266 1402 291 1371 q 240 1477 240 1433 q 266 1552 240 1521 q 336 1584 291 1584 q 407 1552 382 1584 q 433 1477 433 1521 q 407 1402 433 1433 q 336 1371 382 1371 "},"Ǻ":{"ha":674,"x_min":20,"x_max":654,"o":"m 20 0 l 252 0 l 267 193 l 411 193 l 428 0 l 654 0 l 541 1194 l 136 1194 l 20 0 m 284 383 l 330 990 l 340 990 l 393 383 l 284 383 m 336 1248 q 511 1305 446 1248 q 576 1463 576 1363 q 511 1622 576 1565 q 336 1679 446 1679 q 162 1622 228 1679 q 97 1463 97 1565 q 162 1305 97 1362 q 336 1248 228 1248 m 337 1371 q 266 1398 292 1371 q 241 1463 241 1425 q 266 1529 241 1502 q 337 1556 292 1556 q 408 1529 382 1556 q 433 1463 433 1502 q 408 1398 433 1425 q 337 1371 382 1371 m 176 1704 l 498 1754 l 498 1949 l 176 1835 l 176 1704 "},"Ḁ":{"ha":674,"x_min":20,"x_max":654,"o":"m 20 0 l 252 0 l 267 193 l 411 193 l 428 0 l 654 0 l 541 1194 l 136 1194 l 20 0 m 284 383 l 330 990 l 340 990 l 393 383 l 284 383 m 336 -416 q 511 -358 446 -416 q 576 -200 576 -300 q 511 -42 576 -99 q 336 16 446 16 q 162 -42 228 16 q 97 -200 97 -99 q 162 -359 97 -302 q 336 -416 228 -416 m 337 -293 q 266 -266 292 -293 q 241 -200 241 -239 q 266 -134 241 -161 q 337 -107 292 -107 q 408 -134 382 -107 q 433 -200 433 -161 q 408 -266 433 -239 q 337 -293 382 -293 "},"Ⱥ":{"ha":674,"x_min":20,"x_max":654,"o":"m 20 0 l 101 0 l 68 -126 l 163 -126 l 196 0 l 252 0 l 267 193 l 411 193 l 428 0 l 654 0 l 541 1194 l 507 1194 l 549 1356 l 454 1356 l 412 1194 l 136 1194 l 20 0 m 284 383 l 330 990 l 340 990 l 393 383 l 284 383 "},"Ã":{"ha":674,"x_min":20,"x_max":654,"o":"m 20 0 l 252 0 l 267 193 l 411 193 l 428 0 l 654 0 l 541 1194 l 136 1194 l 20 0 m 284 383 l 330 990 l 340 990 l 393 383 l 284 383 m 448 1269 q 530 1294 499 1269 q 581 1360 561 1319 q 616 1446 600 1400 l 504 1482 q 475 1443 490 1455 q 441 1432 459 1432 q 382 1446 414 1432 q 311 1474 350 1460 q 224 1489 272 1489 q 144 1468 176 1489 q 93 1413 113 1447 q 56 1337 73 1379 l 157 1284 q 186 1320 170 1310 q 219 1331 201 1331 q 281 1315 247 1331 q 356 1284 315 1300 q 448 1269 398 1269 "},"B":{"ha":665,"x_min":53,"x_max":639,"o":"m 53 0 l 376 0 q 538 48 481 0 q 617 183 595 96 q 639 386 639 270 q 611 569 639 494 q 503 664 584 644 q 595 732 565 680 q 625 869 625 785 l 625 921 q 566 1130 625 1067 q 376 1194 507 1194 l 53 1194 l 53 0 m 286 744 l 286 1009 l 336 1009 q 387 951 387 1009 l 387 831 q 378 770 387 795 q 335 744 368 744 l 286 744 m 310 210 q 286 212 301 210 l 286 557 l 330 557 q 388 528 372 557 q 403 448 403 498 l 403 298 q 310 210 403 210 "},"Ḃ":{"ha":665,"x_min":53,"x_max":639,"o":"m 53 0 l 376 0 q 538 48 481 0 q 617 183 595 96 q 639 386 639 270 q 611 569 639 494 q 503 664 584 644 q 595 732 565 680 q 625 869 625 785 l 625 921 q 566 1130 625 1067 q 376 1194 507 1194 l 53 1194 l 53 0 m 286 744 l 286 1009 l 336 1009 q 387 951 387 1009 l 387 831 q 378 770 387 795 q 335 744 368 744 l 286 744 m 310 210 q 286 212 301 210 l 286 557 l 330 557 q 388 528 372 557 q 403 448 403 498 l 403 298 q 310 210 403 210 m 184 1256 l 427 1256 l 427 1458 l 184 1458 l 184 1256 "},"Ḅ":{"ha":665,"x_min":53,"x_max":639,"o":"m 53 0 l 376 0 q 538 48 481 0 q 617 183 595 96 q 639 386 639 270 q 611 569 639 494 q 503 664 584 644 q 595 732 565 680 q 625 869 625 785 l 625 921 q 566 1130 625 1067 q 376 1194 507 1194 l 53 1194 l 53 0 m 286 744 l 286 1009 l 336 1009 q 387 951 387 1009 l 387 831 q 378 770 387 795 q 335 744 368 744 l 286 744 m 310 210 q 286 212 301 210 l 286 557 l 330 557 q 388 528 372 557 q 403 448 403 498 l 403 298 q 310 210 403 210 m 184 -283 l 427 -283 l 427 -81 l 184 -81 l 184 -283 "},"Ꞵ":{"ha":665,"x_min":53,"x_max":639,"o":"m 53 -126 l 286 -126 l 286 0 l 376 0 q 538 48 481 0 q 617 183 595 96 q 639 386 639 270 q 611 569 639 494 q 503 664 584 644 q 595 732 565 680 q 625 869 625 785 l 625 921 q 566 1130 625 1067 q 376 1194 507 1194 l 53 1194 l 53 -126 m 286 744 l 286 1009 l 336 1009 q 387 951 387 1009 l 387 831 q 378 770 387 795 q 335 744 368 744 l 286 744 m 310 210 q 286 212 301 210 l 286 557 l 330 557 q 388 528 372 557 q 403 448 403 498 l 403 298 q 310 210 403 210 "},"Ɓ":{"ha":901,"x_min":3,"x_max":875,"o":"m 289 0 l 612 0 q 774 48 718 0 q 853 183 831 96 q 875 386 875 270 q 847 569 875 494 q 739 664 820 644 q 831 732 801 680 q 861 869 861 785 l 861 921 q 802 1130 861 1067 q 612 1194 743 1194 l 289 1194 q 130 1155 193 1194 q 35 1047 66 1116 q 3 890 3 979 l 3 849 l 212 849 l 212 906 q 289 1009 212 1009 l 289 0 m 522 744 l 522 1009 l 572 1009 q 623 951 623 1009 l 623 831 q 614 770 623 795 q 571 744 604 744 l 522 744 m 546 210 q 522 212 537 210 l 522 557 l 566 557 q 624 528 608 557 q 639 448 639 498 l 639 298 q 546 210 639 210 "},"Ḇ":{"ha":665,"x_min":53,"x_max":639,"o":"m 53 0 l 376 0 q 538 48 481 0 q 617 183 595 96 q 639 386 639 270 q 611 569 639 494 q 503 664 584 644 q 595 732 565 680 q 625 869 625 785 l 625 921 q 566 1130 625 1067 q 376 1194 507 1194 l 53 1194 l 53 0 m 286 744 l 286 1009 l 336 1009 q 387 951 387 1009 l 387 831 q 378 770 387 795 q 335 744 368 744 l 286 744 m 310 210 q 286 212 301 210 l 286 557 l 330 557 q 388 528 372 557 q 403 448 403 498 l 403 298 q 310 210 403 210 m 85 -184 l 526 -184 l 526 -81 l 85 -81 l 85 -184 "},"Ƀ":{"ha":665,"x_min":0,"x_max":639,"o":"m 53 0 l 376 0 q 538 48 481 0 q 617 183 595 96 q 639 386 639 270 q 611 569 639 494 q 503 664 584 644 q 595 732 565 680 q 625 869 625 785 l 625 921 q 566 1130 625 1067 q 376 1194 507 1194 l 53 1194 l 53 465 l 0 465 l 0 307 l 53 307 l 53 0 m 286 744 l 286 1009 l 336 1009 q 387 951 387 1009 l 387 831 q 378 770 387 795 q 335 744 368 744 l 286 744 m 310 210 q 286 212 301 210 l 286 307 l 350 307 l 350 465 l 286 465 l 286 557 l 330 557 q 388 528 372 557 q 403 448 403 498 l 403 298 q 310 210 403 210 "},"C":{"ha":659,"x_min":43,"x_max":632,"o":"m 331 -11 q 553 60 473 -11 q 632 288 632 131 l 632 514 l 392 514 l 392 299 q 379 234 392 259 q 336 209 367 209 q 295 229 309 209 q 280 299 280 250 l 280 897 q 292 961 280 937 q 336 985 303 985 q 378 966 365 985 q 392 894 392 947 l 392 718 l 629 718 l 629 924 q 591 1080 629 1018 q 487 1173 553 1142 q 336 1204 421 1204 q 112 1112 181 1204 q 43 846 43 1020 l 43 296 q 122 70 43 151 q 331 -11 201 -11 "},"Ć":{"ha":659,"x_min":43,"x_max":632,"o":"m 331 -11 q 553 60 473 -11 q 632 288 632 131 l 632 514 l 392 514 l 392 299 q 379 234 392 259 q 336 209 367 209 q 295 229 309 209 q 280 299 280 250 l 280 897 q 292 961 280 937 q 336 985 303 985 q 378 966 365 985 q 392 894 392 947 l 392 718 l 629 718 l 629 924 q 591 1080 629 1018 q 487 1173 553 1142 q 336 1204 421 1204 q 112 1112 181 1204 q 43 846 43 1020 l 43 296 q 122 70 43 151 q 331 -11 201 -11 m 175 1230 l 497 1293 l 497 1529 l 175 1381 l 175 1230 "},"Č":{"ha":659,"x_min":35,"x_max":638,"o":"m 331 -11 q 553 60 473 -11 q 632 288 632 131 l 632 514 l 392 514 l 392 299 q 379 234 392 259 q 336 209 367 209 q 295 229 309 209 q 280 299 280 250 l 280 897 q 292 961 280 937 q 336 985 303 985 q 378 966 365 985 q 392 894 392 947 l 392 718 l 629 718 l 629 924 q 591 1080 629 1018 q 487 1173 553 1142 q 336 1204 421 1204 q 112 1112 181 1204 q 43 846 43 1020 l 43 296 q 122 70 43 151 q 331 -11 201 -11 m 198 1255 l 475 1255 l 638 1529 l 395 1529 l 336 1335 l 278 1529 l 35 1529 l 198 1255 "},"Ç":{"ha":659,"x_min":43,"x_max":632,"o":"m 331 -11 q 553 60 473 -11 q 632 288 632 131 l 632 514 l 392 514 l 392 299 q 379 234 392 259 q 336 209 367 209 q 295 229 309 209 q 280 299 280 250 l 280 897 q 292 961 280 937 q 336 985 303 985 q 378 966 365 985 q 392 894 392 947 l 392 718 l 629 718 l 629 924 q 591 1080 629 1018 q 487 1173 553 1142 q 336 1204 421 1204 q 112 1112 181 1204 q 43 846 43 1020 l 43 296 q 122 70 43 151 q 331 -11 201 -11 m 314 -428 q 468 -380 420 -428 q 516 -262 516 -332 q 480 -129 516 -199 q 378 0 444 -58 l 269 0 q 320 -98 302 -50 q 339 -185 339 -147 q 316 -247 339 -229 q 260 -265 294 -265 q 221 -261 241 -265 q 180 -250 201 -256 l 180 -401 q 314 -428 244 -428 "},"Ḉ":{"ha":659,"x_min":43,"x_max":632,"o":"m 331 -11 q 553 60 473 -11 q 632 288 632 131 l 632 514 l 392 514 l 392 299 q 379 234 392 259 q 336 209 367 209 q 295 229 309 209 q 280 299 280 250 l 280 897 q 292 961 280 937 q 336 985 303 985 q 378 966 365 985 q 392 894 392 947 l 392 718 l 629 718 l 629 924 q 591 1080 629 1018 q 487 1173 553 1142 q 336 1204 421 1204 q 112 1112 181 1204 q 43 846 43 1020 l 43 296 q 122 70 43 151 q 331 -11 201 -11 m 314 -428 q 468 -380 420 -428 q 516 -262 516 -332 q 480 -129 516 -199 q 378 0 444 -58 l 269 0 q 320 -98 302 -50 q 339 -185 339 -147 q 316 -247 339 -229 q 260 -265 294 -265 q 221 -261 241 -265 q 180 -250 201 -256 l 180 -401 q 314 -428 244 -428 m 176 1230 l 498 1293 l 498 1529 l 176 1381 l 176 1230 "},"Ĉ":{"ha":659,"x_min":35,"x_max":638,"o":"m 331 -11 q 553 60 473 -11 q 632 288 632 131 l 632 514 l 392 514 l 392 299 q 379 234 392 259 q 336 209 367 209 q 295 229 309 209 q 280 299 280 250 l 280 897 q 292 961 280 937 q 336 985 303 985 q 378 966 365 985 q 392 894 392 947 l 392 718 l 629 718 l 629 924 q 591 1080 629 1018 q 487 1173 553 1142 q 336 1204 421 1204 q 112 1112 181 1204 q 43 846 43 1020 l 43 296 q 122 70 43 151 q 331 -11 201 -11 m 35 1255 l 278 1255 l 336 1449 l 395 1255 l 638 1255 l 475 1529 l 198 1529 l 35 1255 "},"Ċ":{"ha":659,"x_min":43,"x_max":632,"o":"m 331 -11 q 553 60 473 -11 q 632 288 632 131 l 632 514 l 392 514 l 392 299 q 379 234 392 259 q 336 209 367 209 q 295 229 309 209 q 280 299 280 250 l 280 897 q 292 961 280 937 q 336 985 303 985 q 378 966 365 985 q 392 894 392 947 l 392 718 l 629 718 l 629 924 q 591 1080 629 1018 q 487 1173 553 1142 q 336 1204 421 1204 q 112 1112 181 1204 q 43 846 43 1020 l 43 296 q 122 70 43 151 q 331 -11 201 -11 m 215 1256 l 458 1256 l 458 1458 l 215 1458 l 215 1256 "},"Ꭓ":{"ha":687,"x_min":18,"x_max":669,"o":"m 669 -137 l 669 57 q 620 81 634 57 q 596 157 606 104 l 522 572 l 622 1194 l 393 1194 l 340 740 l 309 975 q 227 1149 293 1095 q 18 1203 161 1203 l 18 1009 q 77 986 64 1009 q 97 910 89 962 l 150 572 l 25 -126 l 262 -126 l 337 388 l 379 91 q 461 -82 396 -28 q 669 -137 527 -137 "},"Ƈ":{"ha":715,"x_min":43,"x_max":722,"o":"m 331 -11 q 553 60 473 -11 q 632 288 632 131 l 632 514 l 392 514 l 392 299 q 379 234 392 259 q 336 209 367 209 q 295 229 309 209 q 280 299 280 250 l 280 897 q 292 961 280 937 q 336 985 303 985 q 378 966 365 985 q 392 894 392 947 l 392 718 l 629 718 l 629 1039 q 652 1120 629 1098 q 722 1142 675 1142 l 722 1356 q 555 1305 623 1356 q 459 1168 487 1254 q 330 1204 404 1204 q 112 1112 180 1204 q 43 846 43 1020 l 43 296 q 122 70 43 151 q 331 -11 201 -11 "},"Ȼ":{"ha":659,"x_min":43,"x_max":632,"o":"m 109 -126 l 204 -126 l 237 1 q 331 -11 281 -11 q 553 60 473 -11 q 632 288 632 131 l 632 514 l 392 514 l 392 299 q 379 234 392 259 q 336 209 367 209 q 295 229 309 209 q 280 299 280 250 l 280 897 q 292 961 280 937 q 336 985 303 985 q 378 966 365 985 q 392 894 392 947 l 392 718 l 629 718 l 629 924 q 604 1054 629 999 q 535 1144 579 1109 l 589 1356 l 494 1356 l 451 1188 q 336 1204 399 1204 q 112 1112 181 1204 q 43 846 43 1020 l 43 296 q 72 145 43 210 q 153 43 101 81 l 109 -126 "},"D":{"ha":685,"x_min":53,"x_max":640,"o":"m 53 0 l 373 0 q 581 92 522 0 q 640 354 640 184 l 640 913 q 575 1122 640 1050 q 381 1194 510 1194 l 53 1194 l 53 0 m 293 211 l 293 985 l 319 985 q 384 967 368 985 q 400 890 400 950 l 400 275 q 334 211 400 211 l 293 211 "},"Ǳ":{"ha":1255,"x_min":53,"x_max":1232,"o":"m 53 0 l 373 0 q 581 92 522 0 q 640 354 640 184 l 640 913 q 575 1122 640 1050 q 381 1194 510 1194 l 53 1194 l 53 0 m 293 211 l 293 985 l 319 985 q 384 967 368 985 q 400 890 400 950 l 400 275 q 334 211 400 211 l 293 211 m 707 0 l 1220 0 l 1220 220 l 954 220 l 1232 985 l 1232 1194 l 733 1194 l 733 974 l 980 974 l 707 217 l 707 0 "},"Ǆ":{"ha":1255,"x_min":53,"x_max":1284,"o":"m 53 0 l 373 0 q 581 92 522 0 q 640 354 640 184 l 640 913 q 575 1122 640 1050 q 381 1194 510 1194 l 53 1194 l 53 0 m 293 211 l 293 985 l 319 985 q 384 967 368 985 q 400 890 400 950 l 400 275 q 334 211 400 211 l 293 211 m 707 0 l 1220 0 l 1220 220 l 954 220 l 1232 985 l 1232 1194 l 733 1194 l 733 974 l 980 974 l 707 217 l 707 0 m 844 1255 l 1121 1255 l 1284 1529 l 1041 1529 l 983 1335 l 924 1529 l 681 1529 l 844 1255 "},"Ɖ":{"ha":685,"x_min":2,"x_max":640,"o":"m 53 0 l 373 0 q 581 92 522 0 q 640 354 640 184 l 640 913 q 575 1122 640 1050 q 381 1194 510 1194 l 53 1194 l 53 703 l 2 703 l 2 545 l 53 545 l 53 0 m 293 211 l 293 545 l 352 545 l 352 703 l 293 703 l 293 985 l 319 985 q 384 967 368 985 q 400 890 400 950 l 400 275 q 334 211 400 211 l 293 211 "},"Ď":{"ha":685,"x_min":40,"x_max":644,"o":"m 53 0 l 373 0 q 581 92 522 0 q 640 354 640 184 l 640 913 q 575 1122 640 1050 q 381 1194 510 1194 l 53 1194 l 53 0 m 293 211 l 293 985 l 319 985 q 384 967 368 985 q 400 890 400 950 l 400 275 q 334 211 400 211 l 293 211 m 203 1255 l 480 1255 l 644 1529 l 400 1529 l 342 1335 l 283 1529 l 40 1529 l 203 1255 "},"Ḑ":{"ha":685,"x_min":53,"x_max":640,"o":"m 53 0 l 373 0 q 581 92 522 0 q 640 354 640 184 l 640 913 q 575 1122 640 1050 q 381 1194 510 1194 l 53 1194 l 53 0 m 293 211 l 293 985 l 319 985 q 384 967 368 985 q 400 890 400 950 l 400 275 q 334 211 400 211 l 293 211 m 248 -436 l 391 -436 l 460 -270 l 460 -74 l 207 -74 l 207 -276 l 293 -276 l 248 -436 "},"Ḓ":{"ha":685,"x_min":41,"x_max":644,"o":"m 53 0 l 373 0 q 581 92 522 0 q 640 354 640 184 l 640 913 q 575 1122 640 1050 q 381 1194 510 1194 l 53 1194 l 53 0 m 293 211 l 293 985 l 319 985 q 384 967 368 985 q 400 890 400 950 l 400 275 q 334 211 400 211 l 293 211 m 41 -347 l 284 -347 l 342 -154 l 401 -347 l 644 -347 l 481 -74 l 204 -74 l 41 -347 "},"Đ":{"ha":685,"x_min":2,"x_max":640,"o":"m 53 0 l 373 0 q 581 92 522 0 q 640 354 640 184 l 640 913 q 575 1122 640 1050 q 381 1194 510 1194 l 53 1194 l 53 703 l 2 703 l 2 545 l 53 545 l 53 0 m 293 211 l 293 545 l 352 545 l 352 703 l 293 703 l 293 985 l 319 985 q 384 967 368 985 q 400 890 400 950 l 400 275 q 334 211 400 211 l 293 211 "},"Ḋ":{"ha":685,"x_min":53,"x_max":640,"o":"m 53 0 l 373 0 q 581 92 522 0 q 640 354 640 184 l 640 913 q 575 1122 640 1050 q 381 1194 510 1194 l 53 1194 l 53 0 m 293 211 l 293 985 l 319 985 q 384 967 368 985 q 400 890 400 950 l 400 275 q 334 211 400 211 l 293 211 m 220 1256 l 463 1256 l 463 1458 l 220 1458 l 220 1256 "},"Ḍ":{"ha":685,"x_min":53,"x_max":640,"o":"m 53 0 l 373 0 q 581 92 522 0 q 640 354 640 184 l 640 913 q 575 1122 640 1050 q 381 1194 510 1194 l 53 1194 l 53 0 m 293 211 l 293 985 l 319 985 q 384 967 368 985 q 400 890 400 950 l 400 275 q 334 211 400 211 l 293 211 m 221 -283 l 464 -283 l 464 -81 l 221 -81 l 221 -283 "},"Δ":{"ha":748,"x_min":20,"x_max":728,"o":"m 20 0 l 728 0 l 540 1194 l 203 1194 l 20 0 m 243 153 l 349 1058 l 360 1058 l 453 153 l 243 153 "},"Ɗ":{"ha":922,"x_min":3,"x_max":877,"o":"m 290 0 l 610 0 q 818 92 758 0 q 877 354 877 184 l 877 913 q 812 1122 877 1050 q 618 1194 747 1194 l 290 1194 q 75 1108 146 1194 q 3 890 3 1023 l 3 849 l 212 849 l 212 890 q 290 985 212 985 l 290 0 m 530 211 l 530 985 l 556 985 q 621 967 605 985 q 637 890 637 950 l 637 275 q 571 211 637 211 l 530 211 "},"Ḏ":{"ha":685,"x_min":53,"x_max":640,"o":"m 53 0 l 373 0 q 581 92 522 0 q 640 354 640 184 l 640 913 q 575 1122 640 1050 q 381 1194 510 1194 l 53 1194 l 53 0 m 293 211 l 293 985 l 319 985 q 384 967 368 985 q 400 890 400 950 l 400 275 q 334 211 400 211 l 293 211 m 122 -184 l 563 -184 l 563 -81 l 122 -81 l 122 -184 "},"ǲ":{"ha":1221,"x_min":53,"x_max":1211,"o":"m 53 0 l 373 0 q 581 92 522 0 q 640 354 640 184 l 640 913 q 575 1122 640 1050 q 381 1194 510 1194 l 53 1194 l 53 0 m 293 211 l 293 985 l 319 985 q 384 967 368 985 q 400 890 400 950 l 400 275 q 334 211 400 211 l 293 211 m 704 0 l 1211 0 l 1211 182 l 970 182 l 1209 852 l 1209 1017 l 716 1017 l 716 825 l 958 825 l 704 149 l 704 0 "},"ǅ":{"ha":1221,"x_min":53,"x_max":1282,"o":"m 53 0 l 373 0 q 581 92 522 0 q 640 354 640 184 l 640 913 q 575 1122 640 1050 q 381 1194 510 1194 l 53 1194 l 53 0 m 293 211 l 293 985 l 319 985 q 384 967 368 985 q 400 890 400 950 l 400 275 q 334 211 400 211 l 293 211 m 704 0 l 1211 0 l 1211 182 l 970 182 l 1209 852 l 1209 1017 l 716 1017 l 716 825 l 958 825 l 704 149 l 704 0 m 842 1079 l 1119 1079 l 1282 1352 l 1039 1352 l 981 1159 l 922 1352 l 679 1352 l 842 1079 "},"E":{"ha":572,"x_min":53,"x_max":546,"o":"m 53 0 l 546 0 l 546 233 l 296 233 l 296 506 l 521 506 l 521 730 l 296 730 l 296 963 l 530 963 l 530 1194 l 53 1194 l 53 0 "},"É":{"ha":572,"x_min":53,"x_max":546,"o":"m 53 0 l 546 0 l 546 233 l 296 233 l 296 506 l 521 506 l 521 730 l 296 730 l 296 963 l 530 963 l 530 1194 l 53 1194 l 53 0 m 140 1230 l 462 1293 l 462 1529 l 140 1381 l 140 1230 "},"Ĕ":{"ha":572,"x_min":37,"x_max":571,"o":"m 53 0 l 546 0 l 546 233 l 296 233 l 296 506 l 521 506 l 521 730 l 296 730 l 296 963 l 530 963 l 530 1194 l 53 1194 l 53 0 m 303 1256 q 498 1307 425 1256 q 571 1472 571 1358 q 571 1482 571 1475 q 570 1495 570 1489 l 396 1495 q 376 1437 396 1457 q 304 1417 357 1417 q 233 1437 252 1417 q 213 1495 213 1457 l 39 1495 q 37 1467 37 1481 q 111 1306 37 1356 q 303 1256 184 1256 "},"Ě":{"ha":572,"x_min":-1,"x_max":603,"o":"m 53 0 l 546 0 l 546 233 l 296 233 l 296 506 l 521 506 l 521 730 l 296 730 l 296 963 l 530 963 l 530 1194 l 53 1194 l 53 0 m 163 1255 l 439 1255 l 603 1529 l 359 1529 l 301 1335 l 243 1529 l -1 1529 l 163 1255 "},"Ȩ":{"ha":572,"x_min":53,"x_max":546,"o":"m 53 0 l 546 0 l 546 233 l 296 233 l 296 506 l 521 506 l 521 730 l 296 730 l 296 963 l 530 963 l 530 1194 l 53 1194 l 53 0 m 275 -428 q 429 -380 380 -428 q 477 -262 477 -332 q 440 -129 477 -199 q 338 0 404 -58 l 229 0 q 281 -98 262 -50 q 300 -185 300 -147 q 277 -247 300 -229 q 220 -265 254 -265 q 182 -261 202 -265 q 140 -250 161 -256 l 140 -401 q 275 -428 205 -428 "},"Ḝ":{"ha":572,"x_min":28,"x_max":562,"o":"m 53 0 l 546 0 l 546 233 l 296 233 l 296 506 l 521 506 l 521 730 l 296 730 l 296 963 l 530 963 l 530 1194 l 53 1194 l 53 0 m 275 -428 q 429 -380 380 -428 q 477 -262 477 -332 q 440 -129 477 -199 q 338 0 404 -58 l 229 0 q 281 -98 262 -50 q 300 -185 300 -147 q 277 -247 300 -229 q 220 -265 254 -265 q 182 -261 202 -265 q 140 -250 161 -256 l 140 -401 q 275 -428 205 -428 m 294 1256 q 489 1307 416 1256 q 562 1472 562 1358 q 562 1482 562 1475 q 561 1495 562 1489 l 387 1495 q 368 1437 387 1457 q 296 1417 348 1417 q 224 1437 243 1417 q 204 1495 204 1457 l 31 1495 q 28 1467 28 1481 q 102 1306 28 1356 q 294 1256 176 1256 "},"Ê":{"ha":572,"x_min":-1,"x_max":603,"o":"m 53 0 l 546 0 l 546 233 l 296 233 l 296 506 l 521 506 l 521 730 l 296 730 l 296 963 l 530 963 l 530 1194 l 53 1194 l 53 0 m -1 1255 l 243 1255 l 301 1449 l 359 1255 l 603 1255 l 439 1529 l 163 1529 l -1 1255 "},"Ế":{"ha":572,"x_min":35,"x_max":777,"o":"m 53 0 l 546 0 l 546 233 l 296 233 l 296 506 l 521 506 l 521 730 l 296 730 l 296 963 l 530 963 l 530 1194 l 53 1194 l 53 0 m 491 1356 l 649 1356 l 777 1495 l 568 1495 l 491 1356 m 35 1247 l 228 1247 l 295 1339 l 362 1247 l 555 1247 l 395 1419 l 195 1419 l 35 1247 "},"Ḙ":{"ha":572,"x_min":-2,"x_max":602,"o":"m 53 0 l 546 0 l 546 233 l 296 233 l 296 506 l 521 506 l 521 730 l 296 730 l 296 963 l 530 963 l 530 1194 l 53 1194 l 53 0 m -2 -347 l 241 -347 l 300 -154 l 358 -347 l 602 -347 l 438 -74 l 161 -74 l -2 -347 "},"Ệ":{"ha":572,"x_min":-7,"x_max":597,"o":"m 53 0 l 546 0 l 546 233 l 296 233 l 296 506 l 521 506 l 521 730 l 296 730 l 296 963 l 530 963 l 530 1194 l 53 1194 l 53 0 m 178 -283 l 421 -283 l 421 -81 l 178 -81 l 178 -283 m -7 1262 l 237 1262 l 295 1408 l 353 1262 l 597 1262 l 433 1488 l 157 1488 l -7 1262 "},"Ề":{"ha":572,"x_min":35,"x_max":694,"o":"m 53 0 l 546 0 l 546 233 l 296 233 l 296 506 l 521 506 l 521 730 l 296 730 l 296 963 l 530 963 l 530 1194 l 53 1194 l 53 0 m 536 1356 l 694 1356 l 617 1495 l 409 1495 l 536 1356 m 35 1247 l 228 1247 l 295 1339 l 362 1247 l 555 1247 l 395 1419 l 195 1419 l 35 1247 "},"Ể":{"ha":572,"x_min":35,"x_max":661,"o":"m 53 0 l 546 0 l 546 233 l 296 233 l 296 506 l 521 506 l 521 730 l 296 730 l 296 963 l 530 963 l 530 1194 l 53 1194 l 53 0 m 546 1329 q 628 1375 595 1344 q 661 1459 661 1405 q 631 1533 661 1506 q 549 1559 601 1559 q 471 1545 510 1559 l 471 1469 q 509 1476 490 1476 q 552 1436 552 1476 q 538 1402 552 1415 q 501 1381 524 1390 l 546 1329 m 35 1247 l 228 1247 l 295 1339 l 362 1247 l 555 1247 l 395 1419 l 195 1419 l 35 1247 "},"Ễ":{"ha":572,"x_min":35,"x_max":555,"o":"m 53 0 l 546 0 l 546 233 l 296 233 l 296 506 l 521 506 l 521 730 l 296 730 l 296 963 l 530 963 l 530 1194 l 53 1194 l 53 0 m 376 1453 q 459 1490 434 1453 q 503 1575 484 1528 l 418 1603 q 361 1565 395 1565 q 309 1576 334 1565 q 258 1599 284 1588 q 199 1611 231 1611 q 124 1579 149 1611 q 82 1503 100 1548 l 157 1464 q 184 1491 170 1484 q 214 1499 198 1499 q 267 1487 241 1499 q 319 1464 292 1476 q 376 1453 346 1453 m 35 1247 l 228 1247 l 295 1339 l 362 1247 l 555 1247 l 395 1419 l 195 1419 l 35 1247 "},"Ȅ":{"ha":572,"x_min":-28,"x_max":546,"o":"m 53 0 l 546 0 l 546 233 l 296 233 l 296 506 l 521 506 l 521 730 l 296 730 l 296 963 l 530 963 l 530 1194 l 53 1194 l 53 0 m 168 1252 l 280 1291 l 130 1616 l -28 1543 l 168 1252 m 372 1252 l 485 1291 l 360 1616 l 204 1543 l 372 1252 "},"Ë":{"ha":572,"x_min":11,"x_max":582,"o":"m 53 0 l 546 0 l 546 233 l 296 233 l 296 506 l 521 506 l 521 730 l 296 730 l 296 963 l 530 963 l 530 1194 l 53 1194 l 53 0 m 339 1261 l 582 1261 l 582 1463 l 339 1463 l 339 1261 m 11 1261 l 254 1261 l 254 1463 l 11 1463 l 11 1261 "},"Ė":{"ha":572,"x_min":53,"x_max":546,"o":"m 53 0 l 546 0 l 546 233 l 296 233 l 296 506 l 521 506 l 521 730 l 296 730 l 296 963 l 530 963 l 530 1194 l 53 1194 l 53 0 m 180 1256 l 422 1256 l 422 1458 l 180 1458 l 180 1256 "},"Ẹ":{"ha":572,"x_min":53,"x_max":546,"o":"m 53 0 l 546 0 l 546 233 l 296 233 l 296 506 l 521 506 l 521 730 l 296 730 l 296 963 l 530 963 l 530 1194 l 53 1194 l 53 0 m 178 -283 l 421 -283 l 421 -81 l 178 -81 l 178 -283 "},"È":{"ha":572,"x_min":53,"x_max":546,"o":"m 53 0 l 546 0 l 546 233 l 296 233 l 296 506 l 521 506 l 521 730 l 296 730 l 296 963 l 530 963 l 530 1194 l 53 1194 l 53 0 m 462 1230 l 462 1381 l 140 1529 l 140 1293 l 462 1230 "},"Ẻ":{"ha":572,"x_min":53,"x_max":546,"o":"m 53 0 l 546 0 l 546 233 l 296 233 l 296 506 l 521 506 l 521 730 l 296 730 l 296 963 l 530 963 l 530 1194 l 53 1194 l 53 0 m 275 1246 q 407 1319 354 1270 q 460 1455 460 1369 q 412 1574 460 1531 q 279 1616 364 1616 q 155 1594 215 1616 l 155 1472 q 216 1482 184 1482 q 285 1418 285 1482 q 262 1364 285 1384 q 203 1330 240 1343 l 275 1246 "},"Ȇ":{"ha":572,"x_min":47,"x_max":554,"o":"m 53 0 l 546 0 l 546 233 l 296 233 l 296 506 l 521 506 l 521 730 l 296 730 l 296 963 l 530 963 l 530 1194 l 53 1194 l 53 0 m 50 1267 l 210 1267 q 236 1335 210 1313 q 301 1358 262 1358 q 367 1335 341 1358 q 393 1267 393 1313 l 553 1267 q 554 1280 553 1274 q 554 1290 554 1286 q 488 1454 554 1403 q 300 1506 422 1506 q 114 1455 181 1506 q 47 1295 47 1405 q 50 1267 47 1280 "},"Ē":{"ha":572,"x_min":53,"x_max":546,"o":"m 53 0 l 546 0 l 546 233 l 296 233 l 296 506 l 521 506 l 521 730 l 296 730 l 296 963 l 530 963 l 530 1194 l 53 1194 l 53 0 m 65 1274 l 506 1274 l 506 1378 l 65 1378 l 65 1274 "},"Ḗ":{"ha":572,"x_min":53,"x_max":546,"o":"m 53 0 l 546 0 l 546 233 l 296 233 l 296 506 l 521 506 l 521 730 l 296 730 l 296 963 l 530 963 l 530 1194 l 53 1194 l 53 0 m 75 1234 l 515 1234 l 515 1337 l 75 1337 l 75 1234 m 138 1370 l 460 1420 l 460 1615 l 138 1501 l 138 1370 "},"Ḕ":{"ha":572,"x_min":53,"x_max":546,"o":"m 53 0 l 546 0 l 546 233 l 296 233 l 296 506 l 521 506 l 521 730 l 296 730 l 296 963 l 530 963 l 530 1194 l 53 1194 l 53 0 m 75 1234 l 515 1234 l 515 1337 l 75 1337 l 75 1234 m 460 1369 l 460 1500 l 138 1614 l 138 1419 l 460 1369 "},"Ŋ":{"ha":682,"x_min":53,"x_max":639,"o":"m 303 -331 q 551 -249 463 -331 q 639 -5 639 -167 l 639 1194 l 408 1194 l 408 622 l 298 1194 l 53 1194 l 53 0 l 286 0 l 286 597 l 391 71 l 391 -21 q 303 -126 391 -126 l 303 -331 "},"Ę":{"ha":572,"x_min":53,"x_max":546,"o":"m 53 0 l 546 0 l 546 233 l 296 233 l 296 506 l 521 506 l 521 730 l 296 730 l 296 963 l 530 963 l 530 1194 l 53 1194 l 53 0 m 313 -428 q 448 -401 383 -428 l 448 -250 q 369 -265 402 -265 q 291 -189 291 -265 q 326 -86 291 -133 q 399 0 361 -39 l 256 0 q 77 -224 77 -100 q 110 -333 77 -288 q 195 -404 142 -379 q 313 -428 249 -428 "},"Ɛ":{"ha":686,"x_min":26,"x_max":652,"o":"m 350 -14 q 580 70 508 -14 q 652 321 652 153 l 652 446 l 407 446 l 407 321 q 397 240 407 273 q 343 208 387 208 q 297 230 311 208 q 280 287 283 252 q 277 359 277 321 l 277 381 q 298 488 277 443 q 378 534 319 534 l 449 534 l 449 748 l 406 748 q 311 778 348 748 q 275 876 275 808 q 341 977 275 977 q 389 946 381 977 q 397 872 397 915 l 397 836 l 644 836 l 644 878 q 568 1119 644 1042 q 334 1196 492 1196 q 29 878 29 1196 q 53 723 29 782 q 141 641 77 664 q 66 579 90 616 q 34 488 41 541 q 26 359 26 434 q 101 83 26 180 q 350 -14 176 -14 "},"Ǝ":{"ha":572,"x_min":26,"x_max":519,"o":"m 519 0 l 519 1194 l 41 1194 l 41 963 l 276 963 l 276 730 l 51 730 l 51 506 l 276 506 l 276 233 l 26 233 l 26 0 l 519 0 "},"Ʃ":{"ha":567,"x_min":42,"x_max":539,"o":"m 42 0 l 539 0 l 539 233 l 304 233 l 476 576 l 476 628 l 297 963 l 528 963 l 528 1194 l 42 1194 l 42 987 l 250 598 l 42 182 l 42 0 "},"Ɇ":{"ha":572,"x_min":53,"x_max":549,"o":"m 53 0 l 101 0 l 68 -126 l 163 -126 l 196 0 l 546 0 l 546 233 l 296 233 l 296 506 l 521 506 l 521 730 l 296 730 l 296 963 l 530 963 l 530 1194 l 507 1194 l 549 1356 l 454 1356 l 412 1194 l 53 1194 l 53 0 "},"Ð":{"ha":685,"x_min":2,"x_max":640,"o":"m 53 0 l 373 0 q 581 92 522 0 q 640 354 640 184 l 640 913 q 575 1122 640 1050 q 381 1194 510 1194 l 53 1194 l 53 703 l 2 703 l 2 545 l 53 545 l 53 0 m 293 211 l 293 545 l 352 545 l 352 703 l 293 703 l 293 985 l 319 985 q 384 967 368 985 q 400 890 400 950 l 400 275 q 334 211 400 211 l 293 211 "},"Ẽ":{"ha":572,"x_min":21,"x_max":581,"o":"m 53 0 l 546 0 l 546 233 l 296 233 l 296 506 l 521 506 l 521 730 l 296 730 l 296 963 l 530 963 l 530 1194 l 53 1194 l 53 0 m 413 1269 q 495 1294 464 1269 q 545 1360 526 1319 q 581 1446 565 1400 l 469 1482 q 439 1443 455 1455 q 406 1432 424 1432 q 348 1446 379 1432 q 277 1474 316 1460 q 189 1489 239 1489 q 109 1468 140 1489 q 58 1413 78 1447 q 21 1337 38 1379 l 121 1284 q 151 1320 135 1310 q 184 1331 166 1331 q 248 1315 215 1331 q 321 1284 281 1300 q 413 1269 361 1269 "},"Ḛ":{"ha":572,"x_min":20,"x_max":580,"o":"m 53 0 l 546 0 l 546 233 l 296 233 l 296 506 l 521 506 l 521 730 l 296 730 l 296 963 l 530 963 l 530 1194 l 53 1194 l 53 0 m 412 -295 q 493 -270 463 -295 q 544 -204 524 -245 q 580 -118 564 -163 l 467 -81 q 438 -121 454 -109 q 404 -132 422 -132 q 346 -118 378 -132 q 274 -90 313 -104 q 187 -75 235 -75 q 108 -96 139 -75 q 57 -151 77 -117 q 20 -227 37 -185 l 120 -279 q 149 -243 134 -254 q 182 -233 165 -233 q 244 -249 210 -233 q 320 -279 278 -264 q 412 -295 361 -295 "},"Ʒ":{"ha":686,"x_min":29,"x_max":652,"o":"m 330 -9 q 575 85 498 -9 q 652 363 652 180 q 609 588 652 499 q 473 712 567 677 l 650 983 l 650 1194 l 60 1194 l 60 963 l 384 963 l 223 718 l 223 545 l 302 545 q 401 393 401 545 l 401 363 q 399 287 401 322 q 384 231 397 252 q 342 210 372 210 q 287 240 300 210 q 273 325 273 271 l 273 446 l 29 446 l 29 325 q 101 73 29 155 q 330 -9 173 -9 "},"Ǯ":{"ha":686,"x_min":29,"x_max":659,"o":"m 330 -9 q 575 85 498 -9 q 652 363 652 180 q 609 588 652 499 q 473 712 567 677 l 650 983 l 650 1194 l 60 1194 l 60 963 l 384 963 l 223 718 l 223 545 l 302 545 q 401 393 401 545 l 401 363 q 399 287 401 322 q 384 231 397 252 q 342 210 372 210 q 287 240 300 210 q 273 325 273 271 l 273 446 l 29 446 l 29 325 q 101 73 29 155 q 330 -9 173 -9 m 55 1488 l 218 1262 l 495 1262 l 659 1488 l 415 1488 l 357 1342 l 298 1488 l 55 1488 "},"Ƹ":{"ha":686,"x_min":35,"x_max":657,"o":"m 357 -9 q 585 73 513 -9 q 657 325 657 155 l 657 446 l 414 446 l 414 325 q 400 240 414 271 q 345 210 387 210 q 302 231 315 210 q 287 287 290 252 q 285 363 285 322 l 285 393 q 385 545 285 545 l 463 545 l 463 718 l 302 963 l 627 963 l 627 1194 l 36 1194 l 36 983 l 214 712 q 77 588 119 677 q 35 363 35 499 q 111 85 35 180 q 357 -9 188 -9 "},"F":{"ha":554,"x_min":53,"x_max":530,"o":"m 53 0 l 293 0 l 293 541 l 518 541 l 518 771 l 293 771 l 293 961 l 530 961 l 530 1194 l 53 1194 l 53 0 "},"Ḟ":{"ha":554,"x_min":53,"x_max":530,"o":"m 53 0 l 293 0 l 293 541 l 518 541 l 518 771 l 293 771 l 293 961 l 530 961 l 530 1194 l 53 1194 l 53 0 m 185 1256 l 428 1256 l 428 1458 l 185 1458 l 185 1256 "},"Ƒ":{"ha":554,"x_min":-15,"x_max":530,"o":"m -15 -133 q 148 -94 79 -133 q 255 14 217 -55 q 293 171 293 82 l 293 541 l 518 541 l 518 771 l 293 771 l 293 961 l 530 961 l 530 1194 l 53 1194 l 53 171 q 37 102 53 123 q -15 81 21 81 l -15 -133 "},"G":{"ha":673,"x_min":43,"x_max":635,"o":"m 299 -11 q 496 100 433 -11 l 536 0 l 632 0 l 632 695 l 340 695 l 340 489 l 404 489 l 404 319 q 392 239 404 269 q 341 209 379 209 q 292 239 304 209 q 279 317 279 269 l 279 896 q 293 957 279 929 q 347 985 306 985 q 391 959 380 985 q 401 894 401 932 l 401 788 l 635 788 q 610 1015 635 922 q 522 1156 586 1107 q 336 1204 457 1204 q 43 870 43 1204 l 43 355 q 299 -11 43 -11 "},"Ǵ":{"ha":673,"x_min":43,"x_max":635,"o":"m 299 -11 q 496 100 433 -11 l 536 0 l 632 0 l 632 695 l 340 695 l 340 489 l 404 489 l 404 319 q 392 239 404 269 q 341 209 379 209 q 292 239 304 209 q 279 317 279 269 l 279 896 q 293 957 279 929 q 347 985 306 985 q 391 959 380 985 q 401 894 401 932 l 401 788 l 635 788 q 610 1015 635 922 q 522 1156 586 1107 q 336 1204 457 1204 q 43 870 43 1204 l 43 355 q 299 -11 43 -11 m 174 1230 l 496 1293 l 496 1529 l 174 1381 l 174 1230 "},"Ɣ":{"ha":652,"x_min":16,"x_max":635,"o":"m 326 -133 q 466 -99 408 -133 q 554 -6 524 -65 q 584 128 584 54 q 568 272 584 193 q 522 433 553 351 l 467 580 l 635 1194 l 406 1194 l 326 802 l 245 1194 l 16 1194 l 185 574 l 136 433 q 87 272 108 351 q 67 128 67 193 q 97 -6 67 54 q 185 -99 127 -65 q 326 -133 243 -133 m 326 69 q 288 87 300 69 q 275 131 275 105 q 288 224 275 178 q 326 343 300 271 q 363 224 351 271 q 376 131 376 178 q 363 87 376 105 q 326 69 351 69 "},"Ğ":{"ha":673,"x_min":43,"x_max":635,"o":"m 299 -11 q 496 100 433 -11 l 536 0 l 632 0 l 632 695 l 340 695 l 340 489 l 404 489 l 404 319 q 392 239 404 269 q 341 209 379 209 q 292 239 304 209 q 279 317 279 269 l 279 896 q 293 957 279 929 q 347 985 306 985 q 391 959 380 985 q 401 894 401 932 l 401 788 l 635 788 q 610 1015 635 922 q 522 1156 586 1107 q 336 1204 457 1204 q 43 870 43 1204 l 43 355 q 299 -11 43 -11 m 338 1256 q 533 1307 460 1256 q 606 1472 606 1358 q 605 1482 606 1475 q 604 1495 605 1489 l 431 1495 q 411 1437 431 1457 q 339 1417 391 1417 q 267 1437 287 1417 q 248 1495 248 1457 l 74 1495 q 72 1467 72 1481 q 145 1306 72 1356 q 338 1256 219 1256 "},"Ǧ":{"ha":673,"x_min":34,"x_max":637,"o":"m 299 -11 q 496 100 433 -11 l 536 0 l 632 0 l 632 695 l 340 695 l 340 489 l 404 489 l 404 319 q 392 239 404 269 q 341 209 379 209 q 292 239 304 209 q 279 317 279 269 l 279 896 q 293 957 279 929 q 347 985 306 985 q 391 959 380 985 q 401 894 401 932 l 401 788 l 635 788 q 610 1015 635 922 q 522 1156 586 1107 q 336 1204 457 1204 q 43 870 43 1204 l 43 355 q 299 -11 43 -11 m 197 1255 l 474 1255 l 637 1529 l 394 1529 l 336 1335 l 277 1529 l 34 1529 l 197 1255 "},"Ĝ":{"ha":673,"x_min":34,"x_max":637,"o":"m 299 -11 q 496 100 433 -11 l 536 0 l 632 0 l 632 695 l 340 695 l 340 489 l 404 489 l 404 319 q 392 239 404 269 q 341 209 379 209 q 292 239 304 209 q 279 317 279 269 l 279 896 q 293 957 279 929 q 347 985 306 985 q 391 959 380 985 q 401 894 401 932 l 401 788 l 635 788 q 610 1015 635 922 q 522 1156 586 1107 q 336 1204 457 1204 q 43 870 43 1204 l 43 355 q 299 -11 43 -11 m 34 1255 l 277 1255 l 336 1449 l 394 1255 l 637 1255 l 474 1529 l 197 1529 l 34 1255 "},"Ģ":{"ha":673,"x_min":43,"x_max":635,"o":"m 299 -11 q 496 100 433 -11 l 536 0 l 632 0 l 632 695 l 340 695 l 340 489 l 404 489 l 404 319 q 392 239 404 269 q 341 209 379 209 q 292 239 304 209 q 279 317 279 269 l 279 896 q 293 957 279 929 q 347 985 306 985 q 391 959 380 985 q 401 894 401 932 l 401 788 l 635 788 q 610 1015 635 922 q 522 1156 586 1107 q 336 1204 457 1204 q 43 870 43 1204 l 43 355 q 299 -11 43 -11 m 248 -436 l 391 -436 l 460 -270 l 460 -74 l 207 -74 l 207 -276 l 293 -276 l 248 -436 "},"Ġ":{"ha":673,"x_min":43,"x_max":635,"o":"m 299 -11 q 496 100 433 -11 l 536 0 l 632 0 l 632 695 l 340 695 l 340 489 l 404 489 l 404 319 q 392 239 404 269 q 341 209 379 209 q 292 239 304 209 q 279 317 279 269 l 279 896 q 293 957 279 929 q 347 985 306 985 q 391 959 380 985 q 401 894 401 932 l 401 788 l 635 788 q 610 1015 635 922 q 522 1156 586 1107 q 336 1204 457 1204 q 43 870 43 1204 l 43 355 q 299 -11 43 -11 m 214 1256 l 457 1256 l 457 1458 l 214 1458 l 214 1256 "},"ẞ":{"ha":691,"x_min":39,"x_max":657,"o":"m 39 0 l 277 0 l 277 921 q 349 997 277 997 q 418 984 385 997 l 321 707 l 321 558 q 399 536 377 558 q 421 458 421 513 l 421 271 q 324 191 421 191 l 324 0 l 395 0 q 554 40 496 0 q 634 160 611 79 q 657 365 657 241 q 635 588 657 506 q 546 700 612 670 l 633 952 l 633 1117 q 509 1179 584 1152 q 333 1205 434 1205 q 116 1142 192 1205 q 39 951 39 1079 l 39 0 "},"Ɠ":{"ha":715,"x_min":43,"x_max":722,"o":"m 299 -11 q 496 100 433 -11 l 536 0 l 632 0 l 632 695 l 340 695 l 340 489 l 404 489 l 404 319 q 392 239 404 269 q 341 209 379 209 q 292 239 304 209 q 279 317 279 269 l 279 896 q 293 957 279 929 q 347 985 306 985 q 391 959 380 985 q 401 894 401 932 l 401 788 l 629 788 l 629 1039 q 652 1120 629 1098 q 722 1142 675 1142 l 722 1356 q 554 1304 622 1356 q 458 1164 486 1252 q 309 1204 400 1204 q 113 1120 183 1204 q 43 870 43 1036 l 43 355 q 299 -11 43 -11 "},"Ɂ":{"ha":684,"x_min":33,"x_max":663,"o":"m 195 0 l 420 0 l 420 424 q 553 477 498 424 q 635 622 607 530 q 663 831 663 714 q 634 1035 663 951 q 535 1161 604 1118 q 345 1204 465 1204 q 120 1138 207 1204 q 33 935 33 1072 l 33 763 l 281 763 l 281 862 q 284 922 281 893 q 302 969 288 951 q 345 988 315 988 q 396 955 385 988 q 408 878 408 922 q 395 723 408 781 q 358 637 383 665 q 292 600 332 608 q 195 591 252 591 l 195 0 "},"Ḡ":{"ha":673,"x_min":43,"x_max":635,"o":"m 299 -11 q 496 100 433 -11 l 536 0 l 632 0 l 632 695 l 340 695 l 340 489 l 404 489 l 404 319 q 392 239 404 269 q 341 209 379 209 q 292 239 304 209 q 279 317 279 269 l 279 896 q 293 957 279 929 q 347 985 306 985 q 391 959 380 985 q 401 894 401 932 l 401 788 l 635 788 q 610 1015 635 922 q 522 1156 586 1107 q 336 1204 457 1204 q 43 870 43 1204 l 43 355 q 299 -11 43 -11 m 115 1274 l 556 1274 l 556 1378 l 115 1378 l 115 1274 "},"Ǥ":{"ha":673,"x_min":43,"x_max":688,"o":"m 299 -11 q 496 100 433 -11 l 536 0 l 632 0 l 632 287 l 688 287 l 688 444 l 632 444 l 632 695 l 340 695 l 340 489 l 404 489 l 404 444 l 338 444 l 338 287 l 403 287 q 386 230 399 251 q 341 209 372 209 q 292 239 304 209 q 279 317 279 269 l 279 896 q 293 957 279 929 q 347 985 306 985 q 391 959 380 985 q 401 894 401 932 l 401 788 l 635 788 q 610 1015 635 922 q 522 1156 586 1107 q 336 1204 457 1204 q 43 870 43 1204 l 43 355 q 299 -11 43 -11 "},"H":{"ha":693,"x_min":53,"x_max":640,"o":"m 53 0 l 290 0 l 290 541 l 403 541 l 403 0 l 640 0 l 640 1194 l 403 1194 l 403 767 l 290 767 l 290 1194 l 53 1194 l 53 0 "},"Ħ":{"ha":706,"x_min":-7,"x_max":713,"o":"m 65 0 l 302 0 l 302 541 l 415 541 l 415 0 l 652 0 l 652 910 l 713 910 l 713 1059 l 652 1059 l 652 1194 l 415 1194 l 415 1059 l 302 1059 l 302 1194 l 65 1194 l 65 1059 l -7 1059 l -7 910 l 65 910 l 65 0 m 302 767 l 302 910 l 415 910 l 415 767 l 302 767 "},"Ḫ":{"ha":693,"x_min":53,"x_max":640,"o":"m 53 0 l 290 0 l 290 541 l 403 541 l 403 0 l 640 0 l 640 1194 l 403 1194 l 403 767 l 290 767 l 290 1194 l 53 1194 l 53 0 m 345 -282 q 540 -231 467 -282 q 613 -66 613 -180 q 612 -43 613 -60 l 438 -43 q 418 -101 438 -81 q 347 -121 399 -121 q 275 -101 294 -121 q 255 -43 255 -81 l 81 -43 q 79 -71 79 -56 q 153 -232 79 -182 q 345 -282 227 -282 "},"Ȟ":{"ha":693,"x_min":45,"x_max":648,"o":"m 53 0 l 290 0 l 290 541 l 403 541 l 403 0 l 640 0 l 640 1194 l 403 1194 l 403 767 l 290 767 l 290 1194 l 53 1194 l 53 0 m 208 1255 l 485 1255 l 648 1529 l 405 1529 l 347 1335 l 288 1529 l 45 1529 l 208 1255 "},"Ḩ":{"ha":693,"x_min":26,"x_max":640,"o":"m 53 0 l 290 0 l 290 541 l 403 541 l 403 0 l 640 0 l 640 1194 l 403 1194 l 403 767 l 290 767 l 290 1194 l 53 1194 l 53 0 m 160 -428 q 314 -380 266 -428 q 362 -262 362 -332 q 326 -129 362 -199 q 224 0 290 -58 l 115 0 q 166 -98 148 -50 q 185 -185 185 -147 q 162 -247 185 -229 q 106 -265 140 -265 q 67 -261 87 -265 q 26 -250 47 -256 l 26 -401 q 160 -428 90 -428 "},"Ĥ":{"ha":693,"x_min":45,"x_max":648,"o":"m 53 0 l 290 0 l 290 541 l 403 541 l 403 0 l 640 0 l 640 1194 l 403 1194 l 403 767 l 290 767 l 290 1194 l 53 1194 l 53 0 m 45 1255 l 288 1255 l 347 1449 l 405 1255 l 648 1255 l 485 1529 l 208 1529 l 45 1255 "},"Ḧ":{"ha":693,"x_min":53,"x_max":640,"o":"m 53 0 l 290 0 l 290 541 l 403 541 l 403 0 l 640 0 l 640 1194 l 403 1194 l 403 767 l 290 767 l 290 1194 l 53 1194 l 53 0 m 385 1261 l 627 1261 l 627 1463 l 385 1463 l 385 1261 m 56 1261 l 299 1261 l 299 1463 l 56 1463 l 56 1261 "},"Ḣ":{"ha":693,"x_min":53,"x_max":640,"o":"m 53 0 l 290 0 l 290 541 l 403 541 l 403 0 l 640 0 l 640 1194 l 403 1194 l 403 767 l 290 767 l 290 1194 l 53 1194 l 53 0 m 225 1256 l 468 1256 l 468 1458 l 225 1458 l 225 1256 "},"Ḥ":{"ha":693,"x_min":53,"x_max":640,"o":"m 53 0 l 290 0 l 290 541 l 403 541 l 403 0 l 640 0 l 640 1194 l 403 1194 l 403 767 l 290 767 l 290 1194 l 53 1194 l 53 0 m 224 -283 l 467 -283 l 467 -81 l 224 -81 l 224 -283 "},"Ꜧ":{"ha":693,"x_min":53,"x_max":640,"o":"m 349 -133 q 559 -59 478 -133 q 640 157 640 14 l 640 1194 l 403 1194 l 403 767 l 290 767 l 290 1194 l 53 1194 l 53 0 l 290 0 l 290 541 l 403 541 l 403 171 q 389 97 403 113 q 349 81 374 81 l 349 -133 "},"Ɦ":{"ha":930,"x_min":3,"x_max":877,"o":"m 290 0 l 527 0 l 527 541 l 640 541 l 640 0 l 877 0 l 877 1194 l 640 1194 l 640 767 l 527 767 l 527 1194 l 290 1194 q 75 1108 146 1194 q 3 890 3 1023 l 3 849 l 212 849 l 212 890 q 231 968 212 944 q 290 993 250 993 l 290 0 "},"Ɥ":{"ha":693,"x_min":53,"x_max":640,"o":"m 403 0 l 640 0 l 640 1194 l 403 1194 l 403 767 l 290 767 l 290 1194 l 53 1194 l 53 541 l 403 541 l 403 0 "},"I":{"ha":315,"x_min":42,"x_max":273,"o":"m 42 0 l 273 0 l 273 1194 l 42 1194 l 42 0 "},"Ĳ":{"ha":962,"x_min":42,"x_max":924,"o":"m 42 0 l 273 0 l 273 1194 l 42 1194 l 42 0 m 632 -11 q 783 27 718 -11 q 886 134 849 64 q 924 298 924 203 l 924 1194 l 683 1194 l 683 275 q 629 209 683 209 q 589 228 602 209 q 576 278 576 247 l 576 563 l 340 563 l 340 264 q 379 113 340 174 q 485 20 418 52 q 632 -11 551 -11 "},"Í":{"ha":315,"x_min":-4,"x_max":318,"o":"m 42 0 l 273 0 l 273 1194 l 42 1194 l 42 0 m -4 1230 l 318 1293 l 318 1529 l -4 1381 l -4 1230 "},"Ĭ":{"ha":315,"x_min":-106,"x_max":427,"o":"m 42 0 l 273 0 l 273 1194 l 42 1194 l 42 0 m 159 1256 q 354 1307 281 1256 q 427 1472 427 1358 q 427 1482 427 1475 q 426 1495 427 1489 l 252 1495 q 233 1437 252 1457 q 161 1417 213 1417 q 89 1437 109 1417 q 69 1495 69 1457 l -104 1495 q -106 1467 -106 1481 q -33 1306 -106 1356 q 159 1256 41 1256 "},"Ǐ":{"ha":315,"x_min":-144,"x_max":459,"o":"m 42 0 l 273 0 l 273 1194 l 42 1194 l 42 0 m 19 1255 l 296 1255 l 459 1529 l 216 1529 l 157 1335 l 99 1529 l -144 1529 l 19 1255 "},"Î":{"ha":315,"x_min":-144,"x_max":459,"o":"m 42 0 l 273 0 l 273 1194 l 42 1194 l 42 0 m -144 1255 l 99 1255 l 157 1449 l 216 1255 l 459 1255 l 296 1529 l 19 1529 l -144 1255 "},"Ȉ":{"ha":315,"x_min":-172,"x_max":341,"o":"m 42 0 l 273 0 l 273 1194 l 42 1194 l 42 0 m 24 1252 l 136 1291 l -14 1616 l -172 1543 l 24 1252 m 229 1252 l 341 1291 l 216 1616 l 60 1543 l 229 1252 "},"Ï":{"ha":315,"x_min":-133,"x_max":438,"o":"m 42 0 l 273 0 l 273 1194 l 42 1194 l 42 0 m 195 1261 l 438 1261 l 438 1463 l 195 1463 l 195 1261 m -133 1261 l 110 1261 l 110 1463 l -133 1463 l -133 1261 "},"Ḯ":{"ha":315,"x_min":-128,"x_max":443,"o":"m 42 0 l 273 0 l 273 1194 l 42 1194 l 42 0 m 200 1261 l 443 1261 l 443 1429 l 200 1429 l 200 1261 m -128 1261 l 115 1261 l 115 1429 l -128 1429 l -128 1261 m -3 1488 l 319 1538 l 319 1733 l -3 1619 l -3 1488 "},"İ":{"ha":315,"x_min":36,"x_max":279,"o":"m 42 0 l 273 0 l 273 1194 l 42 1194 l 42 0 m 36 1256 l 279 1256 l 279 1458 l 36 1458 l 36 1256 "},"Ị":{"ha":315,"x_min":36,"x_max":279,"o":"m 42 0 l 273 0 l 273 1194 l 42 1194 l 42 0 m 36 -283 l 279 -283 l 279 -81 l 36 -81 l 36 -283 "},"Ì":{"ha":315,"x_min":-4,"x_max":318,"o":"m 42 0 l 273 0 l 273 1194 l 42 1194 l 42 0 m 318 1230 l 318 1381 l -4 1529 l -4 1293 l 318 1230 "},"Ỉ":{"ha":315,"x_min":18,"x_max":322,"o":"m 42 0 l 273 0 l 273 1194 l 42 1194 l 42 0 m 138 1246 q 269 1319 216 1270 q 322 1455 322 1369 q 274 1574 322 1531 q 142 1616 227 1616 q 18 1594 77 1616 l 18 1472 q 79 1482 47 1482 q 147 1418 147 1482 q 125 1364 147 1384 q 66 1330 102 1343 l 138 1246 "},"Ȋ":{"ha":315,"x_min":-96,"x_max":410,"o":"m 42 0 l 273 0 l 273 1194 l 42 1194 l 42 0 m -94 1267 l 66 1267 q 92 1335 66 1313 q 157 1358 118 1358 q 223 1335 197 1358 q 249 1267 249 1313 l 409 1267 q 410 1280 410 1274 q 410 1290 410 1286 q 344 1454 410 1403 q 156 1506 278 1506 q -30 1455 37 1506 q -96 1295 -96 1405 q -94 1267 -96 1280 "},"Ī":{"ha":315,"x_min":-60,"x_max":380,"o":"m 42 0 l 273 0 l 273 1194 l 42 1194 l 42 0 m -60 1274 l 380 1274 l 380 1378 l -60 1378 l -60 1274 "},"Į":{"ha":315,"x_min":-50,"x_max":321,"o":"m 42 0 l 273 0 l 273 1194 l 42 1194 l 42 0 m 186 -428 q 321 -401 256 -428 l 321 -250 q 242 -265 275 -265 q 164 -189 164 -265 q 199 -86 164 -133 q 273 0 235 -39 l 130 0 q -50 -224 -50 -100 q -17 -333 -50 -288 q 68 -404 15 -379 q 186 -428 122 -428 "},"Ɩ":{"ha":315,"x_min":42,"x_max":327,"o":"m 327 -11 l 327 203 q 287 219 302 203 q 273 293 273 235 l 273 1194 l 42 1194 l 42 279 q 122 63 42 136 q 327 -11 202 -11 "},"ɪ":{"ha":418,"x_min":22,"x_max":395,"o":"m 22 0 l 395 0 l 395 185 l 327 185 l 327 832 l 395 832 l 395 1017 l 22 1017 l 22 832 l 91 832 l 91 185 l 22 185 l 22 0 "},"Ɨ":{"ha":357,"x_min":3,"x_max":353,"o":"m 63 0 l 294 0 l 294 532 l 353 532 l 353 690 l 294 690 l 294 1194 l 63 1194 l 63 690 l 3 690 l 3 532 l 63 532 l 63 0 "},"Ĩ":{"ha":315,"x_min":-123,"x_max":437,"o":"m 42 0 l 273 0 l 273 1194 l 42 1194 l 42 0 m 269 1270 q 351 1295 320 1270 q 401 1361 382 1320 q 437 1447 421 1402 l 325 1484 q 296 1444 311 1456 q 262 1433 280 1433 q 203 1447 235 1433 q 132 1476 171 1461 q 45 1490 93 1490 q -35 1469 -3 1490 q -86 1414 -66 1449 q -123 1339 -106 1380 l -22 1286 q 7 1322 -9 1312 q 40 1332 22 1332 q 102 1317 68 1332 q 177 1286 136 1301 q 269 1270 219 1270 "},"Ḭ":{"ha":315,"x_min":-123,"x_max":437,"o":"m 42 0 l 273 0 l 273 1194 l 42 1194 l 42 0 m 269 -295 q 351 -270 320 -295 q 401 -204 382 -245 q 437 -118 421 -163 l 325 -81 q 296 -121 311 -109 q 262 -132 280 -132 q 203 -118 235 -132 q 132 -90 171 -104 q 45 -75 93 -75 q -35 -96 -3 -75 q -86 -151 -66 -117 q -123 -227 -106 -185 l -22 -279 q 7 -243 -9 -254 q 40 -233 22 -233 q 102 -249 68 -233 q 177 -279 136 -264 q 269 -295 219 -295 "},"J":{"ha":648,"x_min":26,"x_max":609,"o":"m 317 -11 q 469 27 403 -11 q 572 134 534 64 q 609 298 609 203 l 609 1194 l 368 1194 l 368 275 q 315 209 368 209 q 274 228 287 209 q 262 278 262 247 l 262 563 l 26 563 l 26 264 q 65 113 26 174 q 170 20 104 52 q 317 -11 237 -11 "},"Ĵ":{"ha":648,"x_min":26,"x_max":791,"o":"m 317 -11 q 469 27 403 -11 q 572 134 534 64 q 609 298 609 203 l 609 1194 l 368 1194 l 368 275 q 315 209 368 209 q 274 228 287 209 q 262 278 262 247 l 262 563 l 26 563 l 26 264 q 65 113 26 174 q 170 20 104 52 q 317 -11 237 -11 m 187 1255 l 431 1255 l 489 1449 l 547 1255 l 791 1255 l 627 1529 l 351 1529 l 187 1255 "},"Ʝ":{"ha":661,"x_min":26,"x_max":668,"o":"m 317 -11 q 469 27 403 -11 q 572 134 534 64 q 609 298 609 203 l 609 510 q 637 500 623 505 q 668 489 652 495 l 668 696 q 637 707 652 702 q 609 717 623 712 l 609 1194 l 368 1194 l 368 750 q 110 640 194 738 q 26 382 26 541 l 26 264 q 65 113 26 174 q 170 20 104 52 q 317 -11 237 -11 m 315 209 q 274 228 287 209 q 262 278 262 247 l 262 382 q 286 494 262 456 q 368 541 311 532 l 368 275 q 315 209 368 209 "},"Ɉ":{"ha":661,"x_min":26,"x_max":667,"o":"m 317 -11 q 469 27 403 -11 q 572 134 534 64 q 609 298 609 203 l 609 715 l 667 715 l 667 873 l 609 873 l 609 1194 l 368 1194 l 368 873 l 264 873 l 264 715 l 368 715 l 368 275 q 315 209 368 209 q 274 228 287 209 q 262 278 262 247 l 262 563 l 26 563 l 26 264 q 65 113 26 174 q 170 20 104 52 q 317 -11 237 -11 "},"K":{"ha":656,"x_min":53,"x_max":668,"o":"m 53 0 l 290 0 l 290 578 l 420 0 l 668 0 l 507 647 l 640 1194 l 400 1194 l 289 715 l 289 1194 l 53 1194 l 53 0 "},"Ḱ":{"ha":656,"x_min":53,"x_max":668,"o":"m 53 0 l 290 0 l 290 578 l 420 0 l 668 0 l 507 647 l 640 1194 l 400 1194 l 289 715 l 289 1194 l 53 1194 l 53 0 m 186 1230 l 508 1293 l 508 1529 l 186 1381 l 186 1230 "},"Ǩ":{"ha":656,"x_min":45,"x_max":668,"o":"m 53 0 l 290 0 l 290 578 l 420 0 l 668 0 l 507 647 l 640 1194 l 400 1194 l 289 715 l 289 1194 l 53 1194 l 53 0 m 208 1255 l 485 1255 l 648 1529 l 405 1529 l 347 1335 l 288 1529 l 45 1529 l 208 1255 "},"Ķ":{"ha":656,"x_min":53,"x_max":668,"o":"m 53 0 l 290 0 l 290 578 l 420 0 l 668 0 l 507 647 l 640 1194 l 400 1194 l 289 715 l 289 1194 l 53 1194 l 53 0 m 260 -436 l 404 -436 l 473 -270 l 473 -74 l 219 -74 l 219 -276 l 305 -276 l 260 -436 "},"Ḳ":{"ha":656,"x_min":53,"x_max":668,"o":"m 53 0 l 290 0 l 290 578 l 420 0 l 668 0 l 507 647 l 640 1194 l 400 1194 l 289 715 l 289 1194 l 53 1194 l 53 0 m 233 -283 l 476 -283 l 476 -81 l 233 -81 l 233 -283 "},"Ƙ":{"ha":656,"x_min":53,"x_max":668,"o":"m 53 0 l 290 0 l 290 578 l 420 0 l 668 0 l 507 647 l 640 1194 l 400 1194 l 289 715 l 289 1194 l 53 1194 l 53 0 "},"Ḵ":{"ha":656,"x_min":53,"x_max":668,"o":"m 53 0 l 290 0 l 290 578 l 420 0 l 668 0 l 507 647 l 640 1194 l 400 1194 l 289 715 l 289 1194 l 53 1194 l 53 0 m 134 -184 l 575 -184 l 575 -81 l 134 -81 l 134 -184 "},"Ꝁ":{"ha":666,"x_min":0,"x_max":678,"o":"m 63 0 l 300 0 l 300 578 l 431 0 l 678 0 l 517 647 l 650 1194 l 410 1194 l 299 715 l 299 1003 l 350 1003 l 350 1160 l 299 1160 l 299 1194 l 63 1194 l 63 1160 l 0 1160 l 0 1003 l 63 1003 l 63 0 "},"L":{"ha":552,"x_min":53,"x_max":537,"o":"m 53 0 l 537 0 l 537 203 l 292 203 l 292 1194 l 53 1194 l 53 0 "},"Ǉ":{"ha":1200,"x_min":53,"x_max":1161,"o":"m 53 0 l 537 0 l 537 203 l 292 203 l 292 1194 l 53 1194 l 53 0 m 869 -11 q 1021 27 955 -11 q 1124 134 1086 64 q 1161 298 1161 203 l 1161 1194 l 920 1194 l 920 275 q 867 209 920 209 q 826 228 839 209 q 814 278 814 247 l 814 563 l 578 563 l 578 264 q 617 113 578 174 q 722 20 656 52 q 869 -11 789 -11 "},"Ĺ":{"ha":552,"x_min":11,"x_max":537,"o":"m 53 0 l 537 0 l 537 203 l 292 203 l 292 1194 l 53 1194 l 53 0 m 11 1230 l 333 1293 l 333 1529 l 11 1381 l 11 1230 "},"Ƚ":{"ha":552,"x_min":-24,"x_max":537,"o":"m 53 0 l 537 0 l 537 203 l 292 203 l 292 1194 l 53 1194 l 53 0 m -24 542 l 423 542 l 423 699 l -24 699 l -24 542 "},"Ɬ":{"ha":681,"x_min":-7,"x_max":666,"o":"m 182 0 l 666 0 l 666 203 l 420 203 l 420 491 l 515 491 l 515 648 l 420 648 l 420 1194 l 182 1194 l 182 871 q 43 815 92 865 q -7 674 -7 764 q 47 546 -7 595 q 182 492 101 498 l 182 0 m 125 688 q 182 728 125 727 l 182 648 q 125 688 125 648 "},"Ľ":{"ha":552,"x_min":53,"x_max":561,"o":"m 53 0 l 537 0 l 537 203 l 292 203 l 292 1194 l 53 1194 l 53 0 m 349 831 l 492 831 l 561 998 l 561 1194 l 349 1194 l 349 991 l 400 991 l 349 831 "},"Ḽ":{"ha":552,"x_min":-8,"x_max":595,"o":"m 53 0 l 537 0 l 537 203 l 292 203 l 292 1194 l 53 1194 l 53 0 m -8 -347 l 235 -347 l 294 -154 l 352 -347 l 595 -347 l 432 -74 l 155 -74 l -8 -347 "},"Ļ":{"ha":552,"x_min":53,"x_max":537,"o":"m 53 0 l 537 0 l 537 203 l 292 203 l 292 1194 l 53 1194 l 53 0 m 199 -436 l 342 -436 l 412 -270 l 412 -74 l 158 -74 l 158 -276 l 244 -276 l 199 -436 "},"Ŀ":{"ha":627,"x_min":53,"x_max":597,"o":"m 53 0 l 537 0 l 537 203 l 292 203 l 292 1194 l 53 1194 l 53 0 m 374 513 l 597 513 l 597 742 l 374 742 l 374 513 "},"Ḷ":{"ha":552,"x_min":53,"x_max":537,"o":"m 53 0 l 537 0 l 537 203 l 292 203 l 292 1194 l 53 1194 l 53 0 m 172 -283 l 415 -283 l 415 -81 l 172 -81 l 172 -283 "},"Ḹ":{"ha":552,"x_min":-50,"x_max":537,"o":"m 53 0 l 537 0 l 537 203 l 292 203 l 292 1194 l 53 1194 l 53 0 m 172 -283 l 415 -283 l 415 -81 l 172 -81 l 172 -283 m -50 1274 l 391 1274 l 391 1378 l -50 1378 l -50 1274 "},"Ⱡ":{"ha":552,"x_min":-24,"x_max":537,"o":"m 53 0 l 537 0 l 537 203 l 292 203 l 292 1194 l 53 1194 l 53 0 m -24 664 l 423 664 l 423 821 l -24 821 l -24 664 m -24 420 l 423 420 l 423 577 l -24 577 l -24 420 "},"ǈ":{"ha":917,"x_min":53,"x_max":869,"o":"m 53 0 l 537 0 l 537 203 l 292 203 l 292 1194 l 53 1194 l 53 0 m 627 1080 l 869 1080 l 869 1282 l 627 1282 l 627 1080 m 678 -176 q 826 -115 783 -176 q 869 56 869 -53 l 869 1017 l 627 1017 l 627 49 q 622 14 627 28 q 597 1 617 1 q 575 4 587 1 l 575 -159 q 678 -176 601 -176 "},"Ḻ":{"ha":552,"x_min":53,"x_max":537,"o":"m 53 0 l 537 0 l 537 203 l 292 203 l 292 1194 l 53 1194 l 53 0 m 73 -184 l 514 -184 l 514 -81 l 73 -81 l 73 -184 "},"Ɫ":{"ha":640,"x_min":-20,"x_max":625,"o":"m 140 0 l 625 0 l 625 203 l 379 203 l 379 1194 l 140 1194 l 140 0 m 372 526 q 453 551 422 526 q 504 617 484 576 q 540 703 524 658 l 427 740 q 398 701 414 712 q 364 689 382 689 q 306 703 338 689 q 236 732 275 718 q 147 746 197 746 q 68 725 99 746 q 17 670 37 705 q -20 595 -3 636 l 80 542 q 109 578 94 568 q 142 588 125 588 q 207 573 174 588 q 279 542 239 557 q 372 526 319 526 "},"Ł":{"ha":578,"x_min":-7,"x_max":537,"o":"m 53 0 l 537 0 l 537 203 l 292 203 l 292 591 l 431 652 l 431 870 l 292 809 l 292 1194 l 53 1194 l 53 705 l -7 679 l -7 460 l 53 487 l 53 0 "},"M":{"ha":1036,"x_min":53,"x_max":983,"o":"m 53 0 l 269 0 l 269 860 l 414 0 l 628 0 l 765 860 l 765 0 l 983 0 l 983 1194 l 616 1194 l 517 466 l 416 1194 l 53 1194 l 53 0 "},"Ḿ":{"ha":1036,"x_min":53,"x_max":983,"o":"m 53 0 l 269 0 l 269 860 l 414 0 l 628 0 l 765 860 l 765 0 l 983 0 l 983 1194 l 616 1194 l 517 466 l 416 1194 l 53 1194 l 53 0 m 356 1230 l 678 1293 l 678 1529 l 356 1381 l 356 1230 "},"Ṁ":{"ha":1036,"x_min":53,"x_max":983,"o":"m 53 0 l 269 0 l 269 860 l 414 0 l 628 0 l 765 860 l 765 0 l 983 0 l 983 1194 l 616 1194 l 517 466 l 416 1194 l 53 1194 l 53 0 m 395 1256 l 638 1256 l 638 1458 l 395 1458 l 395 1256 "},"Ṃ":{"ha":1036,"x_min":53,"x_max":983,"o":"m 53 0 l 269 0 l 269 860 l 414 0 l 628 0 l 765 860 l 765 0 l 983 0 l 983 1194 l 616 1194 l 517 466 l 416 1194 l 53 1194 l 53 0 m 397 -283 l 640 -283 l 640 -81 l 397 -81 l 397 -283 "},"Ɯ":{"ha":1052,"x_min":53,"x_max":999,"o":"m 250 -11 q 354 14 316 -11 q 422 92 392 39 q 485 17 440 45 q 590 -11 530 -11 q 711 21 672 -11 q 766 120 749 54 l 766 0 l 999 0 l 999 1194 l 765 1194 l 765 304 q 750 214 765 252 q 699 176 735 176 q 655 203 668 176 q 642 274 642 231 l 642 1194 l 408 1194 l 408 291 q 393 209 408 243 q 345 174 378 174 q 287 274 287 174 l 287 1194 l 53 1194 l 53 278 q 97 63 53 138 q 250 -11 142 -11 "},"N":{"ha":692,"x_min":53,"x_max":639,"o":"m 53 0 l 286 0 l 286 597 l 406 0 l 639 0 l 639 1194 l 408 1194 l 408 622 l 298 1194 l 53 1194 l 53 0 "},"Ǌ":{"ha":1339,"x_min":53,"x_max":1301,"o":"m 53 0 l 286 0 l 286 597 l 406 0 l 639 0 l 639 1194 l 408 1194 l 408 622 l 298 1194 l 53 1194 l 53 0 m 1009 -11 q 1160 27 1095 -11 q 1263 134 1226 64 q 1301 298 1301 203 l 1301 1194 l 1060 1194 l 1060 275 q 1006 209 1060 209 q 966 228 979 209 q 954 278 954 247 l 954 563 l 718 563 l 718 264 q 756 113 718 174 q 862 20 795 52 q 1009 -11 928 -11 "},"Ń":{"ha":692,"x_min":53,"x_max":639,"o":"m 53 0 l 286 0 l 286 597 l 406 0 l 639 0 l 639 1194 l 408 1194 l 408 622 l 298 1194 l 53 1194 l 53 0 m 199 1230 l 521 1293 l 521 1529 l 199 1381 l 199 1230 "},"Ň":{"ha":692,"x_min":53,"x_max":662,"o":"m 53 0 l 286 0 l 286 597 l 406 0 l 639 0 l 639 1194 l 408 1194 l 408 622 l 298 1194 l 53 1194 l 53 0 m 222 1255 l 498 1255 l 662 1529 l 418 1529 l 360 1335 l 302 1529 l 58 1529 l 222 1255 "},"Ṋ":{"ha":692,"x_min":39,"x_max":643,"o":"m 53 0 l 286 0 l 286 597 l 406 0 l 639 0 l 639 1194 l 408 1194 l 408 622 l 298 1194 l 53 1194 l 53 0 m 39 -347 l 283 -347 l 341 -154 l 399 -347 l 643 -347 l 479 -74 l 203 -74 l 39 -347 "},"Ņ":{"ha":692,"x_min":53,"x_max":639,"o":"m 53 0 l 286 0 l 286 597 l 406 0 l 639 0 l 639 1194 l 408 1194 l 408 622 l 298 1194 l 53 1194 l 53 0 m 247 -436 l 390 -436 l 459 -270 l 459 -74 l 205 -74 l 205 -276 l 292 -276 l 247 -436 "},"Ṅ":{"ha":692,"x_min":53,"x_max":639,"o":"m 53 0 l 286 0 l 286 597 l 406 0 l 639 0 l 639 1194 l 408 1194 l 408 622 l 298 1194 l 53 1194 l 53 0 m 239 1256 l 481 1256 l 481 1458 l 239 1458 l 239 1256 "},"Ṇ":{"ha":692,"x_min":53,"x_max":639,"o":"m 53 0 l 286 0 l 286 597 l 406 0 l 639 0 l 639 1194 l 408 1194 l 408 622 l 298 1194 l 53 1194 l 53 0 m 220 -283 l 463 -283 l 463 -81 l 220 -81 l 220 -283 "},"Ǹ":{"ha":692,"x_min":53,"x_max":639,"o":"m 53 0 l 286 0 l 286 597 l 406 0 l 639 0 l 639 1194 l 408 1194 l 408 622 l 298 1194 l 53 1194 l 53 0 m 521 1230 l 521 1381 l 199 1529 l 199 1293 l 521 1230 "},"Ɲ":{"ha":692,"x_min":-35,"x_max":639,"o":"m -35 -331 q 200 -249 114 -331 q 286 -5 286 -167 l 286 597 l 406 0 l 639 0 l 639 1194 l 408 1194 l 408 622 l 298 1194 l 53 1194 l 53 -21 q -35 -126 53 -126 l -35 -331 "},"ǋ":{"ha":1057,"x_min":53,"x_max":1009,"o":"m 53 0 l 286 0 l 286 597 l 406 0 l 639 0 l 639 1194 l 408 1194 l 408 622 l 298 1194 l 53 1194 l 53 0 m 766 1080 l 1009 1080 l 1009 1282 l 766 1282 l 766 1080 m 818 -176 q 966 -115 923 -176 q 1009 56 1009 -53 l 1009 1017 l 766 1017 l 766 49 q 762 14 766 28 q 737 1 757 1 q 715 4 727 1 l 715 -159 q 818 -176 741 -176 "},"Ṉ":{"ha":692,"x_min":53,"x_max":639,"o":"m 53 0 l 286 0 l 286 597 l 406 0 l 639 0 l 639 1194 l 408 1194 l 408 622 l 298 1194 l 53 1194 l 53 0 m 121 -184 l 562 -184 l 562 -81 l 121 -81 l 121 -184 "},"Ƞ":{"ha":692,"x_min":53,"x_max":639,"o":"m 408 -126 l 639 -126 l 639 966 q 591 1143 639 1081 q 441 1204 543 1204 q 339 1166 380 1204 q 282 1067 298 1128 l 282 1194 l 53 1194 l 53 0 l 283 0 l 283 879 q 296 964 283 935 q 351 994 309 994 q 395 969 382 994 q 408 901 408 944 l 408 -126 "},"Ñ":{"ha":692,"x_min":53,"x_max":640,"o":"m 53 0 l 286 0 l 286 597 l 406 0 l 639 0 l 639 1194 l 408 1194 l 408 622 l 298 1194 l 53 1194 l 53 0 m 472 1269 q 554 1294 523 1269 q 604 1360 585 1319 q 640 1446 624 1400 l 528 1482 q 498 1443 514 1455 q 465 1432 483 1432 q 406 1446 438 1432 q 335 1474 374 1460 q 248 1489 296 1489 q 168 1468 199 1489 q 117 1413 137 1447 q 80 1337 97 1379 l 180 1284 q 210 1320 194 1310 q 243 1331 225 1331 q 304 1315 271 1331 q 380 1284 338 1300 q 472 1269 422 1269 "},"O":{"ha":675,"x_min":43,"x_max":632,"o":"m 338 -11 q 556 76 481 -11 q 632 326 632 162 l 632 892 q 557 1125 632 1046 q 338 1204 482 1204 q 118 1125 193 1204 q 43 892 43 1046 l 43 326 q 119 76 43 162 q 338 -11 195 -11 m 340 209 q 295 233 309 209 q 281 313 281 257 l 281 895 q 341 985 281 985 q 394 897 394 985 l 394 314 q 340 209 394 209 "},"Œ":{"ha":902,"x_min":34,"x_max":876,"o":"m 411 0 l 876 0 l 876 211 l 631 211 l 631 532 l 850 532 l 850 734 l 631 734 l 631 984 l 860 984 l 860 1194 l 406 1194 q 212 1169 296 1194 q 81 1084 128 1144 q 34 920 34 1025 l 34 292 q 411 0 34 0 m 348 211 q 288 244 307 211 q 270 326 270 278 l 270 891 q 291 959 270 935 q 352 984 312 984 l 389 984 l 389 211 l 348 211 "},"Ȣ":{"ha":675,"x_min":43,"x_max":632,"o":"m 338 -11 q 557 76 483 -11 q 632 325 632 163 l 632 463 q 616 581 632 530 q 571 669 600 632 q 628 884 628 747 l 628 1194 l 396 1194 l 396 880 q 385 791 396 822 q 338 760 374 760 q 290 791 301 760 q 279 880 279 823 l 279 1194 l 47 1194 l 47 884 q 104 669 47 747 q 59 581 75 632 q 43 463 43 530 l 43 325 q 118 77 43 165 q 338 -11 193 -11 m 338 209 q 292 235 304 209 q 279 313 279 262 l 279 479 q 339 569 279 569 q 382 544 372 569 q 392 481 392 519 l 392 314 q 381 237 392 264 q 338 209 370 209 "},"Ó":{"ha":675,"x_min":43,"x_max":632,"o":"m 338 -11 q 556 76 481 -11 q 632 326 632 162 l 632 892 q 557 1125 632 1046 q 338 1204 482 1204 q 118 1125 193 1204 q 43 892 43 1046 l 43 326 q 119 76 43 162 q 338 -11 195 -11 m 340 209 q 295 233 309 209 q 281 313 281 257 l 281 895 q 341 985 281 985 q 394 897 394 985 l 394 314 q 340 209 394 209 m 177 1230 l 499 1293 l 499 1529 l 177 1381 l 177 1230 "},"Ŏ":{"ha":675,"x_min":43,"x_max":632,"o":"m 338 -11 q 556 76 481 -11 q 632 326 632 162 l 632 892 q 557 1125 632 1046 q 338 1204 482 1204 q 118 1125 193 1204 q 43 892 43 1046 l 43 326 q 119 76 43 162 q 338 -11 195 -11 m 340 209 q 295 233 309 209 q 281 313 281 257 l 281 895 q 341 985 281 985 q 394 897 394 985 l 394 314 q 340 209 394 209 m 340 1256 q 535 1307 463 1256 q 608 1472 608 1358 q 608 1482 608 1475 q 607 1495 608 1489 l 433 1495 q 414 1437 433 1457 q 342 1417 394 1417 q 270 1437 290 1417 q 250 1495 250 1457 l 77 1495 q 75 1467 75 1481 q 148 1306 75 1356 q 340 1256 222 1256 "},"Ǒ":{"ha":675,"x_min":37,"x_max":640,"o":"m 338 -11 q 556 76 481 -11 q 632 326 632 162 l 632 892 q 557 1125 632 1046 q 338 1204 482 1204 q 118 1125 193 1204 q 43 892 43 1046 l 43 326 q 119 76 43 162 q 338 -11 195 -11 m 340 209 q 295 233 309 209 q 281 313 281 257 l 281 895 q 341 985 281 985 q 394 897 394 985 l 394 314 q 340 209 394 209 m 200 1255 l 477 1255 l 640 1529 l 397 1529 l 338 1335 l 280 1529 l 37 1529 l 200 1255 "},"Ɵ":{"ha":675,"x_min":43,"x_max":632,"o":"m 338 -11 q 556 76 481 -11 q 632 326 632 162 l 632 892 q 557 1125 632 1046 q 338 1204 482 1204 q 118 1125 193 1204 q 43 892 43 1046 l 43 326 q 119 76 43 162 q 338 -11 195 -11 m 340 209 q 295 233 309 209 q 281 313 281 257 l 281 895 q 341 985 281 985 q 394 897 394 985 l 394 314 q 340 209 394 209 m 100 522 l 547 522 l 547 679 l 100 679 l 100 522 "},"Ô":{"ha":675,"x_min":37,"x_max":640,"o":"m 338 -11 q 556 76 481 -11 q 632 326 632 162 l 632 892 q 557 1125 632 1046 q 338 1204 482 1204 q 118 1125 193 1204 q 43 892 43 1046 l 43 326 q 119 76 43 162 q 338 -11 195 -11 m 340 209 q 295 233 309 209 q 281 313 281 257 l 281 895 q 341 985 281 985 q 394 897 394 985 l 394 314 q 340 209 394 209 m 37 1255 l 280 1255 l 338 1449 l 397 1255 l 640 1255 l 477 1529 l 200 1529 l 37 1255 "},"Ố":{"ha":675,"x_min":43,"x_max":819,"o":"m 338 -11 q 556 76 481 -11 q 632 326 632 162 l 632 892 q 557 1125 632 1046 q 338 1204 482 1204 q 118 1125 193 1204 q 43 892 43 1046 l 43 326 q 119 76 43 162 q 338 -11 195 -11 m 340 209 q 295 233 309 209 q 281 313 281 257 l 281 895 q 341 985 281 985 q 394 897 394 985 l 394 314 q 340 209 394 209 m 534 1356 l 692 1356 l 819 1495 l 611 1495 l 534 1356 m 77 1247 l 271 1247 l 338 1339 l 405 1247 l 598 1247 l 437 1419 l 238 1419 l 77 1247 "},"Ộ":{"ha":675,"x_min":36,"x_max":640,"o":"m 338 -11 q 556 76 481 -11 q 632 326 632 162 l 632 892 q 557 1125 632 1046 q 338 1204 482 1204 q 118 1125 193 1204 q 43 892 43 1046 l 43 326 q 119 76 43 162 q 338 -11 195 -11 m 340 209 q 295 233 309 209 q 281 313 281 257 l 281 895 q 341 985 281 985 q 394 897 394 985 l 394 314 q 340 209 394 209 m 216 -283 l 459 -283 l 459 -81 l 216 -81 l 216 -283 m 36 1262 l 279 1262 l 338 1408 l 396 1262 l 640 1262 l 476 1488 l 199 1488 l 36 1262 "},"Ồ":{"ha":675,"x_min":43,"x_max":737,"o":"m 338 -11 q 556 76 481 -11 q 632 326 632 162 l 632 892 q 557 1125 632 1046 q 338 1204 482 1204 q 118 1125 193 1204 q 43 892 43 1046 l 43 326 q 119 76 43 162 q 338 -11 195 -11 m 340 209 q 295 233 309 209 q 281 313 281 257 l 281 895 q 341 985 281 985 q 394 897 394 985 l 394 314 q 340 209 394 209 m 579 1356 l 737 1356 l 660 1495 l 452 1495 l 579 1356 m 77 1247 l 271 1247 l 338 1339 l 405 1247 l 598 1247 l 437 1419 l 238 1419 l 77 1247 "},"Ổ":{"ha":675,"x_min":43,"x_max":703,"o":"m 338 -11 q 556 76 481 -11 q 632 326 632 162 l 632 892 q 557 1125 632 1046 q 338 1204 482 1204 q 118 1125 193 1204 q 43 892 43 1046 l 43 326 q 119 76 43 162 q 338 -11 195 -11 m 340 209 q 295 233 309 209 q 281 313 281 257 l 281 895 q 341 985 281 985 q 394 897 394 985 l 394 314 q 340 209 394 209 m 589 1329 q 670 1375 637 1344 q 703 1459 703 1405 q 673 1533 703 1506 q 591 1559 644 1559 q 514 1545 553 1559 l 514 1469 q 552 1476 533 1476 q 595 1436 595 1476 q 581 1402 595 1415 q 544 1381 567 1390 l 589 1329 m 77 1247 l 271 1247 l 338 1339 l 405 1247 l 598 1247 l 437 1419 l 238 1419 l 77 1247 "},"Ỗ":{"ha":675,"x_min":43,"x_max":632,"o":"m 338 -11 q 556 76 481 -11 q 632 326 632 162 l 632 892 q 557 1125 632 1046 q 338 1204 482 1204 q 118 1125 193 1204 q 43 892 43 1046 l 43 326 q 119 76 43 162 q 338 -11 195 -11 m 340 209 q 295 233 309 209 q 281 313 281 257 l 281 895 q 341 985 281 985 q 394 897 394 985 l 394 314 q 340 209 394 209 m 419 1453 q 502 1490 477 1453 q 546 1575 527 1528 l 461 1603 q 404 1565 438 1565 q 352 1576 377 1565 q 300 1599 327 1588 q 242 1611 274 1611 q 167 1579 191 1611 q 125 1503 142 1548 l 200 1464 q 227 1491 212 1484 q 257 1499 241 1499 q 310 1487 284 1499 q 362 1464 335 1476 q 419 1453 389 1453 m 77 1247 l 271 1247 l 338 1339 l 405 1247 l 598 1247 l 437 1419 l 238 1419 l 77 1247 "},"Ȍ":{"ha":675,"x_min":9,"x_max":632,"o":"m 338 -11 q 556 76 481 -11 q 632 326 632 162 l 632 892 q 557 1125 632 1046 q 338 1204 482 1204 q 118 1125 193 1204 q 43 892 43 1046 l 43 326 q 119 76 43 162 q 338 -11 195 -11 m 340 209 q 295 233 309 209 q 281 313 281 257 l 281 895 q 341 985 281 985 q 394 897 394 985 l 394 314 q 340 209 394 209 m 205 1252 l 317 1291 l 168 1616 l 9 1543 l 205 1252 m 410 1252 l 522 1291 l 397 1616 l 241 1543 l 410 1252 "},"Ö":{"ha":675,"x_min":43,"x_max":632,"o":"m 338 -11 q 556 76 481 -11 q 632 326 632 162 l 632 892 q 557 1125 632 1046 q 338 1204 482 1204 q 118 1125 193 1204 q 43 892 43 1046 l 43 326 q 119 76 43 162 q 338 -11 195 -11 m 340 209 q 295 233 309 209 q 281 313 281 257 l 281 895 q 341 985 281 985 q 394 897 394 985 l 394 314 q 340 209 394 209 m 376 1261 l 619 1261 l 619 1463 l 376 1463 l 376 1261 m 48 1261 l 291 1261 l 291 1463 l 48 1463 l 48 1261 "},"Ȫ":{"ha":675,"x_min":43,"x_max":632,"o":"m 338 -11 q 556 76 481 -11 q 632 326 632 162 l 632 892 q 557 1125 632 1046 q 338 1204 482 1204 q 118 1125 193 1204 q 43 892 43 1046 l 43 326 q 119 76 43 162 q 338 -11 195 -11 m 340 209 q 295 233 309 209 q 281 313 281 257 l 281 895 q 341 985 281 985 q 394 897 394 985 l 394 314 q 340 209 394 209 m 380 1261 l 623 1261 l 623 1429 l 380 1429 l 380 1261 m 52 1261 l 295 1261 l 295 1429 l 52 1429 l 52 1261 m 117 1503 l 558 1503 l 558 1607 l 117 1607 l 117 1503 "},"Ȯ":{"ha":675,"x_min":43,"x_max":632,"o":"m 338 -11 q 556 76 481 -11 q 632 326 632 162 l 632 892 q 557 1125 632 1046 q 338 1204 482 1204 q 118 1125 193 1204 q 43 892 43 1046 l 43 326 q 119 76 43 162 q 338 -11 195 -11 m 340 209 q 295 233 309 209 q 281 313 281 257 l 281 895 q 341 985 281 985 q 394 897 394 985 l 394 314 q 340 209 394 209 m 217 1256 l 460 1256 l 460 1458 l 217 1458 l 217 1256 "},"Ȱ":{"ha":675,"x_min":43,"x_max":632,"o":"m 338 -11 q 556 76 481 -11 q 632 326 632 162 l 632 892 q 557 1125 632 1046 q 338 1204 482 1204 q 118 1125 193 1204 q 43 892 43 1046 l 43 326 q 119 76 43 162 q 338 -11 195 -11 m 340 209 q 295 233 309 209 q 281 313 281 257 l 281 895 q 341 985 281 985 q 394 897 394 985 l 394 314 q 340 209 394 209 m 216 1256 l 459 1256 l 459 1431 l 216 1431 l 216 1256 m 117 1491 l 558 1491 l 558 1594 l 117 1594 l 117 1491 "},"Ọ":{"ha":675,"x_min":43,"x_max":632,"o":"m 338 -11 q 556 76 481 -11 q 632 326 632 162 l 632 892 q 557 1125 632 1046 q 338 1204 482 1204 q 118 1125 193 1204 q 43 892 43 1046 l 43 326 q 119 76 43 162 q 338 -11 195 -11 m 340 209 q 295 233 309 209 q 281 313 281 257 l 281 895 q 341 985 281 985 q 394 897 394 985 l 394 314 q 340 209 394 209 m 216 -283 l 459 -283 l 459 -81 l 216 -81 l 216 -283 "},"Ò":{"ha":675,"x_min":43,"x_max":632,"o":"m 338 -11 q 556 76 481 -11 q 632 326 632 162 l 632 892 q 557 1125 632 1046 q 338 1204 482 1204 q 118 1125 193 1204 q 43 892 43 1046 l 43 326 q 119 76 43 162 q 338 -11 195 -11 m 340 209 q 295 233 309 209 q 281 313 281 257 l 281 895 q 341 985 281 985 q 394 897 394 985 l 394 314 q 340 209 394 209 m 499 1230 l 499 1381 l 177 1529 l 177 1293 l 499 1230 "},"Ω":{"ha":673,"x_min":32,"x_max":641,"o":"m 32 0 l 314 0 l 314 168 q 288 214 297 185 q 279 319 279 243 l 279 821 q 290 881 279 857 q 336 905 301 905 q 383 881 372 905 q 394 821 394 857 l 394 319 q 392 240 394 269 q 382 196 389 212 q 359 168 374 180 l 359 0 l 641 0 l 641 167 l 558 167 q 624 481 624 267 l 624 806 q 551 1018 624 945 q 336 1090 478 1090 q 122 1018 195 1090 q 49 806 49 945 l 49 481 q 115 167 49 267 l 32 167 l 32 0 "},"Ỏ":{"ha":675,"x_min":43,"x_max":632,"o":"m 338 -11 q 556 76 481 -11 q 632 326 632 162 l 632 892 q 557 1125 632 1046 q 338 1204 482 1204 q 118 1125 193 1204 q 43 892 43 1046 l 43 326 q 119 76 43 162 q 338 -11 195 -11 m 340 209 q 295 233 309 209 q 281 313 281 257 l 281 895 q 341 985 281 985 q 394 897 394 985 l 394 314 q 340 209 394 209 m 318 1246 q 450 1319 397 1270 q 503 1455 503 1369 q 455 1574 503 1531 q 322 1616 407 1616 q 198 1594 258 1616 l 198 1472 q 259 1482 227 1482 q 328 1418 328 1482 q 305 1364 328 1384 q 246 1330 283 1343 l 318 1246 "},"Ơ":{"ha":677,"x_min":43,"x_max":657,"o":"m 338 -11 q 558 78 484 -11 q 632 326 632 166 l 632 892 q 576 1103 632 1025 q 635 1176 613 1129 q 657 1295 657 1223 l 657 1305 l 469 1305 l 469 1289 q 391 1204 469 1204 l 339 1204 q 119 1125 195 1204 q 43 892 43 1046 l 43 326 q 117 78 43 166 q 338 -11 191 -11 m 338 209 q 290 237 301 209 q 279 313 279 266 l 279 895 q 292 959 279 932 q 339 985 304 985 q 383 957 374 985 q 392 897 392 928 l 392 314 q 382 240 392 271 q 338 209 372 209 "},"Ớ":{"ha":677,"x_min":43,"x_max":657,"o":"m 338 -11 q 558 78 484 -11 q 632 326 632 166 l 632 892 q 576 1103 632 1025 q 635 1176 613 1129 q 657 1295 657 1223 l 657 1305 l 469 1305 l 469 1289 q 391 1204 469 1204 l 339 1204 q 119 1125 195 1204 q 43 892 43 1046 l 43 326 q 117 78 43 166 q 338 -11 191 -11 m 338 209 q 290 237 301 209 q 279 313 279 266 l 279 895 q 292 959 279 932 q 339 985 304 985 q 383 957 374 985 q 392 897 392 928 l 392 314 q 382 240 392 271 q 338 209 372 209 m 178 1310 l 500 1360 l 500 1555 l 178 1441 l 178 1310 "},"Ợ":{"ha":677,"x_min":43,"x_max":657,"o":"m 338 -11 q 558 78 484 -11 q 632 326 632 166 l 632 892 q 576 1103 632 1025 q 635 1176 613 1129 q 657 1295 657 1223 l 657 1305 l 469 1305 l 469 1289 q 391 1204 469 1204 l 339 1204 q 119 1125 195 1204 q 43 892 43 1046 l 43 326 q 117 78 43 166 q 338 -11 191 -11 m 338 209 q 290 237 301 209 q 279 313 279 266 l 279 895 q 292 959 279 932 q 339 985 304 985 q 383 957 374 985 q 392 897 392 928 l 392 314 q 382 240 392 271 q 338 209 372 209 m 216 -283 l 459 -283 l 459 -81 l 216 -81 l 216 -283 "},"Ờ":{"ha":677,"x_min":43,"x_max":657,"o":"m 338 -11 q 558 78 484 -11 q 632 326 632 166 l 632 892 q 576 1103 632 1025 q 635 1176 613 1129 q 657 1295 657 1223 l 657 1305 l 469 1305 l 469 1289 q 391 1204 469 1204 l 339 1204 q 119 1125 195 1204 q 43 892 43 1046 l 43 326 q 117 78 43 166 q 338 -11 191 -11 m 338 209 q 290 237 301 209 q 279 313 279 266 l 279 895 q 292 959 279 932 q 339 985 304 985 q 383 957 374 985 q 392 897 392 928 l 392 314 q 382 240 392 271 q 338 209 372 209 m 500 1331 l 500 1461 l 178 1575 l 178 1381 l 500 1331 "},"Ở":{"ha":677,"x_min":43,"x_max":657,"o":"m 338 -11 q 558 78 484 -11 q 632 326 632 166 l 632 892 q 576 1103 632 1025 q 635 1176 613 1129 q 657 1295 657 1223 l 657 1305 l 469 1305 l 469 1289 q 391 1204 469 1204 l 339 1204 q 119 1125 195 1204 q 43 892 43 1046 l 43 326 q 117 78 43 166 q 338 -11 191 -11 m 338 209 q 290 237 301 209 q 279 313 279 266 l 279 895 q 292 959 279 932 q 339 985 304 985 q 383 957 374 985 q 392 897 392 928 l 392 314 q 382 240 392 271 q 338 209 372 209 m 319 1303 q 451 1377 398 1328 q 504 1512 504 1426 q 456 1631 504 1589 q 323 1674 408 1674 q 199 1651 259 1674 l 199 1529 q 260 1540 229 1540 q 329 1476 329 1540 q 307 1421 329 1442 q 248 1388 284 1401 l 319 1303 "},"Ỡ":{"ha":677,"x_min":43,"x_max":657,"o":"m 338 -11 q 558 78 484 -11 q 632 326 632 166 l 632 892 q 576 1103 632 1025 q 635 1176 613 1129 q 657 1295 657 1223 l 657 1305 l 469 1305 l 469 1289 q 391 1204 469 1204 l 339 1204 q 119 1125 195 1204 q 43 892 43 1046 l 43 326 q 117 78 43 166 q 338 -11 191 -11 m 338 209 q 290 237 301 209 q 279 313 279 266 l 279 895 q 292 959 279 932 q 339 985 304 985 q 383 957 374 985 q 392 897 392 928 l 392 314 q 382 240 392 271 q 338 209 372 209 m 451 1360 q 533 1383 502 1360 q 583 1444 564 1407 q 619 1524 603 1482 l 507 1560 q 477 1521 493 1533 q 444 1510 462 1510 q 386 1524 418 1510 q 314 1552 354 1538 q 227 1567 275 1567 q 147 1548 178 1567 q 96 1497 116 1529 q 59 1429 76 1466 l 159 1376 q 189 1412 173 1402 q 222 1422 204 1422 q 283 1407 250 1422 q 359 1376 317 1392 q 451 1360 401 1360 "},"Ő":{"ha":675,"x_min":43,"x_max":658,"o":"m 338 -11 q 556 76 481 -11 q 632 326 632 162 l 632 892 q 557 1125 632 1046 q 338 1204 482 1204 q 118 1125 193 1204 q 43 892 43 1046 l 43 326 q 119 76 43 162 q 338 -11 195 -11 m 340 209 q 295 233 309 209 q 281 313 281 257 l 281 895 q 341 985 281 985 q 394 897 394 985 l 394 314 q 340 209 394 209 m 462 1265 l 658 1556 l 499 1630 l 349 1305 l 462 1265 m 257 1265 l 425 1556 l 269 1630 l 144 1305 l 257 1265 "},"Ȏ":{"ha":675,"x_min":43,"x_max":632,"o":"m 338 -11 q 556 76 481 -11 q 632 326 632 162 l 632 892 q 557 1125 632 1046 q 338 1204 482 1204 q 118 1125 193 1204 q 43 892 43 1046 l 43 326 q 119 76 43 162 q 338 -11 195 -11 m 340 209 q 295 233 309 209 q 281 313 281 257 l 281 895 q 341 985 281 985 q 394 897 394 985 l 394 314 q 340 209 394 209 m 87 1267 l 247 1267 q 273 1335 247 1313 q 338 1358 299 1358 q 404 1335 378 1358 q 430 1267 430 1313 l 590 1267 q 591 1280 591 1274 q 591 1290 591 1286 q 525 1454 591 1403 q 337 1506 459 1506 q 152 1455 218 1506 q 85 1295 85 1405 q 87 1267 85 1280 "},"Ō":{"ha":675,"x_min":43,"x_max":632,"o":"m 338 -11 q 556 76 481 -11 q 632 326 632 162 l 632 892 q 557 1125 632 1046 q 338 1204 482 1204 q 118 1125 193 1204 q 43 892 43 1046 l 43 326 q 119 76 43 162 q 338 -11 195 -11 m 340 209 q 295 233 309 209 q 281 313 281 257 l 281 895 q 341 985 281 985 q 394 897 394 985 l 394 314 q 340 209 394 209 m 117 1274 l 558 1274 l 558 1378 l 117 1378 l 117 1274 "},"Ṓ":{"ha":675,"x_min":43,"x_max":632,"o":"m 338 -11 q 556 76 481 -11 q 632 326 632 162 l 632 892 q 557 1125 632 1046 q 338 1204 482 1204 q 118 1125 193 1204 q 43 892 43 1046 l 43 326 q 119 76 43 162 q 338 -11 195 -11 m 340 209 q 295 233 309 209 q 281 313 281 257 l 281 895 q 341 985 281 985 q 394 897 394 985 l 394 314 q 340 209 394 209 m 117 1234 l 558 1234 l 558 1337 l 117 1337 l 117 1234 m 177 1368 l 499 1418 l 499 1613 l 177 1499 l 177 1368 "},"Ṑ":{"ha":675,"x_min":43,"x_max":632,"o":"m 338 -11 q 556 76 481 -11 q 632 326 632 162 l 632 892 q 557 1125 632 1046 q 338 1204 482 1204 q 118 1125 193 1204 q 43 892 43 1046 l 43 326 q 119 76 43 162 q 338 -11 195 -11 m 340 209 q 295 233 309 209 q 281 313 281 257 l 281 895 q 341 985 281 985 q 394 897 394 985 l 394 314 q 340 209 394 209 m 117 1234 l 558 1234 l 558 1337 l 117 1337 l 117 1234 m 499 1368 l 499 1499 l 177 1613 l 177 1418 l 499 1368 "},"Ω":{"ha":673,"x_min":32,"x_max":641,"o":"m 32 0 l 314 0 l 314 168 q 285 235 292 185 q 279 360 279 284 l 279 932 q 290 992 279 968 q 336 1016 301 1016 q 383 992 372 1016 q 394 932 394 968 l 394 360 q 388 235 394 284 q 359 168 381 185 l 359 0 l 641 0 l 641 167 l 558 167 q 624 481 624 267 l 624 917 q 551 1128 624 1056 q 336 1200 478 1200 q 122 1128 195 1200 q 49 917 49 1056 l 49 481 q 115 167 49 267 l 32 167 l 32 0 "},"Ꞷ":{"ha":1029,"x_min":43,"x_max":985,"o":"m 307 -11 q 424 13 370 -11 q 515 99 477 37 q 608 13 553 37 q 724 -11 662 -11 q 921 74 857 -11 q 985 321 985 159 l 985 893 q 953 1054 985 984 q 856 1164 921 1124 q 692 1204 791 1204 l 692 999 q 735 984 721 999 q 749 935 749 969 l 749 313 q 736 236 749 264 q 692 209 723 209 q 647 235 659 209 q 635 313 635 262 l 635 800 l 394 800 l 394 313 q 382 236 394 264 q 338 209 371 209 q 293 235 305 209 q 280 313 280 262 l 280 935 q 294 984 280 969 q 337 999 308 999 l 337 1204 q 173 1164 239 1204 q 76 1054 108 1124 q 43 893 43 984 l 43 321 q 107 75 43 161 q 307 -11 172 -11 "},"Ǫ":{"ha":675,"x_min":43,"x_max":632,"o":"m 338 -11 q 556 76 481 -11 q 632 326 632 162 l 632 892 q 557 1125 632 1046 q 338 1204 482 1204 q 118 1125 193 1204 q 43 892 43 1046 l 43 326 q 119 76 43 162 q 338 -11 195 -11 m 340 209 q 295 233 309 209 q 281 313 281 257 l 281 895 q 341 985 281 985 q 394 897 394 985 l 394 314 q 340 209 394 209 m 449 -374 q 583 -347 519 -374 l 583 -195 q 505 -211 538 -211 q 427 -135 427 -211 q 462 -32 427 -79 q 535 54 497 15 l 392 54 q 213 -170 213 -46 q 245 -279 213 -233 q 331 -349 277 -325 q 449 -374 385 -374 "},"Ǭ":{"ha":675,"x_min":43,"x_max":632,"o":"m 338 -11 q 556 76 481 -11 q 632 326 632 162 l 632 892 q 557 1125 632 1046 q 338 1204 482 1204 q 118 1125 193 1204 q 43 892 43 1046 l 43 326 q 119 76 43 162 q 338 -11 195 -11 m 340 209 q 295 233 309 209 q 281 313 281 257 l 281 895 q 341 985 281 985 q 394 897 394 985 l 394 314 q 340 209 394 209 m 449 -374 q 583 -347 519 -374 l 583 -195 q 505 -211 538 -211 q 427 -135 427 -211 q 458 -34 427 -79 q 535 54 489 10 l 392 54 q 213 -170 213 -46 q 245 -279 213 -233 q 331 -349 277 -325 q 449 -374 385 -374 m 117 1234 l 558 1234 l 558 1337 l 117 1337 l 117 1234 "},"Ɔ":{"ha":659,"x_min":26,"x_max":615,"o":"m 328 -11 q 536 70 457 -11 q 615 296 615 151 l 615 846 q 546 1112 615 1020 q 322 1204 477 1204 q 171 1173 237 1204 q 67 1080 105 1142 q 29 924 29 1018 l 29 718 l 267 718 l 267 894 q 280 966 267 947 q 322 985 294 985 q 367 961 355 985 q 378 897 378 937 l 378 299 q 364 229 378 250 q 322 209 350 209 q 279 234 292 209 q 267 299 267 259 l 267 514 l 26 514 l 26 288 q 106 60 26 131 q 328 -11 185 -11 "},"Ø":{"ha":675,"x_min":43,"x_max":632,"o":"m 75 -126 l 170 -126 l 206 13 q 338 -11 263 -11 q 558 78 484 -11 q 632 326 632 166 l 632 892 q 530 1149 632 1072 l 583 1356 l 488 1356 l 445 1191 q 338 1204 397 1204 q 119 1125 195 1204 q 43 892 43 1046 l 43 326 q 125 68 43 155 l 75 -126 m 340 209 q 292 237 303 209 q 281 313 281 266 l 281 895 q 294 959 281 932 q 341 985 307 985 q 385 957 376 985 q 394 897 394 928 l 394 314 q 384 240 394 271 q 340 209 374 209 "},"Ǿ":{"ha":675,"x_min":43,"x_max":632,"o":"m 75 -126 l 170 -126 l 206 13 q 338 -11 263 -11 q 558 78 484 -11 q 632 326 632 166 l 632 892 q 530 1149 632 1072 l 583 1356 l 488 1356 l 445 1191 q 338 1204 397 1204 q 119 1125 195 1204 q 43 892 43 1046 l 43 326 q 125 68 43 155 l 75 -126 m 340 209 q 292 237 303 209 q 281 313 281 266 l 281 895 q 294 959 281 932 q 341 985 307 985 q 385 957 376 985 q 394 897 394 928 l 394 314 q 384 240 394 271 q 340 209 374 209 m 174 1322 l 496 1386 l 496 1622 l 174 1474 l 174 1322 "},"Õ":{"ha":675,"x_min":43,"x_max":632,"o":"m 338 -11 q 556 76 481 -11 q 632 326 632 162 l 632 892 q 557 1125 632 1046 q 338 1204 482 1204 q 118 1125 193 1204 q 43 892 43 1046 l 43 326 q 119 76 43 162 q 338 -11 195 -11 m 340 209 q 295 233 309 209 q 281 313 281 257 l 281 895 q 341 985 281 985 q 394 897 394 985 l 394 314 q 340 209 394 209 m 450 1269 q 532 1294 501 1269 q 583 1360 563 1319 q 618 1446 602 1400 l 506 1482 q 477 1443 492 1455 q 443 1432 461 1432 q 384 1446 416 1432 q 313 1474 352 1460 q 226 1489 274 1489 q 146 1468 178 1489 q 95 1413 115 1447 q 58 1337 75 1379 l 159 1284 q 188 1320 172 1310 q 221 1331 203 1331 q 283 1315 249 1331 q 358 1284 317 1300 q 450 1269 400 1269 "},"Ṍ":{"ha":675,"x_min":43,"x_max":632,"o":"m 338 -11 q 556 76 481 -11 q 632 326 632 162 l 632 892 q 557 1125 632 1046 q 338 1204 482 1204 q 118 1125 193 1204 q 43 892 43 1046 l 43 326 q 119 76 43 162 q 338 -11 195 -11 m 340 209 q 295 233 309 209 q 281 313 281 257 l 281 895 q 341 985 281 985 q 394 897 394 985 l 394 314 q 340 209 394 209 m 450 1249 q 531 1272 500 1249 q 582 1332 562 1295 q 618 1412 602 1370 l 505 1449 q 476 1409 492 1421 q 442 1398 460 1398 q 385 1412 416 1398 q 313 1440 353 1426 q 225 1455 273 1455 q 146 1436 177 1455 q 95 1385 115 1417 q 58 1317 75 1354 l 158 1264 q 187 1300 172 1290 q 220 1310 203 1310 q 282 1295 248 1310 q 358 1264 316 1280 q 450 1249 399 1249 m 177 1495 l 499 1545 l 499 1740 l 177 1626 l 177 1495 "},"Ṏ":{"ha":675,"x_min":43,"x_max":632,"o":"m 338 -11 q 556 76 481 -11 q 632 326 632 162 l 632 892 q 557 1125 632 1046 q 338 1204 482 1204 q 118 1125 193 1204 q 43 892 43 1046 l 43 326 q 119 76 43 162 q 338 -11 195 -11 m 340 209 q 295 233 309 209 q 281 313 281 257 l 281 895 q 341 985 281 985 q 394 897 394 985 l 394 314 q 340 209 394 209 m 450 1249 q 531 1272 500 1249 q 582 1332 562 1295 q 618 1412 602 1370 l 505 1449 q 476 1409 492 1421 q 442 1398 460 1398 q 385 1412 416 1398 q 313 1440 353 1426 q 225 1455 273 1455 q 146 1436 177 1455 q 95 1385 115 1417 q 58 1317 75 1354 l 158 1264 q 187 1300 172 1290 q 220 1310 203 1310 q 282 1295 248 1310 q 358 1264 316 1280 q 450 1249 399 1249 m 380 1537 l 623 1537 l 623 1705 l 380 1705 l 380 1537 m 52 1537 l 295 1537 l 295 1705 l 52 1705 l 52 1537 "},"Ȭ":{"ha":675,"x_min":43,"x_max":632,"o":"m 338 -11 q 556 76 481 -11 q 632 326 632 162 l 632 892 q 557 1125 632 1046 q 338 1204 482 1204 q 118 1125 193 1204 q 43 892 43 1046 l 43 326 q 119 76 43 162 q 338 -11 195 -11 m 340 209 q 295 233 309 209 q 281 313 281 257 l 281 895 q 341 985 281 985 q 394 897 394 985 l 394 314 q 340 209 394 209 m 450 1249 q 531 1272 500 1249 q 582 1332 562 1295 q 618 1412 602 1370 l 505 1449 q 476 1409 492 1421 q 442 1398 460 1398 q 385 1412 416 1398 q 313 1440 353 1426 q 225 1455 273 1455 q 146 1436 177 1455 q 95 1385 115 1417 q 58 1317 75 1354 l 158 1264 q 187 1300 172 1290 q 220 1310 203 1310 q 282 1295 248 1310 q 358 1264 316 1280 q 450 1249 399 1249 m 117 1510 l 558 1510 l 558 1613 l 117 1613 l 117 1510 "},"P":{"ha":656,"x_min":53,"x_max":633,"o":"m 53 0 l 288 0 l 288 473 l 385 473 q 537 517 484 473 q 612 641 591 561 q 633 830 633 722 q 608 1024 633 943 q 525 1149 583 1105 q 368 1194 467 1194 l 53 1194 l 53 0 m 288 687 l 288 976 l 314 976 q 383 939 368 976 q 397 834 397 902 q 382 724 397 762 q 301 687 368 687 l 288 687 "},"Ṕ":{"ha":656,"x_min":53,"x_max":633,"o":"m 53 0 l 288 0 l 288 473 l 385 473 q 537 517 484 473 q 612 641 591 561 q 633 830 633 722 q 608 1024 633 943 q 525 1149 583 1105 q 368 1194 467 1194 l 53 1194 l 53 0 m 288 687 l 288 976 l 314 976 q 383 939 368 976 q 397 834 397 902 q 382 724 397 762 q 301 687 368 687 l 288 687 m 167 1230 l 489 1293 l 489 1529 l 167 1381 l 167 1230 "},"Ṗ":{"ha":656,"x_min":53,"x_max":633,"o":"m 53 0 l 288 0 l 288 473 l 385 473 q 537 517 484 473 q 612 641 591 561 q 633 830 633 722 q 608 1024 633 943 q 525 1149 583 1105 q 368 1194 467 1194 l 53 1194 l 53 0 m 288 687 l 288 976 l 314 976 q 383 939 368 976 q 397 834 397 902 q 382 724 397 762 q 301 687 368 687 l 288 687 m 206 1256 l 449 1256 l 449 1458 l 206 1458 l 206 1256 "},"Ƥ":{"ha":892,"x_min":3,"x_max":870,"o":"m 290 0 l 524 0 l 524 473 l 621 473 q 774 517 720 473 q 849 641 828 561 q 870 830 870 722 q 845 1024 870 943 q 762 1149 820 1105 q 605 1194 704 1194 l 290 1194 q 75 1108 146 1194 q 3 890 3 1023 l 3 849 l 212 849 l 212 890 q 231 968 212 944 q 290 993 250 993 l 290 0 m 524 687 l 524 976 l 551 976 q 620 939 605 976 q 634 834 634 902 q 619 724 634 762 q 538 687 604 687 l 524 687 "},"Ᵽ":{"ha":656,"x_min":0,"x_max":633,"o":"m 53 0 l 288 0 l 288 473 l 385 473 q 537 517 484 473 q 612 641 591 561 q 633 830 633 722 q 608 1024 633 943 q 525 1149 583 1105 q 368 1194 467 1194 l 53 1194 l 53 913 l 0 913 l 0 756 l 53 756 l 53 0 m 288 687 l 288 756 l 350 756 l 350 913 l 288 913 l 288 976 l 314 976 q 383 939 368 976 q 397 834 397 902 q 382 724 397 762 q 301 687 368 687 l 288 687 "},"Q":{"ha":686,"x_min":37,"x_max":661,"o":"m 581 -127 l 661 16 l 559 81 q 625 313 625 165 l 625 890 q 550 1124 625 1044 q 331 1204 474 1204 q 112 1124 188 1204 q 37 890 37 1044 l 37 313 q 110 72 37 155 q 323 -11 184 -11 q 391 -2 358 -11 l 581 -127 m 331 209 q 291 228 303 209 q 276 273 279 246 q 273 323 273 300 l 273 887 q 283 955 273 926 q 330 985 294 985 q 375 955 364 985 q 385 886 385 924 l 385 328 q 382 275 385 302 q 368 228 379 247 q 331 209 357 209 "},"Ɋ":{"ha":711,"x_min":43,"x_max":718,"o":"m 718 -133 l 718 81 q 652 102 673 81 q 631 172 631 123 l 631 1194 l 394 1194 l 394 1088 q 339 1175 374 1146 q 246 1204 304 1204 q 115 1163 159 1204 q 58 1047 72 1121 q 43 878 43 974 l 43 317 q 58 146 43 220 q 115 31 72 73 q 246 -11 159 -11 q 349 12 303 -11 q 421 90 395 35 l 421 88 q 459 -41 421 7 q 565 -111 498 -90 q 718 -133 632 -133 m 338 189 q 292 216 304 189 q 281 292 281 244 l 281 902 q 292 978 281 950 q 338 1005 304 1005 q 382 976 370 1005 q 394 902 394 946 l 394 292 q 382 218 394 248 q 338 189 370 189 "},"R":{"ha":662,"x_min":53,"x_max":636,"o":"m 53 0 l 294 0 l 294 545 q 363 532 342 545 q 385 467 385 519 l 385 0 l 620 0 l 620 452 q 597 567 620 522 q 518 623 574 611 q 611 703 587 645 q 636 859 636 762 q 620 1035 636 960 q 557 1152 604 1110 q 419 1194 511 1194 l 53 1194 l 53 0 m 296 751 l 296 972 l 351 972 q 392 951 381 972 q 403 859 403 929 q 353 751 403 751 l 296 751 "},"Ŕ":{"ha":662,"x_min":53,"x_max":636,"o":"m 53 0 l 294 0 l 294 545 q 363 532 342 545 q 385 467 385 519 l 385 0 l 620 0 l 620 452 q 597 567 620 522 q 518 623 574 611 q 611 703 587 645 q 636 859 636 762 q 620 1035 636 960 q 557 1152 604 1110 q 419 1194 511 1194 l 53 1194 l 53 0 m 296 751 l 296 972 l 351 972 q 392 951 381 972 q 403 859 403 929 q 353 751 403 751 l 296 751 m 163 1230 l 486 1293 l 486 1529 l 163 1381 l 163 1230 "},"Ř":{"ha":662,"x_min":23,"x_max":636,"o":"m 53 0 l 294 0 l 294 545 q 363 532 342 545 q 385 467 385 519 l 385 0 l 620 0 l 620 452 q 597 567 620 522 q 518 623 574 611 q 611 703 587 645 q 636 859 636 762 q 620 1035 636 960 q 557 1152 604 1110 q 419 1194 511 1194 l 53 1194 l 53 0 m 296 751 l 296 972 l 351 972 q 392 951 381 972 q 403 859 403 929 q 353 751 403 751 l 296 751 m 186 1255 l 463 1255 l 627 1529 l 383 1529 l 325 1335 l 267 1529 l 23 1529 l 186 1255 "},"Ŗ":{"ha":662,"x_min":53,"x_max":636,"o":"m 53 0 l 294 0 l 294 545 q 363 532 342 545 q 385 467 385 519 l 385 0 l 620 0 l 620 452 q 597 567 620 522 q 518 623 574 611 q 611 703 587 645 q 636 859 636 762 q 620 1035 636 960 q 557 1152 604 1110 q 419 1194 511 1194 l 53 1194 l 53 0 m 296 751 l 296 972 l 351 972 q 392 951 381 972 q 403 859 403 929 q 353 751 403 751 l 296 751 m 255 -436 l 398 -436 l 467 -270 l 467 -74 l 214 -74 l 214 -276 l 300 -276 l 255 -436 "},"Ȑ":{"ha":662,"x_min":-5,"x_max":636,"o":"m 53 0 l 294 0 l 294 545 q 363 532 342 545 q 385 467 385 519 l 385 0 l 620 0 l 620 452 q 597 567 620 522 q 518 623 574 611 q 611 703 587 645 q 636 859 636 762 q 620 1035 636 960 q 557 1152 604 1110 q 419 1194 511 1194 l 53 1194 l 53 0 m 296 751 l 296 972 l 351 972 q 392 951 381 972 q 403 859 403 929 q 353 751 403 751 l 296 751 m 191 1252 l 304 1291 l 154 1616 l -5 1543 l 191 1252 m 396 1252 l 509 1291 l 384 1616 l 228 1543 l 396 1252 "},"Ṙ":{"ha":662,"x_min":53,"x_max":636,"o":"m 53 0 l 294 0 l 294 545 q 363 532 342 545 q 385 467 385 519 l 385 0 l 620 0 l 620 452 q 597 567 620 522 q 518 623 574 611 q 611 703 587 645 q 636 859 636 762 q 620 1035 636 960 q 557 1152 604 1110 q 419 1194 511 1194 l 53 1194 l 53 0 m 296 751 l 296 972 l 351 972 q 392 951 381 972 q 403 859 403 929 q 353 751 403 751 l 296 751 m 203 1256 l 446 1256 l 446 1458 l 203 1458 l 203 1256 "},"Ṛ":{"ha":662,"x_min":53,"x_max":636,"o":"m 53 0 l 294 0 l 294 545 q 363 532 342 545 q 385 467 385 519 l 385 0 l 620 0 l 620 452 q 597 567 620 522 q 518 623 574 611 q 611 703 587 645 q 636 859 636 762 q 620 1035 636 960 q 557 1152 604 1110 q 419 1194 511 1194 l 53 1194 l 53 0 m 296 751 l 296 972 l 351 972 q 392 951 381 972 q 403 859 403 929 q 353 751 403 751 l 296 751 m 228 -283 l 471 -283 l 471 -81 l 228 -81 l 228 -283 "},"Ṝ":{"ha":662,"x_min":53,"x_max":636,"o":"m 53 0 l 294 0 l 294 545 q 363 532 342 545 q 385 467 385 519 l 385 0 l 620 0 l 620 452 q 597 567 620 522 q 518 623 574 611 q 611 703 587 645 q 636 859 636 762 q 620 1035 636 960 q 557 1152 604 1110 q 419 1194 511 1194 l 53 1194 l 53 0 m 296 751 l 296 972 l 351 972 q 392 951 381 972 q 403 859 403 929 q 353 751 403 751 l 296 751 m 228 -283 l 471 -283 l 471 -81 l 228 -81 l 228 -283 m 104 1274 l 545 1274 l 545 1378 l 104 1378 l 104 1274 "},"Ȓ":{"ha":662,"x_min":53,"x_max":636,"o":"m 53 0 l 294 0 l 294 545 q 363 532 342 545 q 385 467 385 519 l 385 0 l 620 0 l 620 452 q 597 567 620 522 q 518 623 574 611 q 611 703 587 645 q 636 859 636 762 q 620 1035 636 960 q 557 1152 604 1110 q 419 1194 511 1194 l 53 1194 l 53 0 m 296 751 l 296 972 l 351 972 q 392 951 381 972 q 403 859 403 929 q 353 751 403 751 l 296 751 m 73 1267 l 233 1267 q 259 1335 233 1313 q 325 1358 286 1358 q 391 1335 365 1358 q 416 1267 416 1313 l 576 1267 q 577 1280 577 1274 q 578 1290 578 1286 q 512 1454 578 1403 q 323 1506 446 1506 q 138 1455 205 1506 q 71 1295 71 1405 q 73 1267 71 1280 "},"Ṟ":{"ha":662,"x_min":53,"x_max":636,"o":"m 53 0 l 294 0 l 294 545 q 363 532 342 545 q 385 467 385 519 l 385 0 l 620 0 l 620 452 q 597 567 620 522 q 518 623 574 611 q 611 703 587 645 q 636 859 636 762 q 620 1035 636 960 q 557 1152 604 1110 q 419 1194 511 1194 l 53 1194 l 53 0 m 296 751 l 296 972 l 351 972 q 392 951 381 972 q 403 859 403 929 q 353 751 403 751 l 296 751 m 129 -184 l 570 -184 l 570 -81 l 129 -81 l 129 -184 "},"Ɍ":{"ha":662,"x_min":0,"x_max":636,"o":"m 53 0 l 294 0 l 294 545 q 363 532 342 545 q 385 467 385 519 l 385 0 l 620 0 l 620 452 q 597 567 620 522 q 518 623 574 611 q 611 703 587 645 q 636 859 636 762 q 620 1035 636 960 q 557 1152 604 1110 q 419 1194 511 1194 l 53 1194 l 53 729 l 0 729 l 0 572 l 53 572 l 53 0 m 296 751 l 296 972 l 351 972 q 392 951 381 972 q 403 859 403 929 q 353 751 403 751 l 296 751 "},"Ɽ":{"ha":662,"x_min":53,"x_max":636,"o":"m 342 -133 l 342 81 q 308 97 321 81 q 294 171 294 113 l 294 545 q 363 532 342 545 q 385 467 385 519 l 385 0 l 620 0 l 620 452 q 597 567 620 522 q 518 623 574 611 q 611 703 587 645 q 636 859 636 762 q 620 1035 636 960 q 557 1152 604 1110 q 419 1194 511 1194 l 53 1194 l 53 157 q 91 -3 53 62 q 194 -100 128 -67 q 342 -133 259 -133 m 296 751 l 296 972 l 351 972 q 392 951 381 972 q 403 859 403 929 q 353 751 403 751 l 296 751 "},"S":{"ha":641,"x_min":28,"x_max":614,"o":"m 336 -11 q 552 84 490 -11 q 614 348 614 180 q 593 489 614 431 q 538 591 572 547 q 462 674 503 635 l 324 806 q 271 873 284 844 q 257 928 257 903 q 270 969 257 953 q 312 985 283 985 q 350 971 336 985 q 363 933 363 958 l 363 851 l 606 851 q 537 1117 606 1029 q 304 1204 469 1204 q 99 1124 170 1204 q 28 892 28 1044 q 149 633 28 746 l 256 531 q 330 453 303 486 q 368 382 357 419 q 378 290 378 345 q 366 228 378 247 q 321 209 353 209 q 277 232 290 209 q 264 297 264 256 l 264 446 l 28 446 l 28 330 q 101 71 28 152 q 336 -11 173 -11 "},"Ś":{"ha":641,"x_min":28,"x_max":614,"o":"m 336 -11 q 552 84 490 -11 q 614 348 614 180 q 593 489 614 431 q 538 591 572 547 q 462 674 503 635 l 324 806 q 271 873 284 844 q 257 928 257 903 q 270 969 257 953 q 312 985 283 985 q 350 971 336 985 q 363 933 363 958 l 363 851 l 606 851 q 537 1117 606 1029 q 304 1204 469 1204 q 99 1124 170 1204 q 28 892 28 1044 q 149 633 28 746 l 256 531 q 330 453 303 486 q 368 382 357 419 q 378 290 378 345 q 366 228 378 247 q 321 209 353 209 q 277 232 290 209 q 264 297 264 256 l 264 446 l 28 446 l 28 330 q 101 71 28 152 q 336 -11 173 -11 m 156 1230 l 478 1293 l 478 1529 l 156 1381 l 156 1230 "},"Ṥ":{"ha":641,"x_min":28,"x_max":614,"o":"m 336 -11 q 552 84 490 -11 q 614 348 614 180 q 593 489 614 431 q 538 591 572 547 q 462 674 503 635 l 324 806 q 271 873 284 844 q 257 928 257 903 q 270 969 257 953 q 312 985 283 985 q 350 971 336 985 q 363 933 363 958 l 363 851 l 606 851 q 537 1117 606 1029 q 304 1204 469 1204 q 99 1124 170 1204 q 28 892 28 1044 q 149 633 28 746 l 256 531 q 330 453 303 486 q 368 382 357 419 q 378 290 378 345 q 366 228 378 247 q 321 209 353 209 q 277 232 290 209 q 264 297 264 256 l 264 446 l 28 446 l 28 330 q 101 71 28 152 q 336 -11 173 -11 m 158 1215 l 480 1265 l 480 1460 l 158 1346 l 158 1215 m 197 1472 l 440 1472 l 440 1647 l 197 1647 l 197 1472 "},"Ꞌ":{"ha":318,"x_min":37,"x_max":280,"o":"m 85 325 l 233 325 l 280 1194 l 37 1194 l 85 325 "},"Š":{"ha":641,"x_min":16,"x_max":619,"o":"m 336 -11 q 552 84 490 -11 q 614 348 614 180 q 593 489 614 431 q 538 591 572 547 q 462 674 503 635 l 324 806 q 271 873 284 844 q 257 928 257 903 q 270 969 257 953 q 312 985 283 985 q 350 971 336 985 q 363 933 363 958 l 363 851 l 606 851 q 537 1117 606 1029 q 304 1204 469 1204 q 99 1124 170 1204 q 28 892 28 1044 q 149 633 28 746 l 256 531 q 330 453 303 486 q 368 382 357 419 q 378 290 378 345 q 366 228 378 247 q 321 209 353 209 q 277 232 290 209 q 264 297 264 256 l 264 446 l 28 446 l 28 330 q 101 71 28 152 q 336 -11 173 -11 m 179 1255 l 456 1255 l 619 1529 l 376 1529 l 317 1335 l 259 1529 l 16 1529 l 179 1255 "},"Ṧ":{"ha":641,"x_min":28,"x_max":614,"o":"m 197 1441 l 440 1441 l 440 1616 l 197 1616 l 197 1441 m 220 1246 l 419 1246 l 580 1419 l 387 1419 l 319 1326 l 252 1419 l 59 1419 l 220 1246 m 336 -11 q 552 84 490 -11 q 614 348 614 180 q 593 489 614 431 q 538 591 572 547 q 462 674 503 635 l 324 806 q 271 873 284 844 q 257 928 257 903 q 270 969 257 953 q 312 985 283 985 q 350 971 336 985 q 363 933 363 958 l 363 851 l 606 851 q 537 1117 606 1029 q 304 1204 469 1204 q 99 1124 170 1204 q 28 892 28 1044 q 149 633 28 746 l 256 531 q 330 453 303 486 q 368 382 357 419 q 378 290 378 345 q 366 228 378 247 q 321 209 353 209 q 277 232 290 209 q 264 297 264 256 l 264 446 l 28 446 l 28 330 q 101 71 28 152 q 336 -11 173 -11 "},"Ş":{"ha":641,"x_min":28,"x_max":614,"o":"m 336 -11 q 552 84 490 -11 q 614 348 614 180 q 593 489 614 431 q 538 591 572 547 q 462 674 503 635 l 324 806 q 271 873 284 844 q 257 928 257 903 q 270 969 257 953 q 312 985 283 985 q 350 971 336 985 q 363 933 363 958 l 363 851 l 606 851 q 537 1117 606 1029 q 304 1204 469 1204 q 99 1124 170 1204 q 28 892 28 1044 q 149 633 28 746 l 256 531 q 330 453 303 486 q 368 382 357 419 q 378 290 378 345 q 366 228 378 247 q 321 209 353 209 q 277 232 290 209 q 264 297 264 256 l 264 446 l 28 446 l 28 330 q 101 71 28 152 q 336 -11 173 -11 m 305 -428 q 459 -380 411 -428 q 507 -262 507 -332 q 471 -129 507 -199 q 369 0 435 -58 l 260 0 q 312 -98 293 -50 q 330 -185 330 -147 q 308 -247 330 -229 q 251 -265 285 -265 q 212 -261 233 -265 q 171 -250 192 -256 l 171 -401 q 305 -428 235 -428 "},"Ə":{"ha":678,"x_min":43,"x_max":632,"o":"m 339 -11 q 563 81 494 -11 q 632 347 632 174 l 632 898 q 553 1124 632 1043 q 345 1204 474 1204 q 123 1134 202 1204 q 43 905 43 1063 l 43 737 l 283 737 l 283 895 q 296 960 283 935 q 339 985 309 985 q 381 964 367 985 q 395 895 395 944 l 395 604 l 46 604 l 46 270 q 84 114 46 176 q 188 20 122 52 q 339 -11 254 -11 m 339 209 q 297 228 311 209 q 283 300 283 246 l 283 420 l 395 420 l 395 297 q 384 233 395 258 q 339 209 372 209 "},"Ŝ":{"ha":641,"x_min":16,"x_max":619,"o":"m 336 -11 q 552 84 490 -11 q 614 348 614 180 q 593 489 614 431 q 538 591 572 547 q 462 674 503 635 l 324 806 q 271 873 284 844 q 257 928 257 903 q 270 969 257 953 q 312 985 283 985 q 350 971 336 985 q 363 933 363 958 l 363 851 l 606 851 q 537 1117 606 1029 q 304 1204 469 1204 q 99 1124 170 1204 q 28 892 28 1044 q 149 633 28 746 l 256 531 q 330 453 303 486 q 368 382 357 419 q 378 290 378 345 q 366 228 378 247 q 321 209 353 209 q 277 232 290 209 q 264 297 264 256 l 264 446 l 28 446 l 28 330 q 101 71 28 152 q 336 -11 173 -11 m 16 1255 l 259 1255 l 317 1449 l 376 1255 l 619 1255 l 456 1529 l 179 1529 l 16 1255 "},"Ș":{"ha":641,"x_min":28,"x_max":614,"o":"m 336 -11 q 552 84 490 -11 q 614 348 614 180 q 593 489 614 431 q 538 591 572 547 q 462 674 503 635 l 324 806 q 271 873 284 844 q 257 928 257 903 q 270 969 257 953 q 312 985 283 985 q 350 971 336 985 q 363 933 363 958 l 363 851 l 606 851 q 537 1117 606 1029 q 304 1204 469 1204 q 99 1124 170 1204 q 28 892 28 1044 q 149 633 28 746 l 256 531 q 330 453 303 486 q 368 382 357 419 q 378 290 378 345 q 366 228 378 247 q 321 209 353 209 q 277 232 290 209 q 264 297 264 256 l 264 446 l 28 446 l 28 330 q 101 71 28 152 q 336 -11 173 -11 m 229 -436 l 372 -436 l 441 -270 l 441 -74 l 187 -74 l 187 -276 l 273 -276 l 229 -436 "},"Ṡ":{"ha":641,"x_min":28,"x_max":614,"o":"m 336 -11 q 552 84 490 -11 q 614 348 614 180 q 593 489 614 431 q 538 591 572 547 q 462 674 503 635 l 324 806 q 271 873 284 844 q 257 928 257 903 q 270 969 257 953 q 312 985 283 985 q 350 971 336 985 q 363 933 363 958 l 363 851 l 606 851 q 537 1117 606 1029 q 304 1204 469 1204 q 99 1124 170 1204 q 28 892 28 1044 q 149 633 28 746 l 256 531 q 330 453 303 486 q 368 382 357 419 q 378 290 378 345 q 366 228 378 247 q 321 209 353 209 q 277 232 290 209 q 264 297 264 256 l 264 446 l 28 446 l 28 330 q 101 71 28 152 q 336 -11 173 -11 m 196 1256 l 439 1256 l 439 1458 l 196 1458 l 196 1256 "},"Ṣ":{"ha":641,"x_min":28,"x_max":614,"o":"m 336 -11 q 552 84 490 -11 q 614 348 614 180 q 593 489 614 431 q 538 591 572 547 q 462 674 503 635 l 324 806 q 271 873 284 844 q 257 928 257 903 q 270 969 257 953 q 312 985 283 985 q 350 971 336 985 q 363 933 363 958 l 363 851 l 606 851 q 537 1117 606 1029 q 304 1204 469 1204 q 99 1124 170 1204 q 28 892 28 1044 q 149 633 28 746 l 256 531 q 330 453 303 486 q 368 382 357 419 q 378 290 378 345 q 366 228 378 247 q 321 209 353 209 q 277 232 290 209 q 264 297 264 256 l 264 446 l 28 446 l 28 330 q 101 71 28 152 q 336 -11 173 -11 m 201 -283 l 444 -283 l 444 -81 l 201 -81 l 201 -283 "},"Ṩ":{"ha":641,"x_min":28,"x_max":614,"o":"m 336 -11 q 552 84 490 -11 q 614 348 614 180 q 593 489 614 431 q 538 591 572 547 q 462 674 503 635 l 324 806 q 271 873 284 844 q 257 928 257 903 q 270 969 257 953 q 312 985 283 985 q 350 971 336 985 q 363 933 363 958 l 363 851 l 606 851 q 537 1117 606 1029 q 304 1204 469 1204 q 99 1124 170 1204 q 28 892 28 1044 q 149 633 28 746 l 256 531 q 330 453 303 486 q 368 382 357 419 q 378 290 378 345 q 366 228 378 247 q 321 209 353 209 q 277 232 290 209 q 264 297 264 256 l 264 446 l 28 446 l 28 330 q 101 71 28 152 q 336 -11 173 -11 m 201 -283 l 444 -283 l 444 -81 l 201 -81 l 201 -283 m 196 1256 l 439 1256 l 439 1458 l 196 1458 l 196 1256 "},"Σ":{"ha":567,"x_min":42,"x_max":539,"o":"m 42 -81 l 539 -81 l 539 119 l 262 119 l 469 536 l 469 587 l 262 979 l 528 979 l 528 1194 l 42 1194 l 42 987 l 271 557 l 42 101 l 42 -81 "},"Ꞩ":{"ha":641,"x_min":28,"x_max":614,"o":"m 336 -11 q 552 84 490 -11 q 614 348 614 180 q 588 503 614 441 q 520 613 561 565 l 593 631 l 593 798 l 385 748 l 324 806 q 271 873 284 844 q 257 928 257 903 q 270 969 257 953 q 312 985 283 985 q 350 971 336 985 q 363 933 363 958 l 363 851 l 606 851 q 537 1117 606 1029 q 304 1204 469 1204 q 99 1124 170 1204 q 28 892 28 1044 q 104 681 28 775 l 43 666 l 43 499 l 239 546 l 256 531 q 330 453 303 486 q 368 382 357 419 q 378 290 378 345 q 366 228 378 247 q 321 209 353 209 q 277 232 290 209 q 264 297 264 256 l 264 446 l 28 446 l 28 330 q 101 71 28 152 q 336 -11 173 -11 "},"T":{"ha":549,"x_min":14,"x_max":536,"o":"m 155 0 l 394 0 l 394 964 l 536 964 l 536 1194 l 14 1194 l 14 964 l 155 964 l 155 0 "},"Ŧ":{"ha":549,"x_min":14,"x_max":536,"o":"m 536 1194 l 14 1194 l 14 964 l 155 964 l 155 668 l 52 668 l 52 510 l 155 510 l 155 0 l 394 0 l 394 510 l 493 510 l 493 668 l 394 668 l 394 964 l 536 964 l 536 1194 "},"Ť":{"ha":549,"x_min":-27,"x_max":576,"o":"m 155 0 l 394 0 l 394 964 l 536 964 l 536 1194 l 14 1194 l 14 964 l 155 964 l 155 0 m 136 1255 l 413 1255 l 576 1529 l 333 1529 l 275 1335 l 216 1529 l -27 1529 l 136 1255 "},"Ţ":{"ha":549,"x_min":14,"x_max":536,"o":"m 155 0 l 394 0 l 394 964 l 536 964 l 536 1194 l 14 1194 l 14 964 l 155 964 l 155 0 m 255 -428 q 409 -380 361 -428 q 457 -262 457 -332 q 421 -129 457 -199 q 319 0 385 -58 l 210 0 q 261 -98 243 -50 q 280 -185 280 -147 q 257 -247 280 -229 q 201 -265 235 -265 q 162 -261 182 -265 q 121 -250 142 -256 l 121 -401 q 255 -428 185 -428 "},"Ṱ":{"ha":549,"x_min":-27,"x_max":576,"o":"m 155 0 l 394 0 l 394 964 l 536 964 l 536 1194 l 14 1194 l 14 964 l 155 964 l 155 0 m -27 -347 l 216 -347 l 275 -154 l 333 -347 l 576 -347 l 413 -74 l 136 -74 l -27 -347 "},"Ț":{"ha":549,"x_min":14,"x_max":536,"o":"m 155 0 l 394 0 l 394 964 l 536 964 l 536 1194 l 14 1194 l 14 964 l 155 964 l 155 0 m 194 -436 l 337 -436 l 406 -270 l 406 -74 l 153 -74 l 153 -276 l 239 -276 l 194 -436 "},"Ⱦ":{"ha":549,"x_min":4,"x_max":536,"o":"m 4 -126 l 99 -126 l 155 92 l 155 0 l 394 0 l 394 964 l 536 964 l 536 1194 l 473 1194 l 515 1356 l 420 1356 l 378 1194 l 14 1194 l 14 964 l 155 964 l 155 452 l 153 452 l 4 -126 "},"Ṫ":{"ha":549,"x_min":14,"x_max":536,"o":"m 155 0 l 394 0 l 394 964 l 536 964 l 536 1194 l 14 1194 l 14 964 l 155 964 l 155 0 m 153 1256 l 396 1256 l 396 1458 l 153 1458 l 153 1256 "},"Ṭ":{"ha":549,"x_min":14,"x_max":536,"o":"m 155 0 l 394 0 l 394 964 l 536 964 l 536 1194 l 14 1194 l 14 964 l 155 964 l 155 0 m 153 -283 l 396 -283 l 396 -81 l 153 -81 l 153 -283 "},"Ƭ":{"ha":678,"x_min":-3,"x_max":665,"o":"m 284 0 l 523 0 l 523 964 l 665 964 l 665 1194 l 282 1194 q 123 1155 186 1194 q 28 1047 60 1116 q -3 890 -3 979 l -3 849 l 205 849 l 205 861 q 224 940 205 916 q 283 964 243 964 l 284 964 l 284 0 "},"Þ":{"ha":642,"x_min":42,"x_max":623,"o":"m 42 0 l 277 0 l 277 294 l 374 294 q 531 342 477 294 q 604 473 585 391 q 623 660 623 556 q 600 851 623 768 q 519 981 577 934 q 357 1028 462 1028 l 276 1028 l 276 1194 l 42 1194 l 42 0 m 277 489 l 277 831 l 303 831 q 360 809 342 831 q 382 748 377 787 q 387 656 387 708 q 366 522 387 555 q 290 489 346 489 l 277 489 "},"Ṯ":{"ha":549,"x_min":14,"x_max":536,"o":"m 155 0 l 394 0 l 394 964 l 536 964 l 536 1194 l 14 1194 l 14 964 l 155 964 l 155 0 m 54 -184 l 495 -184 l 495 -81 l 54 -81 l 54 -184 "},"Ʈ":{"ha":549,"x_min":14,"x_max":536,"o":"m 441 -133 l 441 81 q 408 97 421 81 q 394 171 394 113 l 394 964 l 536 964 l 536 1194 l 14 1194 l 14 964 l 155 964 l 155 157 q 236 -59 155 14 q 441 -133 317 -133 "},"U":{"ha":658,"x_min":39,"x_max":619,"o":"m 329 -11 q 549 73 478 -11 q 619 319 619 157 l 619 1194 l 387 1194 l 387 329 q 384 271 387 299 q 369 226 381 243 q 329 209 357 209 q 290 227 302 209 q 274 272 277 244 q 271 329 271 299 l 271 1194 l 39 1194 l 39 319 q 109 73 39 157 q 329 -11 180 -11 "},"Ú":{"ha":658,"x_min":39,"x_max":619,"o":"m 329 -11 q 549 73 478 -11 q 619 319 619 157 l 619 1194 l 387 1194 l 387 329 q 384 271 387 299 q 369 226 381 243 q 329 209 357 209 q 290 227 302 209 q 274 272 277 244 q 271 329 271 299 l 271 1194 l 39 1194 l 39 319 q 109 73 39 157 q 329 -11 180 -11 m 168 1230 l 490 1293 l 490 1529 l 168 1381 l 168 1230 "},"Ʉ":{"ha":705,"x_min":-7,"x_max":712,"o":"m 353 -11 q 572 73 502 -11 q 643 319 643 157 l 643 618 l 712 618 l 712 768 l 643 768 l 643 1194 l 411 1194 l 411 768 l 294 768 l 294 1194 l 62 1194 l 62 768 l -7 768 l -7 618 l 62 618 l 62 319 q 133 73 62 157 q 353 -11 203 -11 m 294 329 l 294 618 l 411 618 l 411 329 q 408 271 411 299 q 393 226 405 243 q 353 209 380 209 q 313 227 326 209 q 298 272 301 244 q 294 329 294 299 "},"Ŭ":{"ha":658,"x_min":39,"x_max":619,"o":"m 329 -11 q 549 73 478 -11 q 619 319 619 157 l 619 1194 l 387 1194 l 387 329 q 384 271 387 299 q 369 226 381 243 q 329 209 357 209 q 290 227 302 209 q 274 272 277 244 q 271 329 271 299 l 271 1194 l 39 1194 l 39 319 q 109 73 39 157 q 329 -11 180 -11 m 331 1256 q 526 1307 453 1256 q 599 1472 599 1358 q 598 1482 599 1475 q 597 1495 598 1489 l 424 1495 q 404 1437 424 1457 q 332 1417 385 1417 q 260 1437 280 1417 q 241 1495 241 1457 l 67 1495 q 65 1467 65 1481 q 139 1306 65 1356 q 331 1256 212 1256 "},"Ǔ":{"ha":658,"x_min":27,"x_max":631,"o":"m 329 -11 q 549 73 478 -11 q 619 319 619 157 l 619 1194 l 387 1194 l 387 329 q 384 271 387 299 q 369 226 381 243 q 329 209 357 209 q 290 227 302 209 q 274 272 277 244 q 271 329 271 299 l 271 1194 l 39 1194 l 39 319 q 109 73 39 157 q 329 -11 180 -11 m 191 1255 l 467 1255 l 631 1529 l 387 1529 l 329 1335 l 271 1529 l 27 1529 l 191 1255 "},"Û":{"ha":658,"x_min":27,"x_max":631,"o":"m 329 -11 q 549 73 478 -11 q 619 319 619 157 l 619 1194 l 387 1194 l 387 329 q 384 271 387 299 q 369 226 381 243 q 329 209 357 209 q 290 227 302 209 q 274 272 277 244 q 271 329 271 299 l 271 1194 l 39 1194 l 39 319 q 109 73 39 157 q 329 -11 180 -11 m 27 1255 l 271 1255 l 329 1449 l 387 1255 l 631 1255 l 467 1529 l 191 1529 l 27 1255 "},"Ṷ":{"ha":658,"x_min":27,"x_max":631,"o":"m 329 -11 q 549 73 478 -11 q 619 319 619 157 l 619 1194 l 387 1194 l 387 329 q 384 271 387 299 q 369 226 381 243 q 329 209 357 209 q 290 227 302 209 q 274 272 277 244 q 271 329 271 299 l 271 1194 l 39 1194 l 39 319 q 109 73 39 157 q 329 -11 180 -11 m 27 -347 l 271 -347 l 329 -154 l 387 -347 l 631 -347 l 467 -74 l 191 -74 l 27 -347 "},"Ȕ":{"ha":658,"x_min":-1,"x_max":619,"o":"m 329 -11 q 549 73 478 -11 q 619 319 619 157 l 619 1194 l 387 1194 l 387 329 q 384 271 387 299 q 369 226 381 243 q 329 209 357 209 q 290 227 302 209 q 274 272 277 244 q 271 329 271 299 l 271 1194 l 39 1194 l 39 319 q 109 73 39 157 q 329 -11 180 -11 m 195 1252 l 308 1291 l 158 1616 l -1 1543 l 195 1252 m 400 1252 l 513 1291 l 388 1616 l 232 1543 l 400 1252 "},"Ü":{"ha":658,"x_min":39,"x_max":619,"o":"m 329 -11 q 549 73 478 -11 q 619 319 619 157 l 619 1194 l 387 1194 l 387 329 q 384 271 387 299 q 369 226 381 243 q 329 209 357 209 q 290 227 302 209 q 274 272 277 244 q 271 329 271 299 l 271 1194 l 39 1194 l 39 319 q 109 73 39 157 q 329 -11 180 -11 m 367 1261 l 610 1261 l 610 1463 l 367 1463 l 367 1261 m 39 1261 l 281 1261 l 281 1463 l 39 1463 l 39 1261 "},"Ǘ":{"ha":658,"x_min":39,"x_max":619,"o":"m 329 -11 q 549 73 478 -11 q 619 319 619 157 l 619 1194 l 387 1194 l 387 329 q 384 271 387 299 q 369 226 381 243 q 329 209 357 209 q 290 227 302 209 q 274 272 277 244 q 271 329 271 299 l 271 1194 l 39 1194 l 39 319 q 109 73 39 157 q 329 -11 180 -11 m 372 1261 l 614 1261 l 614 1429 l 372 1429 l 372 1261 m 43 1261 l 286 1261 l 286 1429 l 43 1429 l 43 1261 m 168 1488 l 490 1538 l 490 1733 l 168 1619 l 168 1488 "},"Ṳ":{"ha":658,"x_min":39,"x_max":619,"o":"m 329 -11 q 549 73 478 -11 q 619 319 619 157 l 619 1194 l 387 1194 l 387 329 q 384 271 387 299 q 369 226 381 243 q 329 209 357 209 q 290 227 302 209 q 274 272 277 244 q 271 329 271 299 l 271 1194 l 39 1194 l 39 319 q 109 73 39 157 q 329 -11 180 -11 m 372 -283 l 614 -283 l 614 -81 l 372 -81 l 372 -283 m 43 -283 l 286 -283 l 286 -81 l 43 -81 l 43 -283 "},"Ǚ":{"ha":658,"x_min":39,"x_max":619,"o":"m 229 1495 l 429 1495 l 589 1668 l 396 1668 l 329 1575 l 262 1668 l 68 1668 l 229 1495 m 372 1259 l 614 1259 l 614 1428 l 372 1428 l 372 1259 m 43 1259 l 286 1259 l 286 1428 l 43 1428 l 43 1259 m 329 -11 q 549 73 478 -11 q 619 319 619 157 l 619 1194 l 387 1194 l 387 329 q 384 271 387 299 q 369 226 381 243 q 329 209 357 209 q 290 227 302 209 q 274 272 277 244 q 271 329 271 299 l 271 1194 l 39 1194 l 39 319 q 109 73 39 157 q 329 -11 180 -11 "},"Ǜ":{"ha":658,"x_min":39,"x_max":619,"o":"m 329 -11 q 549 73 478 -11 q 619 319 619 157 l 619 1194 l 387 1194 l 387 329 q 384 271 387 299 q 369 226 381 243 q 329 209 357 209 q 290 227 302 209 q 274 272 277 244 q 271 329 271 299 l 271 1194 l 39 1194 l 39 319 q 109 73 39 157 q 329 -11 180 -11 m 372 1261 l 614 1261 l 614 1429 l 372 1429 l 372 1261 m 43 1261 l 286 1261 l 286 1429 l 43 1429 l 43 1261 m 490 1488 l 490 1619 l 168 1733 l 168 1538 l 490 1488 "},"Ǖ":{"ha":658,"x_min":39,"x_max":619,"o":"m 329 -11 q 549 73 478 -11 q 619 319 619 157 l 619 1194 l 387 1194 l 387 329 q 384 271 387 299 q 369 226 381 243 q 329 209 357 209 q 290 227 302 209 q 274 272 277 244 q 271 329 271 299 l 271 1194 l 39 1194 l 39 319 q 109 73 39 157 q 329 -11 180 -11 m 372 1261 l 614 1261 l 614 1429 l 372 1429 l 372 1261 m 43 1261 l 286 1261 l 286 1429 l 43 1429 l 43 1261 m 109 1503 l 549 1503 l 549 1607 l 109 1607 l 109 1503 "},"Ụ":{"ha":658,"x_min":39,"x_max":619,"o":"m 329 -11 q 549 73 478 -11 q 619 319 619 157 l 619 1194 l 387 1194 l 387 329 q 384 271 387 299 q 369 226 381 243 q 329 209 357 209 q 290 227 302 209 q 274 272 277 244 q 271 329 271 299 l 271 1194 l 39 1194 l 39 319 q 109 73 39 157 q 329 -11 180 -11 m 208 -283 l 450 -283 l 450 -81 l 208 -81 l 208 -283 "},"Ù":{"ha":658,"x_min":39,"x_max":619,"o":"m 329 -11 q 549 73 478 -11 q 619 319 619 157 l 619 1194 l 387 1194 l 387 329 q 384 271 387 299 q 369 226 381 243 q 329 209 357 209 q 290 227 302 209 q 274 272 277 244 q 271 329 271 299 l 271 1194 l 39 1194 l 39 319 q 109 73 39 157 q 329 -11 180 -11 m 490 1230 l 490 1381 l 168 1529 l 168 1293 l 490 1230 "},"Ủ":{"ha":658,"x_min":39,"x_max":619,"o":"m 329 -11 q 549 73 478 -11 q 619 319 619 157 l 619 1194 l 387 1194 l 387 329 q 384 271 387 299 q 369 226 381 243 q 329 209 357 209 q 290 227 302 209 q 274 272 277 244 q 271 329 271 299 l 271 1194 l 39 1194 l 39 319 q 109 73 39 157 q 329 -11 180 -11 m 309 1246 q 441 1319 388 1270 q 494 1455 494 1369 q 446 1574 494 1531 q 313 1616 398 1616 q 189 1594 249 1616 l 189 1472 q 250 1482 218 1482 q 319 1418 319 1482 q 296 1364 319 1384 q 237 1330 274 1343 l 309 1246 "},"Ư":{"ha":734,"x_min":39,"x_max":741,"o":"m 329 -11 q 549 73 478 -11 q 619 319 619 157 l 619 1069 q 707 1143 673 1092 q 741 1284 741 1195 l 741 1294 l 553 1294 l 553 1278 q 475 1194 553 1194 l 387 1194 l 387 329 q 384 271 387 299 q 369 226 381 243 q 329 209 357 209 q 290 227 302 209 q 274 272 277 244 q 271 329 271 299 l 271 1194 l 39 1194 l 39 319 q 109 73 39 157 q 329 -11 180 -11 "},"Ứ":{"ha":734,"x_min":39,"x_max":741,"o":"m 329 -11 q 549 73 478 -11 q 619 319 619 157 l 619 1069 q 707 1143 673 1092 q 741 1284 741 1195 l 741 1294 l 553 1294 l 553 1278 q 475 1194 553 1194 l 387 1194 l 387 329 q 384 271 387 299 q 369 226 381 243 q 329 209 357 209 q 290 227 302 209 q 274 272 277 244 q 271 329 271 299 l 271 1194 l 39 1194 l 39 319 q 109 73 39 157 q 329 -11 180 -11 m 168 1219 l 490 1269 l 490 1463 l 168 1350 l 168 1219 "},"Ự":{"ha":734,"x_min":39,"x_max":741,"o":"m 329 -11 q 549 73 478 -11 q 619 319 619 157 l 619 1069 q 707 1143 673 1092 q 741 1284 741 1195 l 741 1294 l 553 1294 l 553 1278 q 475 1194 553 1194 l 387 1194 l 387 329 q 384 271 387 299 q 369 226 381 243 q 329 209 357 209 q 290 227 302 209 q 274 272 277 244 q 271 329 271 299 l 271 1194 l 39 1194 l 39 319 q 109 73 39 157 q 329 -11 180 -11 m 208 -283 l 450 -283 l 450 -81 l 208 -81 l 208 -283 "},"Ừ":{"ha":734,"x_min":39,"x_max":741,"o":"m 329 -11 q 549 73 478 -11 q 619 319 619 157 l 619 1069 q 707 1143 673 1092 q 741 1284 741 1195 l 741 1294 l 553 1294 l 553 1278 q 475 1194 553 1194 l 387 1194 l 387 329 q 384 271 387 299 q 369 226 381 243 q 329 209 357 209 q 290 227 302 209 q 274 272 277 244 q 271 329 271 299 l 271 1194 l 39 1194 l 39 319 q 109 73 39 157 q 329 -11 180 -11 m 490 1219 l 490 1350 l 168 1463 l 168 1269 l 490 1219 "},"Ử":{"ha":734,"x_min":39,"x_max":741,"o":"m 329 -11 q 549 73 478 -11 q 619 319 619 157 l 619 1069 q 707 1143 673 1092 q 741 1284 741 1195 l 741 1294 l 553 1294 l 553 1278 q 475 1194 553 1194 l 387 1194 l 387 329 q 384 271 387 299 q 369 226 381 243 q 329 209 357 209 q 290 227 302 209 q 274 272 277 244 q 271 329 271 299 l 271 1194 l 39 1194 l 39 319 q 109 73 39 157 q 329 -11 180 -11 m 309 1246 q 441 1319 388 1270 q 494 1455 494 1369 q 446 1574 494 1531 q 313 1616 398 1616 q 189 1594 249 1616 l 189 1472 q 250 1482 218 1482 q 319 1418 319 1482 q 296 1364 319 1384 q 237 1330 274 1343 l 309 1246 "},"Ữ":{"ha":734,"x_min":39,"x_max":741,"o":"m 407 1249 q 489 1272 458 1249 q 539 1332 519 1295 q 575 1412 559 1370 l 463 1449 q 433 1409 449 1421 q 399 1398 418 1398 q 350 1412 374 1398 q 295 1440 326 1426 q 216 1455 264 1455 q 137 1436 168 1455 q 86 1385 106 1417 q 49 1317 66 1354 l 149 1264 q 178 1300 163 1290 q 212 1310 194 1310 q 265 1295 239 1310 q 323 1264 290 1280 q 407 1249 357 1249 m 329 -11 q 549 73 478 -11 q 619 319 619 157 l 619 1069 q 707 1143 673 1092 q 741 1284 741 1195 l 741 1294 l 553 1294 l 553 1278 q 475 1194 553 1194 l 387 1194 l 387 329 q 384 271 387 299 q 369 226 381 243 q 329 209 357 209 q 290 227 302 209 q 274 272 277 244 q 271 329 271 299 l 271 1194 l 39 1194 l 39 319 q 109 73 39 157 q 329 -11 180 -11 "},"Ű":{"ha":658,"x_min":39,"x_max":680,"o":"m 329 -11 q 549 73 478 -11 q 619 319 619 157 l 619 1194 l 387 1194 l 387 329 q 384 271 387 299 q 369 226 381 243 q 329 209 357 209 q 290 227 302 209 q 274 272 277 244 q 271 329 271 299 l 271 1194 l 39 1194 l 39 319 q 109 73 39 157 q 329 -11 180 -11 m 484 1265 l 680 1556 l 522 1630 l 372 1305 l 484 1265 m 279 1265 l 448 1556 l 292 1630 l 167 1305 l 279 1265 "},"Ȗ":{"ha":658,"x_min":39,"x_max":619,"o":"m 329 -11 q 549 73 478 -11 q 619 319 619 157 l 619 1194 l 387 1194 l 387 329 q 384 271 387 299 q 369 226 381 243 q 329 209 357 209 q 290 227 302 209 q 274 272 277 244 q 271 329 271 299 l 271 1194 l 39 1194 l 39 319 q 109 73 39 157 q 329 -11 180 -11 m 77 1267 l 237 1267 q 263 1335 237 1313 q 329 1358 290 1358 q 395 1335 369 1358 q 420 1267 420 1313 l 581 1267 q 582 1280 581 1274 q 582 1290 582 1286 q 516 1454 582 1403 q 328 1506 450 1506 q 142 1455 209 1506 q 75 1295 75 1405 q 77 1267 75 1280 "},"Ū":{"ha":658,"x_min":39,"x_max":619,"o":"m 329 -11 q 549 73 478 -11 q 619 319 619 157 l 619 1194 l 387 1194 l 387 329 q 384 271 387 299 q 369 226 381 243 q 329 209 357 209 q 290 227 302 209 q 274 272 277 244 q 271 329 271 299 l 271 1194 l 39 1194 l 39 319 q 109 73 39 157 q 329 -11 180 -11 m 106 1274 l 547 1274 l 547 1378 l 106 1378 l 106 1274 "},"Ṻ":{"ha":658,"x_min":39,"x_max":619,"o":"m 329 -11 q 549 73 478 -11 q 619 319 619 157 l 619 1194 l 387 1194 l 387 329 q 384 271 387 299 q 369 226 381 243 q 329 209 357 209 q 290 227 302 209 q 274 272 277 244 q 271 329 271 299 l 271 1194 l 39 1194 l 39 319 q 109 73 39 157 q 329 -11 180 -11 m 109 1274 l 549 1274 l 549 1377 l 109 1377 l 109 1274 m 372 1444 l 614 1444 l 614 1612 l 372 1612 l 372 1444 m 43 1444 l 286 1444 l 286 1612 l 43 1612 l 43 1444 "},"Ų":{"ha":658,"x_min":39,"x_max":619,"o":"m 329 -11 q 549 73 478 -11 q 619 319 619 157 l 619 1194 l 387 1194 l 387 329 q 384 271 387 299 q 369 226 381 243 q 329 209 357 209 q 290 227 302 209 q 274 272 277 244 q 271 329 271 299 l 271 1194 l 39 1194 l 39 319 q 109 73 39 157 q 329 -11 180 -11 m 334 -428 q 468 -401 404 -428 l 468 -250 q 389 -265 422 -265 q 311 -189 311 -265 q 347 -86 311 -133 q 420 0 382 -39 l 277 0 q 98 -224 98 -100 q 130 -333 98 -288 q 216 -404 162 -379 q 334 -428 269 -428 "},"Ʊ":{"ha":673,"x_min":32,"x_max":641,"o":"m 336 -11 q 551 61 478 -11 q 624 273 624 134 l 624 650 q 558 964 624 864 l 641 964 l 641 1194 l 359 1194 l 359 964 q 381 933 374 952 q 391 870 389 914 q 394 737 394 825 l 394 258 q 383 198 394 222 q 336 174 372 174 q 290 198 301 174 q 279 258 279 222 l 279 737 q 281 870 279 825 q 292 933 284 914 q 314 964 299 952 l 314 1194 l 32 1194 l 32 964 l 115 964 q 49 650 49 864 l 49 273 q 122 61 49 134 q 336 -11 195 -11 "},"Ů":{"ha":658,"x_min":39,"x_max":619,"o":"m 329 -11 q 549 73 478 -11 q 619 319 619 157 l 619 1194 l 387 1194 l 387 329 q 384 271 387 299 q 369 226 381 243 q 329 209 357 209 q 290 227 302 209 q 274 272 277 244 q 271 329 271 299 l 271 1194 l 39 1194 l 39 319 q 109 73 39 157 q 329 -11 180 -11 m 328 1248 q 503 1309 437 1248 q 568 1477 568 1370 q 503 1645 568 1584 q 328 1706 437 1706 q 154 1645 220 1706 q 89 1477 89 1584 q 154 1309 89 1369 q 328 1248 220 1248 m 329 1371 q 258 1402 283 1371 q 233 1477 233 1433 q 258 1552 233 1521 q 329 1584 283 1584 q 400 1552 374 1584 q 425 1477 425 1521 q 400 1402 425 1433 q 329 1371 374 1371 "},"Ũ":{"ha":658,"x_min":39,"x_max":619,"o":"m 329 -11 q 549 73 478 -11 q 619 319 619 157 l 619 1194 l 387 1194 l 387 329 q 384 271 387 299 q 369 226 381 243 q 329 209 357 209 q 290 227 302 209 q 274 272 277 244 q 271 329 271 299 l 271 1194 l 39 1194 l 39 319 q 109 73 39 157 q 329 -11 180 -11 m 441 1269 q 523 1294 492 1269 q 573 1360 553 1319 q 609 1446 593 1400 l 496 1482 q 467 1443 483 1455 q 433 1432 452 1432 q 375 1446 407 1432 q 303 1474 342 1460 q 216 1489 264 1489 q 137 1468 168 1489 q 86 1413 106 1447 q 49 1337 66 1379 l 149 1284 q 178 1320 163 1310 q 212 1331 194 1331 q 273 1315 239 1331 q 349 1284 307 1300 q 441 1269 391 1269 "},"Ṹ":{"ha":658,"x_min":39,"x_max":619,"o":"m 329 -11 q 549 73 478 -11 q 619 319 619 157 l 619 1194 l 387 1194 l 387 329 q 384 271 387 299 q 369 226 381 243 q 329 209 357 209 q 290 227 302 209 q 274 272 277 244 q 271 329 271 299 l 271 1194 l 39 1194 l 39 319 q 109 73 39 157 q 329 -11 180 -11 m 441 1249 q 523 1272 492 1249 q 573 1332 553 1295 q 609 1412 593 1370 l 496 1449 q 467 1409 483 1421 q 433 1398 452 1398 q 376 1412 408 1398 q 304 1440 344 1426 q 216 1455 264 1455 q 137 1436 168 1455 q 86 1385 106 1417 q 49 1317 66 1354 l 149 1264 q 178 1300 163 1290 q 212 1310 194 1310 q 273 1295 239 1310 q 349 1264 307 1280 q 441 1249 391 1249 m 168 1495 l 490 1545 l 490 1740 l 168 1626 l 168 1495 "},"Ṵ":{"ha":658,"x_min":39,"x_max":619,"o":"m 329 -11 q 549 73 478 -11 q 619 319 619 157 l 619 1194 l 387 1194 l 387 329 q 384 271 387 299 q 369 226 381 243 q 329 209 357 209 q 290 227 302 209 q 274 272 277 244 q 271 329 271 299 l 271 1194 l 39 1194 l 39 319 q 109 73 39 157 q 329 -11 180 -11 m 441 -295 q 523 -270 492 -295 q 573 -204 553 -245 q 609 -118 593 -163 l 496 -81 q 467 -121 483 -109 q 433 -132 452 -132 q 375 -118 407 -132 q 303 -90 342 -104 q 216 -75 264 -75 q 137 -96 168 -75 q 86 -151 106 -117 q 49 -227 66 -185 l 149 -279 q 178 -243 163 -254 q 212 -233 194 -233 q 273 -249 239 -233 q 349 -279 307 -264 q 441 -295 391 -295 "},"V":{"ha":652,"x_min":16,"x_max":635,"o":"m 163 0 l 488 0 l 635 1194 l 408 1194 l 330 382 l 243 1194 l 16 1194 l 163 0 "},"Ṿ":{"ha":652,"x_min":16,"x_max":635,"o":"m 163 0 l 488 0 l 635 1194 l 408 1194 l 330 382 l 243 1194 l 16 1194 l 163 0 m 205 -283 l 448 -283 l 448 -81 l 205 -81 l 205 -283 "},"Ʋ":{"ha":618,"x_min":16,"x_max":602,"o":"m 162 0 l 486 0 l 596 886 q 602 964 602 930 q 537 1141 602 1087 q 340 1195 473 1195 l 340 991 q 383 943 383 991 q 383 935 383 939 q 382 927 383 931 l 329 380 l 242 1186 l 16 1186 l 162 0 "},"Ṽ":{"ha":652,"x_min":16,"x_max":635,"o":"m 163 0 l 488 0 l 635 1194 l 408 1194 l 330 382 l 243 1194 l 16 1194 l 163 0 m 438 1269 q 520 1294 489 1269 q 570 1360 551 1319 q 606 1446 590 1400 l 494 1482 q 465 1443 480 1455 q 431 1432 449 1432 q 373 1446 404 1432 q 302 1474 341 1460 q 214 1489 264 1489 q 134 1468 165 1489 q 83 1413 103 1447 q 46 1337 63 1379 l 146 1284 q 176 1320 160 1310 q 209 1331 191 1331 q 273 1315 240 1331 q 346 1284 306 1300 q 438 1269 386 1269 "},"Ʌ":{"ha":652,"x_min":16,"x_max":636,"o":"m 489 1194 l 163 1194 l 16 -1 l 243 -1 l 321 812 l 409 -1 l 636 -1 l 489 1194 "},"W":{"ha":989,"x_min":18,"x_max":970,"o":"m 146 0 l 437 0 l 494 574 l 554 0 l 840 0 l 970 1194 l 734 1194 l 671 440 l 607 1194 l 385 1194 l 317 440 l 252 1194 l 18 1194 l 146 0 "},"Ẃ":{"ha":989,"x_min":18,"x_max":970,"o":"m 146 0 l 437 0 l 494 574 l 554 0 l 840 0 l 970 1194 l 734 1194 l 671 440 l 607 1194 l 385 1194 l 317 440 l 252 1194 l 18 1194 l 146 0 m 342 1230 l 665 1293 l 665 1529 l 342 1381 l 342 1230 "},"Ŵ":{"ha":989,"x_min":18,"x_max":970,"o":"m 146 0 l 437 0 l 494 574 l 554 0 l 840 0 l 970 1194 l 734 1194 l 671 440 l 607 1194 l 385 1194 l 317 440 l 252 1194 l 18 1194 l 146 0 m 202 1255 l 446 1255 l 504 1449 l 562 1255 l 806 1255 l 642 1529 l 366 1529 l 202 1255 "},"Ẅ":{"ha":989,"x_min":18,"x_max":970,"o":"m 146 0 l 437 0 l 494 574 l 554 0 l 840 0 l 970 1194 l 734 1194 l 671 440 l 607 1194 l 385 1194 l 317 440 l 252 1194 l 18 1194 l 146 0 m 542 1261 l 785 1261 l 785 1463 l 542 1463 l 542 1261 m 214 1261 l 456 1261 l 456 1463 l 214 1463 l 214 1261 "},"Ẇ":{"ha":989,"x_min":18,"x_max":970,"o":"m 146 0 l 437 0 l 494 574 l 554 0 l 840 0 l 970 1194 l 734 1194 l 671 440 l 607 1194 l 385 1194 l 317 440 l 252 1194 l 18 1194 l 146 0 m 382 1256 l 625 1256 l 625 1458 l 382 1458 l 382 1256 "},"Ẉ":{"ha":989,"x_min":18,"x_max":970,"o":"m 146 0 l 437 0 l 494 574 l 554 0 l 840 0 l 970 1194 l 734 1194 l 671 440 l 607 1194 l 385 1194 l 317 440 l 252 1194 l 18 1194 l 146 0 m 373 -283 l 616 -283 l 616 -81 l 373 -81 l 373 -283 "},"Ẁ":{"ha":989,"x_min":18,"x_max":970,"o":"m 146 0 l 437 0 l 494 574 l 554 0 l 840 0 l 970 1194 l 734 1194 l 671 440 l 607 1194 l 385 1194 l 317 440 l 252 1194 l 18 1194 l 146 0 m 665 1230 l 665 1381 l 342 1529 l 342 1293 l 665 1230 "},"Ⱳ":{"ha":1014,"x_min":18,"x_max":1021,"o":"m 146 0 l 438 0 l 495 574 l 555 0 l 842 0 l 939 892 q 959 972 945 947 q 1021 998 973 998 l 1021 1204 q 797 1146 867 1204 q 716 961 727 1088 l 673 439 l 608 1194 l 385 1194 l 318 439 l 252 1194 l 18 1194 l 146 0 "},"X":{"ha":672,"x_min":18,"x_max":654,"o":"m 18 0 l 260 0 l 338 467 l 413 0 l 654 0 l 527 633 l 629 1194 l 395 1194 l 340 784 l 278 1194 l 45 1194 l 146 633 l 18 0 "},"Ẍ":{"ha":672,"x_min":18,"x_max":654,"o":"m 18 0 l 260 0 l 338 467 l 413 0 l 654 0 l 527 633 l 629 1194 l 395 1194 l 340 784 l 278 1194 l 45 1194 l 146 633 l 18 0 m 374 1261 l 617 1261 l 617 1463 l 374 1463 l 374 1261 m 46 1261 l 289 1261 l 289 1463 l 46 1463 l 46 1261 "},"Ẋ":{"ha":672,"x_min":18,"x_max":654,"o":"m 18 0 l 260 0 l 338 467 l 413 0 l 654 0 l 527 633 l 629 1194 l 395 1194 l 340 784 l 278 1194 l 45 1194 l 146 633 l 18 0 m 215 1256 l 458 1256 l 458 1458 l 215 1458 l 215 1256 "},"Y":{"ha":620,"x_min":7,"x_max":612,"o":"m 197 0 l 422 0 l 422 393 l 612 1194 l 376 1194 l 310 789 l 243 1194 l 7 1194 l 197 393 l 197 0 "},"Ý":{"ha":620,"x_min":7,"x_max":612,"o":"m 197 0 l 422 0 l 422 393 l 612 1194 l 376 1194 l 310 789 l 243 1194 l 7 1194 l 197 393 l 197 0 m 148 1230 l 470 1293 l 470 1529 l 148 1381 l 148 1230 "},"Ŷ":{"ha":620,"x_min":7,"x_max":612,"o":"m 197 0 l 422 0 l 422 393 l 612 1194 l 376 1194 l 310 789 l 243 1194 l 7 1194 l 197 393 l 197 0 m 7 1255 l 251 1255 l 309 1449 l 368 1255 l 611 1255 l 448 1529 l 171 1529 l 7 1255 "},"Ÿ":{"ha":620,"x_min":7,"x_max":612,"o":"m 197 0 l 422 0 l 422 393 l 612 1194 l 376 1194 l 310 789 l 243 1194 l 7 1194 l 197 393 l 197 0 m 347 1261 l 590 1261 l 590 1463 l 347 1463 l 347 1261 m 19 1261 l 262 1261 l 262 1463 l 19 1463 l 19 1261 "},"Ẏ":{"ha":620,"x_min":7,"x_max":612,"o":"m 197 0 l 422 0 l 422 393 l 612 1194 l 376 1194 l 310 789 l 243 1194 l 7 1194 l 197 393 l 197 0 m 188 1256 l 431 1256 l 431 1431 l 188 1431 l 188 1256 "},"Ỵ":{"ha":620,"x_min":7,"x_max":612,"o":"m 197 0 l 422 0 l 422 393 l 612 1194 l 376 1194 l 310 789 l 243 1194 l 7 1194 l 197 393 l 197 0 m 189 -283 l 431 -283 l 431 -81 l 189 -81 l 189 -283 "},"Ỳ":{"ha":620,"x_min":7,"x_max":612,"o":"m 197 0 l 422 0 l 422 393 l 612 1194 l 376 1194 l 310 789 l 243 1194 l 7 1194 l 197 393 l 197 0 m 470 1230 l 470 1381 l 148 1529 l 148 1293 l 470 1230 "},"Ƴ":{"ha":633,"x_min":7,"x_max":640,"o":"m 196 0 l 422 0 l 422 399 l 541 895 q 574 974 555 949 q 640 999 593 999 l 640 1203 q 478 1178 539 1203 q 385 1100 416 1153 q 338 963 353 1046 l 310 790 l 243 1194 l 7 1194 l 196 399 l 196 0 "},"Ỷ":{"ha":620,"x_min":7,"x_max":612,"o":"m 197 0 l 422 0 l 422 393 l 612 1194 l 376 1194 l 310 789 l 243 1194 l 7 1194 l 197 393 l 197 0 m 290 1246 q 421 1319 368 1270 q 474 1455 474 1369 q 426 1574 474 1531 q 294 1616 378 1616 q 170 1594 229 1616 l 170 1472 q 231 1482 199 1482 q 299 1418 299 1482 q 277 1364 299 1384 q 218 1330 254 1343 l 290 1246 "},"Ȳ":{"ha":620,"x_min":7,"x_max":612,"o":"m 197 0 l 422 0 l 422 393 l 612 1194 l 376 1194 l 310 789 l 243 1194 l 7 1194 l 197 393 l 197 0 m 90 1274 l 530 1274 l 530 1378 l 90 1378 l 90 1274 "},"Ɏ":{"ha":619,"x_min":7,"x_max":612,"o":"m 197 0 l 422 0 l 422 393 l 504 736 l 608 736 l 608 886 l 539 886 l 612 1194 l 376 1194 l 310 789 l 243 1194 l 7 1194 l 80 886 l 11 886 l 11 736 l 115 736 l 197 393 l 197 0 "},"Ỹ":{"ha":620,"x_min":7,"x_max":612,"o":"m 197 0 l 422 0 l 422 393 l 612 1194 l 376 1194 l 310 789 l 243 1194 l 7 1194 l 197 393 l 197 0 m 421 1269 q 503 1294 472 1269 q 553 1360 534 1319 q 589 1446 573 1400 l 477 1482 q 448 1443 463 1455 q 414 1432 432 1432 q 355 1446 387 1432 q 284 1474 323 1460 q 197 1489 245 1489 q 117 1468 149 1489 q 66 1413 86 1447 q 29 1337 46 1379 l 130 1284 q 159 1320 143 1310 q 192 1331 174 1331 q 254 1315 220 1331 q 329 1284 288 1300 q 421 1269 371 1269 "},"Z":{"ha":570,"x_min":22,"x_max":547,"o":"m 22 0 l 535 0 l 535 220 l 269 220 l 547 985 l 547 1194 l 48 1194 l 48 974 l 295 974 l 22 217 l 22 0 "},"Ź":{"ha":570,"x_min":22,"x_max":547,"o":"m 22 0 l 535 0 l 535 220 l 269 220 l 547 985 l 547 1194 l 48 1194 l 48 974 l 295 974 l 22 217 l 22 0 m 136 1230 l 458 1293 l 458 1529 l 136 1381 l 136 1230 "},"Ž":{"ha":570,"x_min":-4,"x_max":600,"o":"m 22 0 l 535 0 l 535 220 l 269 220 l 547 985 l 547 1194 l 48 1194 l 48 974 l 295 974 l 22 217 l 22 0 m 159 1255 l 436 1255 l 600 1529 l 356 1529 l 298 1335 l 239 1529 l -4 1529 l 159 1255 "},"Ẑ":{"ha":570,"x_min":-4,"x_max":600,"o":"m 22 0 l 535 0 l 535 220 l 269 220 l 547 985 l 547 1194 l 48 1194 l 48 974 l 295 974 l 22 217 l 22 0 m -4 1255 l 239 1255 l 298 1449 l 356 1255 l 600 1255 l 436 1529 l 159 1529 l -4 1255 "},"Ż":{"ha":570,"x_min":22,"x_max":547,"o":"m 22 0 l 535 0 l 535 220 l 269 220 l 547 985 l 547 1194 l 48 1194 l 48 974 l 295 974 l 22 217 l 22 0 m 176 1256 l 419 1256 l 419 1458 l 176 1458 l 176 1256 "},"Ẓ":{"ha":570,"x_min":22,"x_max":547,"o":"m 22 0 l 535 0 l 535 220 l 269 220 l 547 985 l 547 1194 l 48 1194 l 48 974 l 295 974 l 22 217 l 22 0 m 163 -283 l 406 -283 l 406 -81 l 163 -81 l 163 -283 "},"Ẕ":{"ha":570,"x_min":22,"x_max":547,"o":"m 22 0 l 535 0 l 535 220 l 269 220 l 547 985 l 547 1194 l 48 1194 l 48 974 l 295 974 l 22 217 l 22 0 m 64 -184 l 505 -184 l 505 -81 l 64 -81 l 64 -184 "},"Ƶ":{"ha":570,"x_min":22,"x_max":547,"o":"m 22 0 l 535 0 l 535 220 l 269 220 l 381 530 l 512 530 l 512 688 l 439 688 l 547 985 l 547 1194 l 48 1194 l 48 974 l 295 974 l 192 688 l 64 688 l 64 530 l 135 530 l 22 217 l 22 0 "},"a":{"ha":671,"x_min":28,"x_max":627,"o":"m 234 -11 q 327 23 286 -11 q 385 121 368 57 l 385 0 l 627 0 l 627 775 q 589 914 627 858 q 487 999 551 970 q 341 1028 422 1028 q 114 965 186 1028 q 43 749 43 901 q 43 730 43 739 q 43 716 43 722 l 279 716 l 279 777 q 328 844 279 844 q 382 762 382 844 l 382 657 l 231 606 q 109 541 153 579 q 46 444 64 503 q 28 292 28 385 q 44 136 28 205 q 105 28 60 68 q 234 -11 149 -11 m 330 178 q 275 268 275 178 l 275 399 q 303 489 275 458 q 381 541 331 520 l 381 257 q 370 203 381 228 q 330 178 359 178 "},"á":{"ha":671,"x_min":28,"x_max":627,"o":"m 234 -11 q 327 23 286 -11 q 385 121 368 57 l 385 0 l 627 0 l 627 775 q 589 914 627 858 q 487 999 551 970 q 341 1028 422 1028 q 114 965 186 1028 q 43 749 43 901 q 43 730 43 739 q 43 716 43 722 l 279 716 l 279 777 q 328 844 279 844 q 382 762 382 844 l 382 657 l 231 606 q 109 541 153 579 q 46 444 64 503 q 28 292 28 385 q 44 136 28 205 q 105 28 60 68 q 234 -11 149 -11 m 330 178 q 275 268 275 178 l 275 399 q 303 489 275 458 q 381 541 331 520 l 381 257 q 370 203 381 228 q 330 178 359 178 m 180 1064 l 502 1128 l 502 1363 l 180 1215 l 180 1064 "},"ă":{"ha":671,"x_min":28,"x_max":627,"o":"m 234 -11 q 327 23 286 -11 q 385 121 368 57 l 385 0 l 627 0 l 627 775 q 589 914 627 858 q 487 999 551 970 q 341 1028 422 1028 q 114 965 186 1028 q 43 749 43 901 q 43 730 43 739 q 43 716 43 722 l 279 716 l 279 777 q 328 844 279 844 q 382 762 382 844 l 382 657 l 231 606 q 109 541 153 579 q 46 444 64 503 q 28 292 28 385 q 44 136 28 205 q 105 28 60 68 q 234 -11 149 -11 m 330 178 q 275 268 275 178 l 275 399 q 303 489 275 458 q 381 541 331 520 l 381 257 q 370 203 381 228 q 330 178 359 178 m 343 1090 q 538 1142 465 1090 q 611 1306 611 1193 q 611 1316 611 1310 q 610 1330 610 1323 l 436 1330 q 416 1271 436 1291 q 345 1251 397 1251 q 273 1271 292 1251 q 253 1330 253 1291 l 79 1330 q 77 1301 77 1316 q 151 1141 77 1191 q 343 1090 224 1090 "},"ắ":{"ha":671,"x_min":28,"x_max":627,"o":"m 234 -11 q 327 23 286 -11 q 385 121 368 57 l 385 0 l 627 0 l 627 775 q 589 914 627 858 q 487 999 551 970 q 341 1028 422 1028 q 114 965 186 1028 q 43 749 43 901 q 43 730 43 739 q 43 716 43 722 l 279 716 l 279 777 q 328 844 279 844 q 382 762 382 844 l 382 657 l 231 606 q 109 541 153 579 q 46 444 64 503 q 28 292 28 385 q 44 136 28 205 q 105 28 60 68 q 234 -11 149 -11 m 330 178 q 275 268 275 178 l 275 399 q 303 489 275 458 q 381 541 331 520 l 381 257 q 370 203 381 228 q 330 178 359 178 m 340 1080 q 535 1126 463 1080 q 608 1275 608 1173 q 607 1299 608 1282 l 433 1299 q 414 1235 433 1257 q 342 1213 394 1213 q 270 1235 290 1213 q 250 1299 250 1257 l 77 1299 q 75 1270 75 1284 q 148 1125 75 1171 q 340 1080 222 1080 m 181 1323 l 503 1373 l 503 1568 l 181 1454 l 181 1323 "},"ặ":{"ha":671,"x_min":28,"x_max":627,"o":"m 234 -11 q 327 23 286 -11 q 385 121 368 57 l 385 0 l 627 0 l 627 775 q 589 914 627 858 q 487 999 551 970 q 341 1028 422 1028 q 114 965 186 1028 q 43 749 43 901 q 43 730 43 739 q 43 716 43 722 l 279 716 l 279 777 q 328 844 279 844 q 382 762 382 844 l 382 657 l 231 606 q 109 541 153 579 q 46 444 64 503 q 28 292 28 385 q 44 136 28 205 q 105 28 60 68 q 234 -11 149 -11 m 330 178 q 275 268 275 178 l 275 399 q 303 489 275 458 q 381 541 331 520 l 381 257 q 370 203 381 228 q 330 178 359 178 m 214 -283 l 456 -283 l 456 -81 l 214 -81 l 214 -283 m 343 1090 q 538 1142 465 1090 q 611 1306 611 1193 q 611 1316 611 1310 q 610 1330 610 1323 l 436 1330 q 416 1271 436 1291 q 345 1251 397 1251 q 273 1271 292 1251 q 253 1330 253 1291 l 79 1330 q 77 1301 77 1316 q 151 1141 77 1191 q 343 1090 224 1090 "},"ằ":{"ha":671,"x_min":28,"x_max":627,"o":"m 234 -11 q 327 23 286 -11 q 385 121 368 57 l 385 0 l 627 0 l 627 775 q 589 914 627 858 q 487 999 551 970 q 341 1028 422 1028 q 114 965 186 1028 q 43 749 43 901 q 43 730 43 739 q 43 716 43 722 l 279 716 l 279 777 q 328 844 279 844 q 382 762 382 844 l 382 657 l 231 606 q 109 541 153 579 q 46 444 64 503 q 28 292 28 385 q 44 136 28 205 q 105 28 60 68 q 234 -11 149 -11 m 330 178 q 275 268 275 178 l 275 399 q 303 489 275 458 q 381 541 331 520 l 381 257 q 370 203 381 228 q 330 178 359 178 m 502 1331 l 502 1442 l 180 1569 l 180 1375 l 502 1331 m 341 1073 q 535 1119 463 1073 q 607 1268 607 1166 q 607 1278 607 1272 q 606 1292 606 1285 l 432 1292 q 413 1228 432 1250 q 341 1206 393 1206 q 270 1228 290 1206 q 250 1292 250 1250 l 77 1292 q 75 1263 75 1278 q 148 1118 75 1164 q 341 1073 222 1073 "},"ẳ":{"ha":671,"x_min":28,"x_max":627,"o":"m 234 -11 q 327 23 286 -11 q 385 121 368 57 l 385 0 l 627 0 l 627 775 q 589 914 627 858 q 487 999 551 970 q 341 1028 422 1028 q 114 965 186 1028 q 43 749 43 901 q 43 730 43 739 q 43 716 43 722 l 279 716 l 279 777 q 328 844 279 844 q 382 762 382 844 l 382 657 l 231 606 q 109 541 153 579 q 46 444 64 503 q 28 292 28 385 q 44 136 28 205 q 105 28 60 68 q 234 -11 149 -11 m 330 178 q 275 268 275 178 l 275 399 q 303 489 275 458 q 381 541 331 520 l 381 257 q 370 203 381 228 q 330 178 359 178 m 320 1297 q 452 1371 399 1322 q 505 1506 505 1420 q 457 1625 505 1583 q 324 1668 409 1668 q 200 1645 260 1668 l 200 1523 q 261 1534 229 1534 q 330 1470 330 1534 q 307 1415 330 1436 q 248 1381 285 1395 l 320 1297 m 341 1073 q 535 1119 463 1073 q 607 1268 607 1166 q 607 1278 607 1272 q 606 1292 606 1285 l 432 1292 q 413 1228 432 1250 q 341 1206 393 1206 q 270 1228 290 1206 q 250 1292 250 1250 l 77 1292 q 75 1263 75 1278 q 148 1118 75 1164 q 341 1073 222 1073 "},"ẵ":{"ha":671,"x_min":28,"x_max":627,"o":"m 234 -11 q 327 23 286 -11 q 385 121 368 57 l 385 0 l 627 0 l 627 775 q 589 914 627 858 q 487 999 551 970 q 341 1028 422 1028 q 114 965 186 1028 q 43 749 43 901 q 43 730 43 739 q 43 716 43 722 l 279 716 l 279 777 q 328 844 279 844 q 382 762 382 844 l 382 657 l 231 606 q 109 541 153 579 q 46 444 64 503 q 28 292 28 385 q 44 136 28 205 q 105 28 60 68 q 234 -11 149 -11 m 330 178 q 275 268 275 178 l 275 399 q 303 489 275 458 q 381 541 331 520 l 381 257 q 370 203 381 228 q 330 178 359 178 m 453 1335 q 535 1358 504 1335 q 585 1419 566 1381 q 621 1499 605 1457 l 509 1535 q 475 1496 492 1508 q 433 1485 458 1485 q 363 1500 397 1485 q 295 1531 330 1516 q 217 1546 259 1546 q 117 1504 149 1546 q 61 1404 85 1462 l 161 1351 q 197 1387 178 1377 q 237 1397 216 1397 q 307 1382 273 1397 q 377 1351 341 1367 q 453 1335 412 1335 m 341 1073 q 535 1119 463 1073 q 607 1268 607 1166 q 607 1278 607 1272 q 606 1292 606 1285 l 432 1292 q 413 1228 432 1250 q 341 1206 393 1206 q 270 1228 290 1206 q 250 1292 250 1250 l 77 1292 q 75 1263 75 1278 q 148 1118 75 1164 q 341 1073 222 1073 "},"ǎ":{"ha":671,"x_min":28,"x_max":643,"o":"m 234 -11 q 327 23 286 -11 q 385 121 368 57 l 385 0 l 627 0 l 627 775 q 589 914 627 858 q 487 999 551 970 q 341 1028 422 1028 q 114 965 186 1028 q 43 749 43 901 q 43 730 43 739 q 43 716 43 722 l 279 716 l 279 777 q 328 844 279 844 q 382 762 382 844 l 382 657 l 231 606 q 109 541 153 579 q 46 444 64 503 q 28 292 28 385 q 44 136 28 205 q 105 28 60 68 q 234 -11 149 -11 m 330 178 q 275 268 275 178 l 275 399 q 303 489 275 458 q 381 541 331 520 l 381 257 q 370 203 381 228 q 330 178 359 178 m 203 1090 l 479 1090 l 643 1363 l 399 1363 l 341 1170 l 283 1363 l 39 1363 l 203 1090 "},"â":{"ha":671,"x_min":28,"x_max":643,"o":"m 234 -11 q 327 23 286 -11 q 385 121 368 57 l 385 0 l 627 0 l 627 775 q 589 914 627 858 q 487 999 551 970 q 341 1028 422 1028 q 114 965 186 1028 q 43 749 43 901 q 43 730 43 739 q 43 716 43 722 l 279 716 l 279 777 q 328 844 279 844 q 382 762 382 844 l 382 657 l 231 606 q 109 541 153 579 q 46 444 64 503 q 28 292 28 385 q 44 136 28 205 q 105 28 60 68 q 234 -11 149 -11 m 330 178 q 275 268 275 178 l 275 399 q 303 489 275 458 q 381 541 331 520 l 381 257 q 370 203 381 228 q 330 178 359 178 m 39 1090 l 283 1090 l 341 1283 l 399 1090 l 643 1090 l 479 1363 l 203 1363 l 39 1090 "},"ấ":{"ha":671,"x_min":28,"x_max":873,"o":"m 234 -11 q 327 23 286 -11 q 385 121 368 57 l 385 0 l 627 0 l 627 775 q 589 914 627 858 q 487 999 551 970 q 341 1028 422 1028 q 114 965 186 1028 q 43 749 43 901 q 43 730 43 739 q 43 716 43 722 l 279 716 l 279 777 q 328 844 279 844 q 382 762 382 844 l 382 657 l 231 606 q 109 541 153 579 q 46 444 64 503 q 28 292 28 385 q 44 136 28 205 q 105 28 60 68 q 234 -11 149 -11 m 330 178 q 275 268 275 178 l 275 399 q 303 489 275 458 q 381 541 331 520 l 381 257 q 370 203 381 228 q 330 178 359 178 m 554 1242 l 712 1242 l 873 1442 l 665 1442 l 554 1242 m 39 1079 l 280 1079 l 341 1211 l 402 1079 l 643 1079 l 479 1284 l 203 1284 l 39 1079 "},"ậ":{"ha":671,"x_min":28,"x_max":643,"o":"m 234 -11 q 327 23 286 -11 q 385 121 368 57 l 385 0 l 627 0 l 627 775 q 589 914 627 858 q 487 999 551 970 q 341 1028 422 1028 q 114 965 186 1028 q 43 749 43 901 q 43 730 43 739 q 43 716 43 722 l 279 716 l 279 777 q 328 844 279 844 q 382 762 382 844 l 382 657 l 231 606 q 109 541 153 579 q 46 444 64 503 q 28 292 28 385 q 44 136 28 205 q 105 28 60 68 q 234 -11 149 -11 m 330 178 q 275 268 275 178 l 275 399 q 303 489 275 458 q 381 541 331 520 l 381 257 q 370 203 381 228 q 330 178 359 178 m 39 1090 l 283 1090 l 341 1283 l 399 1090 l 643 1090 l 479 1363 l 203 1363 l 39 1090 m 214 -283 l 456 -283 l 456 -81 l 214 -81 l 214 -283 "},"ầ":{"ha":671,"x_min":28,"x_max":751,"o":"m 234 -11 q 327 23 286 -11 q 385 121 368 57 l 385 0 l 627 0 l 627 775 q 589 914 627 858 q 487 999 551 970 q 341 1028 422 1028 q 114 965 186 1028 q 43 749 43 901 q 43 730 43 739 q 43 716 43 722 l 279 716 l 279 777 q 328 844 279 844 q 382 762 382 844 l 382 657 l 231 606 q 109 541 153 579 q 46 444 64 503 q 28 292 28 385 q 44 136 28 205 q 105 28 60 68 q 234 -11 149 -11 m 330 178 q 275 268 275 178 l 275 399 q 303 489 275 458 q 381 541 331 520 l 381 257 q 370 203 381 228 q 330 178 359 178 m 593 1242 l 751 1242 l 640 1442 l 432 1442 l 593 1242 m 39 1079 l 280 1079 l 341 1211 l 402 1079 l 643 1079 l 479 1284 l 203 1284 l 39 1079 "},"ẩ":{"ha":671,"x_min":28,"x_max":770,"o":"m 234 -11 q 327 23 286 -11 q 385 121 368 57 l 385 0 l 627 0 l 627 775 q 589 914 627 858 q 487 999 551 970 q 341 1028 422 1028 q 114 965 186 1028 q 43 749 43 901 q 43 730 43 739 q 43 716 43 722 l 279 716 l 279 777 q 328 844 279 844 q 382 762 382 844 l 382 657 l 231 606 q 109 541 153 579 q 46 444 64 503 q 28 292 28 385 q 44 136 28 205 q 105 28 60 68 q 234 -11 149 -11 m 330 178 q 275 268 275 178 l 275 399 q 303 489 275 458 q 381 541 331 520 l 381 257 q 370 203 381 228 q 330 178 359 178 m 586 1219 q 718 1292 665 1243 q 770 1428 770 1341 q 723 1547 770 1504 q 590 1589 675 1589 q 466 1567 526 1589 l 466 1444 q 527 1455 495 1455 q 595 1391 595 1455 q 573 1337 595 1357 q 514 1303 551 1316 l 586 1219 m 73 1079 l 280 1079 l 341 1211 l 402 1079 l 609 1079 l 459 1291 l 223 1291 l 73 1079 "},"ẫ":{"ha":671,"x_min":28,"x_max":643,"o":"m 234 -11 q 327 23 286 -11 q 385 121 368 57 l 385 0 l 627 0 l 627 775 q 589 914 627 858 q 487 999 551 970 q 341 1028 422 1028 q 114 965 186 1028 q 43 749 43 901 q 43 730 43 739 q 43 716 43 722 l 279 716 l 279 777 q 328 844 279 844 q 382 762 382 844 l 382 657 l 231 606 q 109 541 153 579 q 46 444 64 503 q 28 292 28 385 q 44 136 28 205 q 105 28 60 68 q 234 -11 149 -11 m 330 178 q 275 268 275 178 l 275 399 q 303 489 275 458 q 381 541 331 520 l 381 257 q 370 203 381 228 q 330 178 359 178 m 453 1335 q 535 1358 504 1335 q 585 1419 566 1381 q 621 1499 605 1457 l 509 1535 q 475 1496 492 1508 q 433 1485 458 1485 q 363 1500 397 1485 q 295 1531 330 1516 q 217 1546 259 1546 q 117 1504 149 1546 q 61 1404 85 1462 l 161 1351 q 197 1387 178 1377 q 237 1397 216 1397 q 307 1382 273 1397 q 377 1351 341 1367 q 453 1335 412 1335 m 39 1079 l 280 1079 l 341 1211 l 402 1079 l 643 1079 l 479 1284 l 203 1284 l 39 1079 "},"´":{"ha":441,"x_min":62,"x_max":384,"o":"m 62 1053 l 384 1117 l 384 1352 l 62 1204 l 62 1053 "},"́":{"ha":0,"x_min":-161,"x_max":161,"o":"m -161 1053 l 161 1117 l 161 1352 l -161 1204 l -161 1053 "},"᷇":{"ha":0,"x_min":-221,"x_max":220,"o":"m -221 1371 l 220 1371 l 220 1475 l -221 1475 l -221 1371 m -161 1053 l 161 1117 l 161 1352 l -161 1204 l -161 1053 "},"ȁ":{"ha":671,"x_min":12,"x_max":627,"o":"m 234 -11 q 327 23 286 -11 q 385 121 368 57 l 385 0 l 627 0 l 627 775 q 589 914 627 858 q 487 999 551 970 q 341 1028 422 1028 q 114 965 186 1028 q 43 749 43 901 q 43 730 43 739 q 43 716 43 722 l 279 716 l 279 777 q 328 844 279 844 q 382 762 382 844 l 382 657 l 231 606 q 109 541 153 579 q 46 444 64 503 q 28 292 28 385 q 44 136 28 205 q 105 28 60 68 q 234 -11 149 -11 m 330 178 q 275 268 275 178 l 275 399 q 303 489 275 458 q 381 541 331 520 l 381 257 q 370 203 381 228 q 330 178 359 178 m 208 1086 l 320 1126 l 170 1451 l 12 1377 l 208 1086 m 412 1086 l 525 1126 l 400 1451 l 244 1377 l 412 1086 "},"ä":{"ha":671,"x_min":28,"x_max":627,"o":"m 234 -11 q 327 23 286 -11 q 385 121 368 57 l 385 0 l 627 0 l 627 775 q 589 914 627 858 q 487 999 551 970 q 341 1028 422 1028 q 114 965 186 1028 q 43 749 43 901 q 43 730 43 739 q 43 716 43 722 l 279 716 l 279 777 q 328 844 279 844 q 382 762 382 844 l 382 657 l 231 606 q 109 541 153 579 q 46 444 64 503 q 28 292 28 385 q 44 136 28 205 q 105 28 60 68 q 234 -11 149 -11 m 330 178 q 275 268 275 178 l 275 399 q 303 489 275 458 q 381 541 331 520 l 381 257 q 370 203 381 228 q 330 178 359 178 m 379 1095 l 622 1095 l 622 1297 l 379 1297 l 379 1095 m 51 1095 l 294 1095 l 294 1297 l 51 1297 l 51 1095 "},"ǟ":{"ha":671,"x_min":28,"x_max":627,"o":"m 234 -11 q 327 23 286 -11 q 385 121 368 57 l 385 0 l 627 0 l 627 775 q 589 914 627 858 q 487 999 551 970 q 341 1028 422 1028 q 114 965 186 1028 q 43 749 43 901 q 43 730 43 739 q 43 716 43 722 l 279 716 l 279 777 q 328 844 279 844 q 382 762 382 844 l 382 657 l 231 606 q 109 541 153 579 q 46 444 64 503 q 28 292 28 385 q 44 136 28 205 q 105 28 60 68 q 234 -11 149 -11 m 330 178 q 275 268 275 178 l 275 399 q 303 489 275 458 q 381 541 331 520 l 381 257 q 370 203 381 228 q 330 178 359 178 m 384 1084 l 627 1084 l 627 1253 l 384 1253 l 384 1084 m 56 1084 l 298 1084 l 298 1253 l 56 1253 l 56 1084 m 121 1326 l 562 1326 l 562 1430 l 121 1430 l 121 1326 "},"ȧ":{"ha":671,"x_min":28,"x_max":627,"o":"m 234 -11 q 327 23 286 -11 q 385 121 368 57 l 385 0 l 627 0 l 627 775 q 589 914 627 858 q 487 999 551 970 q 341 1028 422 1028 q 114 965 186 1028 q 43 749 43 901 q 43 730 43 739 q 43 716 43 722 l 279 716 l 279 777 q 328 844 279 844 q 382 762 382 844 l 382 657 l 231 606 q 109 541 153 579 q 46 444 64 503 q 28 292 28 385 q 44 136 28 205 q 105 28 60 68 q 234 -11 149 -11 m 330 178 q 275 268 275 178 l 275 399 q 303 489 275 458 q 381 541 331 520 l 381 257 q 370 203 381 228 q 330 178 359 178 m 220 1090 l 463 1090 l 463 1293 l 220 1293 l 220 1090 "},"ạ":{"ha":671,"x_min":28,"x_max":627,"o":"m 234 -11 q 327 23 286 -11 q 385 121 368 57 l 385 0 l 627 0 l 627 775 q 589 914 627 858 q 487 999 551 970 q 341 1028 422 1028 q 114 965 186 1028 q 43 749 43 901 q 43 730 43 739 q 43 716 43 722 l 279 716 l 279 777 q 328 844 279 844 q 382 762 382 844 l 382 657 l 231 606 q 109 541 153 579 q 46 444 64 503 q 28 292 28 385 q 44 136 28 205 q 105 28 60 68 q 234 -11 149 -11 m 330 178 q 275 268 275 178 l 275 399 q 303 489 275 458 q 381 541 331 520 l 381 257 q 370 203 381 228 q 330 178 359 178 m 214 -283 l 456 -283 l 456 -81 l 214 -81 l 214 -283 "},"ǡ":{"ha":671,"x_min":28,"x_max":627,"o":"m 234 -11 q 327 23 286 -11 q 385 121 368 57 l 385 0 l 627 0 l 627 775 q 589 914 627 858 q 487 999 551 970 q 341 1028 422 1028 q 114 965 186 1028 q 43 749 43 901 q 43 730 43 739 q 43 716 43 722 l 279 716 l 279 777 q 328 844 279 844 q 382 762 382 844 l 382 657 l 231 606 q 109 541 153 579 q 46 444 64 503 q 28 292 28 385 q 44 136 28 205 q 105 28 60 68 q 234 -11 149 -11 m 330 178 q 275 268 275 178 l 275 399 q 303 489 275 458 q 381 541 331 520 l 381 257 q 370 203 381 228 q 330 178 359 178 m 220 1080 l 463 1080 l 463 1255 l 220 1255 l 220 1080 m 121 1314 l 562 1314 l 562 1418 l 121 1418 l 121 1314 "},"æ":{"ha":1015,"x_min":26,"x_max":981,"o":"m 304 -12 q 432 19 380 -12 q 507 100 484 51 q 580 20 528 52 q 703 -12 631 -12 q 872 29 812 -12 q 957 148 932 71 q 981 335 981 226 l 981 393 l 739 393 l 739 307 q 728 204 739 232 q 686 176 716 176 q 639 214 653 176 q 625 335 625 251 l 625 477 l 978 477 q 980 551 979 503 q 981 667 981 598 l 981 741 q 910 957 981 885 q 708 1029 840 1029 q 582 1009 629 1029 q 507 947 534 988 q 432 1009 479 988 q 299 1029 385 1029 q 107 965 174 1029 q 41 749 41 901 q 41 730 41 739 q 41 716 41 722 l 277 716 l 277 785 q 328 840 277 840 q 368 815 355 840 q 380 734 380 790 l 380 665 l 258 623 q 131 563 182 597 q 52 466 79 529 q 26 292 26 404 q 97 70 26 151 q 304 -12 169 -12 m 625 631 l 625 713 q 632 809 625 772 q 685 847 640 847 q 739 737 739 847 l 739 631 l 625 631 m 328 178 q 273 268 273 178 l 273 387 q 301 475 273 446 q 379 525 329 505 l 379 257 q 368 203 379 228 q 328 178 357 178 "},"ǽ":{"ha":1015,"x_min":26,"x_max":981,"o":"m 304 -12 q 432 19 380 -12 q 507 100 484 51 q 580 20 528 52 q 703 -12 631 -12 q 872 29 812 -12 q 957 148 932 71 q 981 335 981 226 l 981 393 l 739 393 l 739 307 q 728 204 739 232 q 686 176 716 176 q 639 214 653 176 q 625 335 625 251 l 625 477 l 978 477 q 980 551 979 503 q 981 667 981 598 l 981 741 q 910 957 981 885 q 708 1029 840 1029 q 582 1009 629 1029 q 507 947 534 988 q 432 1009 479 988 q 299 1029 385 1029 q 107 965 174 1029 q 41 749 41 901 q 41 730 41 739 q 41 716 41 722 l 277 716 l 277 785 q 328 840 277 840 q 368 815 355 840 q 380 734 380 790 l 380 665 l 258 623 q 131 563 182 597 q 52 466 79 529 q 26 292 26 404 q 97 70 26 151 q 304 -12 169 -12 m 625 631 l 625 713 q 632 809 625 772 q 685 847 640 847 q 739 737 739 847 l 739 631 l 625 631 m 328 178 q 273 268 273 178 l 273 387 q 301 475 273 446 q 379 525 329 505 l 379 257 q 368 203 379 228 q 328 178 357 178 m 347 1053 l 669 1117 l 669 1352 l 347 1204 l 347 1053 "},"ǣ":{"ha":1015,"x_min":26,"x_max":981,"o":"m 304 -12 q 432 19 380 -12 q 507 100 484 51 q 580 20 528 52 q 703 -12 631 -12 q 872 29 812 -12 q 957 148 932 71 q 981 335 981 226 l 981 393 l 739 393 l 739 307 q 728 204 739 232 q 686 176 716 176 q 639 214 653 176 q 625 335 625 251 l 625 477 l 978 477 q 980 551 979 503 q 981 667 981 598 l 981 741 q 910 957 981 885 q 708 1029 840 1029 q 582 1009 629 1029 q 507 947 534 988 q 432 1009 479 988 q 299 1029 385 1029 q 107 965 174 1029 q 41 749 41 901 q 41 730 41 739 q 41 716 41 722 l 277 716 l 277 785 q 328 840 277 840 q 368 815 355 840 q 380 734 380 790 l 380 665 l 258 623 q 131 563 182 597 q 52 466 79 529 q 26 292 26 404 q 97 70 26 151 q 304 -12 169 -12 m 625 631 l 625 713 q 632 809 625 772 q 685 847 640 847 q 739 737 739 847 l 739 631 l 625 631 m 328 178 q 273 268 273 178 l 273 387 q 301 475 273 446 q 379 525 329 505 l 379 257 q 368 203 379 228 q 328 178 357 178 m 287 1098 l 728 1098 l 728 1202 l 287 1202 l 287 1098 "},"à":{"ha":671,"x_min":28,"x_max":627,"o":"m 234 -11 q 327 23 286 -11 q 385 121 368 57 l 385 0 l 627 0 l 627 775 q 589 914 627 858 q 487 999 551 970 q 341 1028 422 1028 q 114 965 186 1028 q 43 749 43 901 q 43 730 43 739 q 43 716 43 722 l 279 716 l 279 777 q 328 844 279 844 q 382 762 382 844 l 382 657 l 231 606 q 109 541 153 579 q 46 444 64 503 q 28 292 28 385 q 44 136 28 205 q 105 28 60 68 q 234 -11 149 -11 m 330 178 q 275 268 275 178 l 275 399 q 303 489 275 458 q 381 541 331 520 l 381 257 q 370 203 381 228 q 330 178 359 178 m 502 1064 l 502 1215 l 180 1363 l 180 1128 l 502 1064 "},"ả":{"ha":671,"x_min":28,"x_max":627,"o":"m 234 -11 q 327 23 286 -11 q 385 121 368 57 l 385 0 l 627 0 l 627 775 q 589 914 627 858 q 487 999 551 970 q 341 1028 422 1028 q 114 965 186 1028 q 43 749 43 901 q 43 730 43 739 q 43 716 43 722 l 279 716 l 279 777 q 328 844 279 844 q 382 762 382 844 l 382 657 l 231 606 q 109 541 153 579 q 46 444 64 503 q 28 292 28 385 q 44 136 28 205 q 105 28 60 68 q 234 -11 149 -11 m 330 178 q 275 268 275 178 l 275 399 q 303 489 275 458 q 381 541 331 520 l 381 257 q 370 203 381 228 q 330 178 359 178 m 321 1069 q 453 1143 400 1094 q 506 1278 506 1192 q 458 1397 506 1355 q 326 1440 410 1440 q 201 1417 261 1440 l 201 1295 q 262 1306 231 1306 q 331 1242 331 1306 q 309 1187 331 1208 q 250 1154 286 1167 l 321 1069 "},"ȃ":{"ha":671,"x_min":28,"x_max":627,"o":"m 234 -11 q 327 23 286 -11 q 385 121 368 57 l 385 0 l 627 0 l 627 775 q 589 914 627 858 q 487 999 551 970 q 341 1028 422 1028 q 114 965 186 1028 q 43 749 43 901 q 43 730 43 739 q 43 716 43 722 l 279 716 l 279 777 q 328 844 279 844 q 382 762 382 844 l 382 657 l 231 606 q 109 541 153 579 q 46 444 64 503 q 28 292 28 385 q 44 136 28 205 q 105 28 60 68 q 234 -11 149 -11 m 330 178 q 275 268 275 178 l 275 399 q 303 489 275 458 q 381 541 331 520 l 381 257 q 370 203 381 228 q 330 178 359 178 m 90 1101 l 250 1101 q 276 1170 250 1147 q 341 1192 302 1192 q 407 1170 381 1192 q 433 1101 433 1147 l 593 1101 q 594 1115 593 1108 q 594 1124 594 1121 q 528 1289 594 1238 q 340 1340 462 1340 q 154 1290 221 1340 q 87 1129 87 1240 q 90 1101 87 1115 "},"ɑ":{"ha":697,"x_min":41,"x_max":697,"o":"m 249 -11 q 359 21 320 -11 q 419 98 397 54 q 697 -11 500 -11 l 697 203 q 657 219 672 203 q 643 293 643 235 l 643 1017 l 400 1017 l 400 909 q 346 996 380 964 q 249 1028 313 1028 q 137 1002 178 1028 q 74 931 95 977 q 47 825 54 886 q 41 694 41 764 l 41 323 q 47 193 41 254 q 74 86 54 132 q 137 15 95 41 q 249 -11 178 -11 m 342 179 q 283 307 283 179 l 283 718 q 298 810 283 781 q 342 838 313 838 q 386 810 372 838 q 400 719 400 781 l 400 307 q 387 211 400 243 q 342 179 374 179 "},"ā":{"ha":671,"x_min":28,"x_max":627,"o":"m 234 -11 q 327 23 286 -11 q 385 121 368 57 l 385 0 l 627 0 l 627 775 q 589 914 627 858 q 487 999 551 970 q 341 1028 422 1028 q 114 965 186 1028 q 43 749 43 901 q 43 730 43 739 q 43 716 43 722 l 279 716 l 279 777 q 328 844 279 844 q 382 762 382 844 l 382 657 l 231 606 q 109 541 153 579 q 46 444 64 503 q 28 292 28 385 q 44 136 28 205 q 105 28 60 68 q 234 -11 149 -11 m 330 178 q 275 268 275 178 l 275 399 q 303 489 275 458 q 381 541 331 520 l 381 257 q 370 203 381 228 q 330 178 359 178 m 118 1109 l 559 1109 l 559 1213 l 118 1213 l 118 1109 "},"&":{"ha":722,"x_min":24,"x_max":702,"o":"m 262 -14 q 362 9 317 -14 q 433 64 406 32 l 459 0 l 690 0 l 570 299 q 702 505 623 441 l 608 652 q 492 495 532 596 l 427 659 q 534 783 498 719 q 570 943 570 848 q 537 1089 570 1031 q 450 1176 505 1147 q 329 1204 395 1204 q 210 1174 262 1204 q 129 1091 158 1144 q 100 970 100 1038 q 121 838 100 902 q 171 703 142 774 l 176 690 q 97 607 132 654 q 43 488 62 559 q 24 309 24 417 q 87 72 24 158 q 262 -14 151 -14 m 313 991 q 322 1023 313 1008 q 351 1038 331 1038 q 384 1017 371 1038 q 396 943 396 996 q 386 863 396 892 q 363 821 376 834 q 321 939 330 905 q 313 991 313 973 m 231 280 l 231 334 q 254 500 231 453 l 368 223 q 345 180 361 201 q 300 159 328 159 q 231 280 231 159 "},"ą":{"ha":671,"x_min":28,"x_max":636,"o":"m 234 -11 q 327 23 286 -11 q 385 121 368 57 l 385 0 l 627 0 l 627 775 q 589 914 627 858 q 487 999 551 970 q 341 1028 422 1028 q 114 965 186 1028 q 43 749 43 901 q 43 730 43 739 q 43 716 43 722 l 279 716 l 279 777 q 328 844 279 844 q 382 762 382 844 l 382 657 l 231 606 q 109 541 153 579 q 46 444 64 503 q 28 292 28 385 q 44 136 28 205 q 105 28 60 68 q 234 -11 149 -11 m 330 178 q 275 268 275 178 l 275 399 q 303 489 275 458 q 381 541 331 520 l 381 257 q 370 203 381 228 q 330 178 359 178 m 502 -428 q 636 -401 572 -428 l 636 -250 q 557 -265 591 -265 q 479 -189 479 -265 q 511 -89 479 -133 q 588 0 542 -44 l 445 0 q 266 -224 266 -100 q 298 -333 266 -288 q 384 -404 330 -379 q 502 -428 437 -428 "},"ʼ":{"ha":407,"x_min":83,"x_max":336,"o":"m 124 655 l 267 655 l 336 821 l 336 1017 l 83 1017 l 83 815 l 169 815 l 124 655 "},"≈":{"ha":684,"x_min":34,"x_max":681,"o":"m 496 549 q 586 577 553 549 q 641 649 620 604 q 681 743 663 693 l 557 783 q 526 740 543 752 q 488 728 509 728 q 451 734 472 728 q 389 755 429 740 q 308 781 344 772 q 217 789 271 789 q 131 767 164 789 q 75 707 97 745 q 34 625 52 669 l 144 566 q 176 606 159 595 q 212 617 193 617 q 259 609 231 617 q 328 585 286 601 q 409 559 370 568 q 496 549 449 549 m 496 231 q 586 258 553 231 q 641 330 620 286 q 681 424 663 374 l 557 465 q 526 421 543 433 q 488 409 509 409 q 451 415 472 409 q 389 436 429 421 q 308 462 344 454 q 217 471 271 471 q 131 448 164 471 q 75 388 97 426 q 34 306 52 351 l 144 248 q 176 287 159 276 q 212 298 193 298 q 259 290 231 298 q 328 266 286 282 q 409 240 370 250 q 496 231 449 231 "},"å":{"ha":671,"x_min":28,"x_max":627,"o":"m 234 -11 q 327 23 286 -11 q 385 121 368 57 l 385 0 l 627 0 l 627 775 q 589 914 627 858 q 487 999 551 970 q 341 1028 422 1028 q 114 965 186 1028 q 43 749 43 901 q 43 730 43 739 q 43 716 43 722 l 279 716 l 279 777 q 328 844 279 844 q 382 762 382 844 l 382 657 l 231 606 q 109 541 153 579 q 46 444 64 503 q 28 292 28 385 q 44 136 28 205 q 105 28 60 68 q 234 -11 149 -11 m 330 178 q 275 268 275 178 l 275 399 q 303 489 275 458 q 381 541 331 520 l 381 257 q 370 203 381 228 q 330 178 359 178 m 340 1082 q 515 1143 450 1082 q 581 1312 581 1204 q 515 1480 581 1419 q 340 1541 450 1541 q 166 1480 232 1541 q 101 1312 101 1419 q 166 1143 101 1204 q 340 1082 232 1082 m 341 1205 q 270 1236 296 1205 q 245 1312 245 1267 q 270 1387 245 1356 q 341 1418 296 1418 q 412 1387 387 1418 q 437 1312 437 1356 q 412 1236 437 1267 q 341 1205 387 1205 "},"ǻ":{"ha":671,"x_min":28,"x_max":627,"o":"m 234 -11 q 327 23 286 -11 q 385 121 368 57 l 385 0 l 627 0 l 627 775 q 589 914 627 858 q 487 999 551 970 q 341 1028 422 1028 q 114 965 186 1028 q 43 749 43 901 q 43 730 43 739 q 43 716 43 722 l 279 716 l 279 777 q 328 844 279 844 q 382 762 382 844 l 382 657 l 231 606 q 109 541 153 579 q 46 444 64 503 q 28 292 28 385 q 44 136 28 205 q 105 28 60 68 q 234 -11 149 -11 m 330 178 q 275 268 275 178 l 275 399 q 303 489 275 458 q 381 541 331 520 l 381 257 q 370 203 381 228 q 330 178 359 178 m 341 1072 q 516 1129 450 1072 q 581 1287 581 1187 q 516 1446 581 1388 q 341 1503 450 1503 q 167 1446 233 1503 q 102 1287 102 1388 q 167 1128 102 1185 q 341 1072 233 1072 m 342 1194 q 271 1221 296 1194 q 245 1287 245 1249 q 271 1353 245 1326 q 342 1380 296 1380 q 413 1353 387 1380 q 438 1287 438 1326 q 413 1221 438 1249 q 342 1194 387 1194 m 180 1528 l 503 1578 l 503 1773 l 180 1659 l 180 1528 "},"ḁ":{"ha":671,"x_min":28,"x_max":627,"o":"m 234 -11 q 327 23 286 -11 q 385 121 368 57 l 385 0 l 627 0 l 627 775 q 589 914 627 858 q 487 999 551 970 q 341 1028 422 1028 q 114 965 186 1028 q 43 749 43 901 q 43 730 43 739 q 43 716 43 722 l 279 716 l 279 777 q 328 844 279 844 q 382 762 382 844 l 382 657 l 231 606 q 109 541 153 579 q 46 444 64 503 q 28 292 28 385 q 44 136 28 205 q 105 28 60 68 q 234 -11 149 -11 m 330 178 q 275 268 275 178 l 275 399 q 303 489 275 458 q 381 541 331 520 l 381 257 q 370 203 381 228 q 330 178 359 178 m 334 -429 q 509 -372 444 -429 q 574 -214 574 -314 q 509 -55 574 -113 q 334 2 444 2 q 160 -55 226 2 q 95 -214 95 -113 q 160 -372 95 -315 q 334 -429 226 -429 m 335 -307 q 264 -279 290 -307 q 239 -214 239 -252 q 264 -148 239 -175 q 335 -121 290 -121 q 406 -148 380 -121 q 431 -214 431 -175 q 406 -279 431 -252 q 335 -307 380 -307 "},"^":{"ha":658,"x_min":27,"x_max":631,"o":"m 27 293 l 271 293 l 329 696 l 387 293 l 631 293 l 467 919 l 191 919 l 27 293 "},"~":{"ha":684,"x_min":34,"x_max":681,"o":"m 496 549 q 586 577 553 549 q 641 649 620 604 q 681 743 663 693 l 557 783 q 526 740 543 752 q 488 728 509 728 q 451 734 472 728 q 389 755 429 740 q 308 781 344 772 q 217 789 271 789 q 131 767 164 789 q 75 707 97 745 q 34 625 52 669 l 144 566 q 176 606 159 595 q 212 617 193 617 q 259 609 231 617 q 328 585 286 601 q 409 559 370 568 q 496 549 449 549 "},"*":{"ha":628,"x_min":24,"x_max":604,"o":"m 235 503 l 393 503 l 368 703 l 525 579 l 604 715 l 417 794 l 604 868 l 525 1004 l 369 886 l 393 1080 l 235 1080 l 264 882 l 103 1004 l 24 868 l 210 794 l 24 715 l 103 579 l 265 707 l 235 503 "},"ⱥ":{"ha":671,"x_min":28,"x_max":627,"o":"m 68 -126 l 163 -126 l 194 -8 q 234 -11 213 -11 q 327 23 286 -11 q 385 121 368 57 l 385 0 l 627 0 l 627 775 q 581 926 627 867 q 460 1010 535 985 l 506 1194 l 411 1194 l 369 1027 q 341 1028 355 1028 q 114 965 186 1028 q 43 749 43 901 q 43 730 43 739 q 43 716 43 722 l 279 716 l 279 777 q 328 844 279 844 q 382 762 382 844 l 382 657 l 231 606 q 109 541 153 579 q 46 444 64 503 q 28 292 28 385 q 44 134 28 203 q 108 26 60 64 l 68 -126 m 330 178 q 275 268 275 178 l 275 399 q 303 489 275 458 q 381 541 331 520 l 381 257 q 370 203 381 228 q 330 178 359 178 "},"@":{"ha":1200,"x_min":43,"x_max":1161,"o":"m 623 -107 q 835 -86 715 -107 l 814 67 q 633 53 706 53 q 346 171 454 53 q 237 525 237 290 q 341 908 237 774 q 644 1042 444 1042 q 851 988 775 1042 q 961 834 928 934 q 994 595 994 734 q 979 407 994 471 q 920 342 964 342 q 876 365 892 342 q 859 441 859 388 l 859 875 l 706 875 l 680 786 q 622 855 654 829 q 541 881 590 881 q 425 833 467 881 q 364 704 382 785 q 346 525 346 623 q 369 362 346 437 q 437 240 391 286 q 549 193 482 193 q 638 232 605 193 q 683 333 671 271 q 754 229 707 270 q 901 188 802 188 q 1101 294 1040 188 q 1161 598 1161 400 q 1101 923 1161 787 q 923 1132 1041 1059 q 629 1204 804 1204 q 314 1124 446 1204 q 113 891 183 1043 q 43 527 43 740 q 89 235 43 355 q 214 38 134 114 q 398 -72 294 -37 q 623 -107 503 -107 m 612 361 q 578 387 591 361 q 561 452 566 412 q 556 531 556 491 q 566 652 556 609 q 600 711 576 694 q 666 728 624 728 l 666 463 q 655 393 666 425 q 612 361 644 361 "},"ã":{"ha":671,"x_min":28,"x_max":627,"o":"m 234 -11 q 327 23 286 -11 q 385 121 368 57 l 385 0 l 627 0 l 627 775 q 589 914 627 858 q 487 999 551 970 q 341 1028 422 1028 q 114 965 186 1028 q 43 749 43 901 q 43 730 43 739 q 43 716 43 722 l 279 716 l 279 777 q 328 844 279 844 q 382 762 382 844 l 382 657 l 231 606 q 109 541 153 579 q 46 444 64 503 q 28 292 28 385 q 44 136 28 205 q 105 28 60 68 q 234 -11 149 -11 m 330 178 q 275 268 275 178 l 275 399 q 303 489 275 458 q 381 541 331 520 l 381 257 q 370 203 381 228 q 330 178 359 178 m 453 1103 q 535 1128 504 1103 q 585 1194 566 1154 q 621 1280 605 1235 l 509 1317 q 479 1278 495 1289 q 446 1266 464 1266 q 388 1280 419 1266 q 317 1309 356 1295 q 229 1323 279 1323 q 149 1302 180 1323 q 98 1247 118 1282 q 61 1172 78 1213 l 161 1119 q 191 1155 175 1145 q 224 1165 206 1165 q 288 1150 255 1165 q 361 1119 321 1135 q 453 1103 401 1103 "},"b":{"ha":696,"x_min":52,"x_max":656,"o":"m 455 -11 q 569 25 524 -11 q 634 124 613 62 q 656 265 656 187 l 656 766 q 615 956 656 883 q 474 1028 574 1028 q 360 997 400 1028 q 298 909 321 965 l 298 1194 l 52 1194 l 52 0 l 298 0 l 298 109 q 358 19 321 48 q 455 -11 395 -11 m 355 178 q 307 217 316 178 q 298 310 298 255 l 298 707 q 307 801 298 762 q 355 839 316 839 q 401 801 393 839 q 410 707 410 764 l 410 310 q 401 216 410 254 q 355 178 393 178 "},"\\":{"ha":563,"x_min":18,"x_max":543,"o":"m 297 0 l 543 0 l 265 1198 l 18 1198 l 297 0 "},"|":{"ha":300,"x_min":42,"x_max":258,"o":"m 42 -57 l 258 -57 l 258 1324 l 42 1324 l 42 -57 "},"ḃ":{"ha":696,"x_min":52,"x_max":656,"o":"m 455 -11 q 569 25 524 -11 q 634 124 613 62 q 656 265 656 187 l 656 766 q 615 956 656 883 q 474 1028 574 1028 q 360 997 400 1028 q 298 909 321 965 l 298 1194 l 52 1194 l 52 0 l 298 0 l 298 109 q 358 19 321 48 q 455 -11 395 -11 m 355 178 q 307 217 316 178 q 298 310 298 255 l 298 707 q 307 801 298 762 q 355 839 316 839 q 401 801 393 839 q 410 707 410 764 l 410 310 q 401 216 410 254 q 355 178 393 178 m 370 1098 l 613 1098 l 613 1300 l 370 1300 l 370 1098 "},"ḅ":{"ha":696,"x_min":52,"x_max":656,"o":"m 455 -11 q 569 25 524 -11 q 634 124 613 62 q 656 265 656 187 l 656 766 q 615 956 656 883 q 474 1028 574 1028 q 360 997 400 1028 q 298 909 321 965 l 298 1194 l 52 1194 l 52 0 l 298 0 l 298 109 q 358 19 321 48 q 455 -11 395 -11 m 355 178 q 307 217 316 178 q 298 310 298 255 l 298 707 q 307 801 298 762 q 355 839 316 839 q 401 801 393 839 q 410 707 410 764 l 410 310 q 401 216 410 254 q 355 178 393 178 m 227 -283 l 470 -283 l 470 -81 l 227 -81 l 227 -283 "},"ꞵ":{"ha":683,"x_min":39,"x_max":657,"o":"m 39 -170 l 277 -170 l 277 10 q 382 -7 319 -7 q 585 84 512 -7 q 657 379 657 174 q 629 591 657 511 q 515 692 601 671 q 593 758 570 709 q 616 878 616 807 l 616 958 q 538 1147 616 1090 q 328 1204 459 1204 q 39 958 39 1204 l 39 -170 m 277 213 l 277 985 q 328 1037 277 1037 q 378 985 378 1037 l 378 844 q 368 787 378 810 q 321 764 357 764 l 321 595 q 399 573 377 595 q 421 496 421 551 l 421 228 q 400 177 421 194 q 348 161 380 161 q 296 174 316 161 q 277 213 277 188 "},"ɓ":{"ha":696,"x_min":49,"x_max":656,"o":"m 455 -11 q 569 25 524 -11 q 634 124 613 62 q 656 265 656 187 l 656 699 q 615 889 656 817 q 474 962 574 962 q 360 930 400 962 q 298 842 321 899 l 298 928 q 315 995 298 972 q 369 1017 331 1017 l 369 1204 q 185 1165 256 1204 q 82 1058 115 1126 q 49 901 49 989 l 49 0 l 298 0 l 298 109 q 358 19 321 48 q 455 -11 395 -11 m 355 178 q 307 217 316 178 q 298 310 298 255 l 298 641 q 307 734 298 696 q 355 772 316 772 q 401 735 393 772 q 410 641 410 697 l 410 310 q 401 216 410 254 q 355 178 393 178 "},"ʘ":{"ha":690,"x_min":41,"x_max":649,"o":"m 345 -11 q 649 304 649 -11 l 649 713 q 568 942 649 857 q 345 1028 488 1028 q 121 942 202 1028 q 41 713 41 857 l 41 304 q 345 -11 41 -11 m 345 176 q 301 198 314 176 q 288 254 288 220 l 288 751 q 345 840 288 840 q 401 751 401 840 l 401 254 q 388 198 401 220 q 345 176 375 176 m 307 427 l 382 427 l 382 606 l 307 606 l 307 427 "},"◆":{"ha":1006,"x_min":27,"x_max":979,"o":"m 503 35 l 979 513 l 503 990 l 27 513 l 503 35 "},"■":{"ha":1120,"x_min":53,"x_max":1067,"o":"m 53 0 l 1067 0 l 1067 1017 l 53 1017 l 53 0 "},"ḇ":{"ha":696,"x_min":52,"x_max":656,"o":"m 455 -11 q 569 25 524 -11 q 634 124 613 62 q 656 265 656 187 l 656 766 q 615 956 656 883 q 474 1028 574 1028 q 360 997 400 1028 q 298 909 321 965 l 298 1194 l 52 1194 l 52 0 l 298 0 l 298 109 q 358 19 321 48 q 455 -11 395 -11 m 355 178 q 307 217 316 178 q 298 310 298 255 l 298 707 q 307 801 298 762 q 355 839 316 839 q 401 801 393 839 q 410 707 410 764 l 410 310 q 401 216 410 254 q 355 178 393 178 m 128 -184 l 569 -184 l 569 -81 l 128 -81 l 128 -184 "},"{":{"ha":472,"x_min":21,"x_max":448,"o":"m 448 -127 l 448 54 q 383 65 412 56 q 354 111 354 75 l 354 365 q 333 469 354 431 q 279 527 313 507 q 206 555 245 546 q 279 583 245 564 q 333 641 313 602 q 354 744 354 679 l 354 998 q 383 1043 354 1034 q 448 1055 412 1053 l 448 1236 q 247 1211 319 1234 q 145 1135 174 1188 q 115 987 115 1082 l 115 760 q 99 660 115 692 q 21 621 83 629 l 21 488 q 99 449 83 481 q 115 349 115 417 l 115 122 q 145 -26 115 28 q 247 -102 174 -79 q 448 -127 319 -125 "},"}":{"ha":473,"x_min":27,"x_max":454,"o":"m 27 -127 q 229 -102 156 -125 q 331 -26 301 -79 q 360 122 360 28 l 360 349 q 376 449 360 417 q 454 488 393 481 l 454 621 q 376 660 393 629 q 360 760 360 692 l 360 987 q 331 1135 360 1082 q 229 1211 301 1188 q 27 1236 156 1234 l 27 1055 q 93 1043 64 1053 q 121 998 121 1034 l 121 744 q 142 640 121 678 q 197 583 163 602 q 269 555 231 564 q 197 527 231 546 q 142 469 163 507 q 121 365 121 431 l 121 111 q 93 65 121 75 q 27 54 64 56 l 27 -127 "},"[":{"ha":441,"x_min":42,"x_max":418,"o":"m 42 -127 l 418 -127 l 418 63 l 281 63 l 281 1046 l 418 1046 l 418 1236 l 42 1236 l 42 -127 "},"]":{"ha":441,"x_min":24,"x_max":399,"o":"m 24 -127 l 399 -127 l 399 1236 l 24 1236 l 24 1046 l 161 1046 l 161 63 l 24 63 l 24 -127 "},"˘":{"ha":688,"x_min":74,"x_max":608,"o":"m 340 1080 q 535 1131 462 1080 q 608 1295 608 1182 q 607 1305 608 1299 q 606 1319 607 1312 l 433 1319 q 413 1260 433 1280 q 341 1240 393 1240 q 269 1260 289 1240 q 250 1319 250 1280 l 76 1319 q 74 1291 74 1305 q 148 1130 74 1180 q 340 1080 221 1080 "},"̮":{"ha":0,"x_min":-267,"x_max":267,"o":"m -1 -282 q 194 -231 121 -282 q 267 -66 267 -180 q 266 -43 267 -60 l 92 -43 q 73 -101 92 -81 q 1 -121 53 -121 q -71 -101 -52 -121 q -91 -43 -91 -81 l -264 -43 q -267 -71 -267 -56 q -193 -232 -267 -182 q -1 -282 -119 -282 "},"̆":{"ha":0,"x_min":-267,"x_max":267,"o":"m -1 1080 q 194 1131 121 1080 q 267 1295 267 1182 q 267 1305 267 1299 q 266 1319 267 1312 l 92 1319 q 73 1260 92 1280 q 1 1240 53 1240 q -71 1260 -52 1240 q -91 1319 -91 1280 l -264 1319 q -267 1291 -267 1305 q -193 1130 -267 1180 q -1 1080 -119 1080 "},"̯":{"ha":0,"x_min":-254,"x_max":253,"o":"m -252 -348 l -92 -348 q -65 -279 -92 -302 q 0 -256 -39 -256 q 66 -279 40 -256 q 92 -348 92 -302 l 252 -348 q 253 -334 252 -340 q 253 -324 253 -328 q 187 -160 253 -211 q -1 -109 121 -109 q -187 -159 -120 -109 q -254 -319 -254 -209 q -252 -348 -254 -334 "},"̑":{"ha":0,"x_min":-254,"x_max":253,"o":"m -252 1090 l -92 1090 q -65 1159 -92 1137 q 0 1181 -39 1181 q 66 1159 40 1181 q 92 1090 92 1137 l 252 1090 q 253 1104 252 1097 q 253 1114 253 1110 q 187 1278 253 1227 q -1 1329 121 1329 q -187 1279 -120 1329 q -254 1118 -254 1229 q -252 1090 -254 1104 "},"¦":{"ha":309,"x_min":46,"x_max":262,"o":"m 46 707 l 262 707 l 262 1324 l 46 1324 l 46 707 m 46 -57 l 262 -57 l 262 540 l 46 540 l 46 -57 "},"ƀ":{"ha":696,"x_min":-53,"x_max":656,"o":"m 455 -11 q 569 25 524 -11 q 634 124 613 62 q 656 265 656 187 l 656 766 q 615 956 656 883 q 474 1028 574 1028 q 360 997 400 1028 q 298 909 321 965 l 298 1025 l 388 1025 l 388 1129 l 298 1129 l 298 1194 l 52 1194 l 52 1129 l -53 1129 l -53 1025 l 52 1025 l 52 0 l 298 0 l 298 109 q 358 19 321 48 q 455 -11 395 -11 m 355 178 q 307 217 316 178 q 298 310 298 255 l 298 707 q 307 801 298 762 q 355 839 316 839 q 401 801 393 839 q 410 707 410 764 l 410 310 q 401 216 410 254 q 355 178 393 178 "},"•":{"ha":489,"x_min":32,"x_max":457,"o":"m 244 273 q 401 337 345 273 q 457 503 457 400 q 401 669 457 606 q 244 732 345 732 q 87 669 143 732 q 32 503 32 606 q 87 337 32 400 q 244 273 143 273 "},"∙":{"ha":407,"x_min":102,"x_max":318,"o":"m 102 490 l 318 490 l 318 692 l 102 692 l 102 490 "},"c":{"ha":682,"x_min":41,"x_max":646,"o":"m 355 -11 q 505 21 439 -11 q 609 113 571 53 q 646 257 646 173 l 646 435 l 400 435 l 400 264 q 388 204 400 230 q 343 179 375 179 q 298 205 312 179 q 285 262 285 231 l 285 755 q 345 840 285 840 q 389 816 378 840 q 399 757 399 792 l 399 614 l 646 614 l 646 770 q 608 911 646 853 q 502 998 569 968 q 351 1028 435 1028 q 163 986 231 1028 q 68 859 95 944 q 41 647 41 774 l 41 334 q 112 77 41 164 q 355 -11 184 -11 "},"ć":{"ha":682,"x_min":41,"x_max":646,"o":"m 355 -11 q 505 21 439 -11 q 609 113 571 53 q 646 257 646 173 l 646 435 l 400 435 l 400 264 q 388 204 400 230 q 343 179 375 179 q 298 205 312 179 q 285 262 285 231 l 285 755 q 345 840 285 840 q 389 816 378 840 q 399 757 399 792 l 399 614 l 646 614 l 646 770 q 608 911 646 853 q 502 998 569 968 q 351 1028 435 1028 q 163 986 231 1028 q 68 859 95 944 q 41 647 41 774 l 41 334 q 112 77 41 164 q 355 -11 184 -11 m 188 1053 l 510 1117 l 510 1352 l 188 1204 l 188 1053 "},"̐":{"ha":0,"x_min":-267,"x_max":267,"o":"m -121 1360 l 122 1360 l 122 1535 l -121 1535 l -121 1360 m -1 1080 q 194 1126 121 1080 q 267 1275 267 1173 q 267 1285 267 1278 q 266 1299 267 1292 l 92 1299 q 73 1235 92 1257 q 1 1213 53 1213 q -71 1235 -52 1213 q -91 1299 -91 1257 l -264 1299 q -267 1270 -267 1284 q -193 1125 -267 1171 q -1 1080 -119 1080 "},"ˇ":{"ha":658,"x_min":27,"x_max":631,"o":"m 191 1079 l 467 1079 l 631 1352 l 387 1352 l 329 1159 l 271 1352 l 27 1352 l 191 1079 "},"̌":{"ha":0,"x_min":-302,"x_max":302,"o":"m -138 1079 l 138 1079 l 302 1352 l 58 1352 l 0 1159 l -58 1352 l -302 1352 l -138 1079 "},"č":{"ha":682,"x_min":41,"x_max":651,"o":"m 355 -11 q 505 21 439 -11 q 609 113 571 53 q 646 257 646 173 l 646 435 l 400 435 l 400 264 q 388 204 400 230 q 343 179 375 179 q 298 205 312 179 q 285 262 285 231 l 285 755 q 345 840 285 840 q 389 816 378 840 q 399 757 399 792 l 399 614 l 646 614 l 646 770 q 608 911 646 853 q 502 998 569 968 q 351 1028 435 1028 q 163 986 231 1028 q 68 859 95 944 q 41 647 41 774 l 41 334 q 112 77 41 164 q 355 -11 184 -11 m 211 1079 l 488 1079 l 651 1352 l 408 1352 l 349 1159 l 291 1352 l 47 1352 l 211 1079 "},"ç":{"ha":682,"x_min":41,"x_max":646,"o":"m 355 -11 q 505 21 439 -11 q 609 113 571 53 q 646 257 646 173 l 646 435 l 400 435 l 400 264 q 388 204 400 230 q 343 179 375 179 q 298 205 312 179 q 285 262 285 231 l 285 755 q 345 840 285 840 q 389 816 378 840 q 399 757 399 792 l 399 614 l 646 614 l 646 770 q 608 911 646 853 q 502 998 569 968 q 351 1028 435 1028 q 163 986 231 1028 q 68 859 95 944 q 41 647 41 774 l 41 334 q 112 77 41 164 q 355 -11 184 -11 m 331 -428 q 485 -380 437 -428 q 533 -262 533 -332 q 497 -129 533 -199 q 395 0 460 -58 l 286 0 q 337 -98 319 -50 q 356 -185 356 -147 q 333 -247 356 -229 q 277 -265 311 -265 q 238 -261 258 -265 q 197 -250 218 -256 l 197 -401 q 331 -428 261 -428 "},"ḉ":{"ha":682,"x_min":41,"x_max":646,"o":"m 355 -11 q 505 21 439 -11 q 609 113 571 53 q 646 257 646 173 l 646 435 l 400 435 l 400 264 q 388 204 400 230 q 343 179 375 179 q 298 205 312 179 q 285 262 285 231 l 285 755 q 345 840 285 840 q 389 816 378 840 q 399 757 399 792 l 399 614 l 646 614 l 646 770 q 608 911 646 853 q 502 998 569 968 q 351 1028 435 1028 q 163 986 231 1028 q 68 859 95 944 q 41 647 41 774 l 41 334 q 112 77 41 164 q 355 -11 184 -11 m 331 -428 q 485 -380 437 -428 q 533 -262 533 -332 q 497 -129 533 -199 q 395 0 460 -58 l 286 0 q 337 -98 319 -50 q 356 -185 356 -147 q 333 -247 356 -229 q 277 -265 311 -265 q 238 -261 258 -265 q 197 -250 218 -256 l 197 -401 q 331 -428 261 -428 m 189 1053 l 511 1117 l 511 1352 l 189 1204 l 189 1053 "},"ĉ":{"ha":682,"x_min":41,"x_max":651,"o":"m 355 -11 q 505 21 439 -11 q 609 113 571 53 q 646 257 646 173 l 646 435 l 400 435 l 400 264 q 388 204 400 230 q 343 179 375 179 q 298 205 312 179 q 285 262 285 231 l 285 755 q 345 840 285 840 q 389 816 378 840 q 399 757 399 792 l 399 614 l 646 614 l 646 770 q 608 911 646 853 q 502 998 569 968 q 351 1028 435 1028 q 163 986 231 1028 q 68 859 95 944 q 41 647 41 774 l 41 334 q 112 77 41 164 q 355 -11 184 -11 m 47 1079 l 291 1079 l 349 1272 l 408 1079 l 651 1079 l 488 1352 l 211 1352 l 47 1079 "},"ċ":{"ha":682,"x_min":41,"x_max":646,"o":"m 355 -11 q 505 21 439 -11 q 609 113 571 53 q 646 257 646 173 l 646 435 l 400 435 l 400 264 q 388 204 400 230 q 343 179 375 179 q 298 205 312 179 q 285 262 285 231 l 285 755 q 345 840 285 840 q 389 816 378 840 q 399 757 399 792 l 399 614 l 646 614 l 646 770 q 608 911 646 853 q 502 998 569 968 q 351 1028 435 1028 q 163 986 231 1028 q 68 859 95 944 q 41 647 41 774 l 41 334 q 112 77 41 164 q 355 -11 184 -11 m 228 1080 l 471 1080 l 471 1282 l 228 1282 l 228 1080 "},"₵":{"ha":669,"x_min":33,"x_max":638,"o":"m 286 -111 l 404 -111 l 404 -8 q 572 75 505 6 q 638 257 638 143 l 638 416 l 392 416 l 392 264 q 379 204 392 230 q 335 179 367 179 q 290 205 304 179 q 277 262 277 231 l 277 755 q 336 840 277 840 q 380 816 370 840 q 391 757 391 792 l 391 596 l 638 596 l 638 770 q 571 946 638 881 q 404 1025 504 1010 l 404 1137 l 286 1137 l 286 1027 q 132 971 187 1017 q 55 844 77 925 q 33 647 33 762 l 33 334 q 90 94 33 180 q 286 -9 147 7 l 286 -111 "},"¸":{"ha":391,"x_min":27,"x_max":363,"o":"m 161 -428 q 315 -380 267 -428 q 363 -262 363 -332 q 327 -129 363 -199 q 225 0 291 -58 l 116 0 q 168 -98 149 -50 q 186 -185 186 -147 q 164 -247 186 -229 q 107 -265 141 -265 q 68 -261 89 -265 q 27 -250 48 -256 l 27 -401 q 161 -428 92 -428 "},"̧":{"ha":0,"x_min":-305,"x_max":31,"o":"m -171 -428 q -17 -380 -65 -428 q 31 -262 31 -332 q -5 -129 31 -199 q -107 0 -41 -58 l -216 0 q -164 -98 -183 -50 q -146 -185 -146 -147 q -169 -247 -146 -229 q -225 -265 -191 -265 q -264 -261 -243 -265 q -305 -250 -284 -256 l -305 -401 q -171 -428 -241 -428 "},"¢":{"ha":669,"x_min":33,"x_max":638,"o":"m 286 -111 l 404 -111 l 404 -8 q 572 75 505 6 q 638 257 638 143 l 638 416 l 392 416 l 392 264 q 379 204 392 230 q 335 179 367 179 q 290 205 304 179 q 277 262 277 231 l 277 755 q 336 840 277 840 q 380 816 370 840 q 391 757 391 792 l 391 596 l 638 596 l 638 770 q 571 946 638 881 q 404 1025 504 1010 l 404 1137 l 286 1137 l 286 1027 q 132 971 187 1017 q 55 844 77 925 q 33 647 33 762 l 33 334 q 90 94 33 180 q 286 -9 147 7 l 286 -111 "},"ꭓ":{"ha":637,"x_min":5,"x_max":631,"o":"m 631 -176 l 631 9 q 581 35 598 9 q 541 134 564 60 l 446 444 l 624 1018 l 444 1018 l 364 757 q 291 923 330 864 q 190 1005 252 981 q 27 1028 129 1028 l 27 842 q 86 817 66 842 q 130 718 107 792 l 204 477 l 5 -170 l 189 -170 l 288 159 l 297 127 q 353 -22 325 37 q 417 -115 380 -81 q 505 -162 453 -149 q 631 -176 556 -176 "},"ƈ":{"ha":711,"x_min":41,"x_max":718,"o":"m 355 -11 q 505 21 439 -11 q 609 113 571 53 q 646 257 646 173 l 646 435 l 400 435 l 400 264 q 388 204 400 230 q 343 179 375 179 q 298 205 312 179 q 285 262 285 231 l 285 755 q 345 840 285 840 q 389 816 378 840 q 399 757 399 792 l 399 614 l 646 614 l 646 924 q 718 1013 646 1013 l 718 1200 q 541 1147 608 1200 q 450 1014 474 1095 q 351 1028 409 1028 q 163 986 231 1028 q 68 859 95 944 q 41 647 41 774 l 41 334 q 112 77 41 164 q 355 -11 184 -11 "},"ˆ":{"ha":658,"x_min":27,"x_max":631,"o":"m 27 1079 l 271 1079 l 329 1272 l 387 1079 l 631 1079 l 467 1352 l 191 1352 l 27 1079 "},"̭":{"ha":0,"x_min":-302,"x_max":302,"o":"m -302 -347 l -58 -347 l 0 -154 l 58 -347 l 302 -347 l 138 -74 l -138 -74 l -302 -347 "},"̂":{"ha":0,"x_min":-302,"x_max":302,"o":"m -302 1079 l -58 1079 l 0 1272 l 58 1079 l 302 1079 l 138 1352 l -138 1352 l -302 1079 "},"ǂ":{"ha":463,"x_min":-7,"x_max":470,"o":"m 117 -126 l 348 -126 l 348 236 l 470 236 l 470 437 l 348 437 l 348 636 l 470 636 l 470 837 l 348 837 l 348 1194 l 117 1194 l 117 837 l -7 837 l -7 636 l 117 636 l 117 437 l -7 437 l -7 236 l 117 236 l 117 -126 "},"ǀ":{"ha":315,"x_min":42,"x_max":273,"o":"m 42 -126 l 273 -126 l 273 1194 l 42 1194 l 42 -126 "},"ǁ":{"ha":681,"x_min":42,"x_max":639,"o":"m 42 -126 l 273 -126 l 273 1194 l 42 1194 l 42 -126 m 408 -126 l 639 -126 l 639 1194 l 408 1194 l 408 -126 "},"ǃ":{"ha":318,"x_min":37,"x_max":280,"o":"m 85 325 l 233 325 l 280 1194 l 37 1194 l 85 325 m 37 1 l 280 1 l 280 203 l 37 203 l 37 1 "},":":{"ha":336,"x_min":46,"x_max":289,"o":"m 46 662 l 289 662 l 289 864 l 46 864 l 46 662 m 46 161 l 289 161 l 289 363 l 46 363 l 46 161 "},"꞉":{"ha":336,"x_min":46,"x_max":289,"o":"m 46 662 l 289 662 l 289 864 l 46 864 l 46 662 m 46 161 l 289 161 l 289 363 l 46 363 l 46 161 "},"₡":{"ha":707,"x_min":87,"x_max":621,"o":"m 117 -77 l 189 -77 l 209 22 q 256 1 231 9 l 239 -77 l 311 -77 l 323 -13 q 353 -14 338 -14 q 549 52 478 -14 q 621 258 621 117 l 621 463 l 444 463 l 444 277 q 424 191 444 224 q 358 155 404 157 l 460 646 l 616 646 l 616 836 q 595 949 616 901 q 538 1027 575 997 l 562 1139 l 490 1139 l 475 1065 q 427 1079 452 1074 l 439 1139 l 368 1139 l 357 1085 q 151 1004 214 1085 q 87 766 87 922 l 87 265 q 149 73 87 147 l 117 -77 m 260 787 q 272 864 260 833 q 320 905 283 896 l 260 616 l 260 787 m 260 272 l 391 903 q 432 857 420 891 l 291 174 q 260 272 262 201 "},",":{"ha":328,"x_min":37,"x_max":291,"o":"m 79 -159 l 222 -159 l 291 7 l 291 203 l 37 203 l 37 1 l 123 1 l 79 -159 "},"̓":{"ha":0,"x_min":-127,"x_max":127,"o":"m -127 1123 l 127 1123 l 127 1325 l 41 1325 l 85 1485 l -58 1485 l -127 1319 l -127 1123 "},"̦":{"ha":0,"x_min":-135,"x_max":119,"o":"m -94 -436 l 50 -436 l 119 -270 l 119 -74 l -135 -74 l -135 -276 l -49 -276 l -94 -436 "},"̒":{"ha":0,"x_min":-127,"x_max":127,"o":"m -127 1123 l 127 1123 l 127 1325 l 41 1325 l 85 1485 l -58 1485 l -127 1319 l -127 1123 "},"ʻ":{"ha":407,"x_min":71,"x_max":324,"o":"m 71 655 l 324 655 l 324 857 l 238 857 l 283 1017 l 140 1017 l 71 851 l 71 655 "},"⁒":{"ha":665,"x_min":37,"x_max":627,"o":"m 37 991 l 246 991 l 246 1194 l 37 1194 l 37 991 m 108 0 l 279 0 l 558 1194 l 386 1194 l 108 0 m 418 0 l 627 0 l 627 202 l 418 202 l 418 0 "},"©":{"ha":937,"x_min":23,"x_max":914,"o":"m 469 139 q 645 173 564 139 q 786 267 726 206 q 881 409 847 328 q 914 585 914 490 q 881 761 914 680 q 786 902 847 842 q 645 997 726 963 q 469 1030 564 1030 q 293 997 374 1030 q 151 902 212 963 q 57 761 90 842 q 23 585 23 680 q 57 409 23 490 q 151 267 90 328 q 293 173 212 206 q 469 139 374 139 m 469 227 q 295 275 371 227 q 175 405 218 323 q 131 585 131 486 q 175 765 131 684 q 295 894 218 846 q 469 943 371 943 q 643 894 567 943 q 763 765 719 846 q 806 585 806 684 q 763 405 806 486 q 643 275 719 323 q 469 227 567 227 m 465 288 q 629 436 629 288 l 629 547 l 498 547 l 498 446 q 467 401 498 401 q 445 416 453 401 q 437 446 437 431 l 437 723 q 443 754 437 743 q 467 766 448 766 q 498 714 498 766 l 498 646 l 627 646 l 627 749 q 581 851 627 818 q 467 885 536 885 q 346 841 383 885 q 309 711 309 797 l 309 439 q 351 328 309 368 q 465 288 394 288 "},"ȼ":{"ha":682,"x_min":41,"x_max":646,"o":"m 136 -126 l 231 -126 l 263 -3 q 355 -11 304 -11 q 505 21 439 -11 q 609 113 571 53 q 646 257 646 173 l 646 435 l 400 435 l 400 264 q 388 204 400 230 q 343 179 375 179 q 298 205 312 179 q 285 262 285 231 l 285 755 q 345 840 285 840 q 389 816 378 840 q 399 757 399 792 l 399 614 l 646 614 l 646 770 q 613 902 646 846 q 522 988 579 957 l 574 1194 l 479 1194 l 435 1020 q 351 1028 395 1028 q 163 986 231 1028 q 68 859 95 944 q 41 647 41 774 l 41 334 q 72 142 41 219 q 176 26 104 64 l 136 -126 "},"¤":{"ha":678,"x_min":31,"x_max":647,"o":"m 132 345 l 192 406 q 338 370 254 370 q 485 405 422 370 l 545 345 l 647 446 l 586 507 q 623 654 623 574 q 586 800 623 734 l 647 861 l 545 962 l 486 903 q 338 939 420 939 q 191 902 256 939 l 132 962 l 31 860 l 92 799 q 56 654 56 733 q 92 509 56 575 l 31 447 l 132 345 m 338 503 q 236 547 274 503 q 197 654 197 591 q 236 760 197 716 q 338 804 275 804 q 442 762 404 804 q 480 655 480 720 q 441 547 480 592 q 338 503 403 503 "},"d":{"ha":692,"x_min":42,"x_max":647,"o":"m 249 -11 q 346 21 313 -11 q 400 108 380 53 l 400 0 l 647 0 l 647 1194 l 400 1194 l 400 909 q 339 997 378 965 q 225 1028 299 1028 q 84 956 125 1028 q 42 766 42 883 l 42 323 q 48 193 42 254 q 75 86 55 132 q 137 15 96 41 q 249 -11 178 -11 m 342 179 q 283 307 283 179 l 283 734 q 294 807 283 774 q 343 840 304 840 q 390 805 379 840 q 400 734 400 770 l 400 307 q 388 207 400 235 q 342 179 376 179 "},"†":{"ha":535,"x_min":21,"x_max":514,"o":"m 145 0 l 392 0 l 392 675 l 514 675 l 514 876 l 392 876 l 392 1080 l 145 1080 l 145 876 l 21 876 l 21 675 l 145 675 l 145 0 "},"‡":{"ha":547,"x_min":27,"x_max":520,"o":"m 151 0 l 398 0 l 398 237 l 520 237 l 520 438 l 398 438 l 398 637 l 520 637 l 520 838 l 398 838 l 398 1080 l 151 1080 l 151 838 l 27 838 l 27 637 l 151 637 l 151 438 l 27 438 l 27 237 l 151 237 l 151 0 "},"̏":{"ha":0,"x_min":-330,"x_max":184,"o":"m -134 1076 l -21 1115 l -171 1440 l -330 1367 l -134 1076 m 71 1076 l 184 1115 l 59 1440 l -97 1367 l 71 1076 "},"ď":{"ha":911,"x_min":42,"x_max":911,"o":"m 249 -11 q 346 21 313 -11 q 400 108 380 53 l 400 0 l 647 0 l 647 1194 l 400 1194 l 400 909 q 339 997 378 965 q 225 1028 299 1028 q 84 956 125 1028 q 42 766 42 883 l 42 323 q 48 193 42 254 q 75 86 55 132 q 137 15 96 41 q 249 -11 178 -11 m 342 179 q 283 307 283 179 l 283 734 q 294 807 283 774 q 343 840 304 840 q 390 805 379 840 q 400 734 400 770 l 400 307 q 388 207 400 235 q 342 179 376 179 m 699 831 l 842 831 l 911 998 l 911 1194 l 700 1194 l 700 991 l 751 991 l 699 831 "},"ḑ":{"ha":692,"x_min":42,"x_max":647,"o":"m 249 -11 q 346 21 313 -11 q 400 108 380 53 l 400 0 l 647 0 l 647 1194 l 400 1194 l 400 909 q 339 997 378 965 q 225 1028 299 1028 q 84 956 125 1028 q 42 766 42 883 l 42 323 q 48 193 42 254 q 75 86 55 132 q 137 15 96 41 q 249 -11 178 -11 m 342 179 q 283 307 283 179 l 283 734 q 294 807 283 774 q 343 840 304 840 q 390 805 379 840 q 400 734 400 770 l 400 307 q 388 207 400 235 q 342 179 376 179 m 280 -436 l 423 -436 l 492 -270 l 492 -74 l 239 -74 l 239 -276 l 325 -276 l 280 -436 "},"ḓ":{"ha":692,"x_min":42,"x_max":676,"o":"m 249 -11 q 346 21 313 -11 q 400 108 380 53 l 400 0 l 647 0 l 647 1194 l 400 1194 l 400 909 q 339 997 378 965 q 225 1028 299 1028 q 84 956 125 1028 q 42 766 42 883 l 42 323 q 48 193 42 254 q 75 86 55 132 q 137 15 96 41 q 249 -11 178 -11 m 342 179 q 283 307 283 179 l 283 734 q 294 807 283 774 q 343 840 304 840 q 390 805 379 840 q 400 734 400 770 l 400 307 q 388 207 400 235 q 342 179 376 179 m 73 -347 l 316 -347 l 374 -154 l 433 -347 l 676 -347 l 513 -74 l 236 -74 l 73 -347 "},"đ":{"ha":692,"x_min":42,"x_max":727,"o":"m 249 -11 q 346 21 313 -11 q 400 108 380 53 l 400 0 l 647 0 l 647 1039 l 727 1039 l 727 1143 l 647 1143 l 647 1194 l 400 1194 l 400 1143 l 286 1143 l 286 1039 l 400 1039 l 400 909 q 339 997 378 965 q 225 1028 299 1028 q 84 956 125 1028 q 42 766 42 883 l 42 323 q 48 193 42 254 q 75 86 55 132 q 137 15 96 41 q 249 -11 178 -11 m 342 179 q 283 307 283 179 l 283 734 q 294 807 283 774 q 343 840 304 840 q 390 805 379 840 q 400 734 400 770 l 400 307 q 388 207 400 235 q 342 179 376 179 "},"ḋ":{"ha":692,"x_min":42,"x_max":647,"o":"m 249 -11 q 346 21 313 -11 q 400 108 380 53 l 400 0 l 647 0 l 647 1194 l 400 1194 l 400 909 q 339 997 378 965 q 225 1028 299 1028 q 84 956 125 1028 q 42 766 42 883 l 42 323 q 48 193 42 254 q 75 86 55 132 q 137 15 96 41 q 249 -11 178 -11 m 342 179 q 283 307 283 179 l 283 734 q 294 807 283 774 q 343 840 304 840 q 390 805 379 840 q 400 734 400 770 l 400 307 q 388 207 400 235 q 342 179 376 179 m 95 1098 l 338 1098 l 338 1300 l 95 1300 l 95 1098 "},"ḍ":{"ha":692,"x_min":42,"x_max":647,"o":"m 249 -11 q 346 21 313 -11 q 400 108 380 53 l 400 0 l 647 0 l 647 1194 l 400 1194 l 400 909 q 339 997 378 965 q 225 1028 299 1028 q 84 956 125 1028 q 42 766 42 883 l 42 323 q 48 193 42 254 q 75 86 55 132 q 137 15 96 41 q 249 -11 178 -11 m 342 179 q 283 307 283 179 l 283 734 q 294 807 283 774 q 343 840 304 840 q 390 805 379 840 q 400 734 400 770 l 400 307 q 388 207 400 235 q 342 179 376 179 m 253 -283 l 496 -283 l 496 -81 l 253 -81 l 253 -283 "},"°":{"ha":540,"x_min":30,"x_max":509,"o":"m 269 631 q 444 692 378 631 q 509 861 509 753 q 444 1029 509 968 q 269 1090 378 1090 q 95 1029 161 1090 q 30 861 30 968 q 95 692 30 753 q 269 631 161 631 m 270 754 q 199 785 224 754 q 174 861 174 817 q 199 936 174 905 q 270 967 224 967 q 341 936 315 967 q 366 861 366 905 q 341 785 366 817 q 270 754 315 754 "},"ɗ":{"ha":692,"x_min":42,"x_max":705,"o":"m 249 -11 q 346 21 313 -11 q 400 108 380 53 l 400 0 l 647 0 l 647 928 q 660 995 647 972 q 705 1017 672 1017 l 705 1204 q 520 1173 587 1204 q 427 1080 454 1141 q 400 935 400 1020 l 400 909 q 339 997 378 965 q 225 1028 299 1028 q 84 956 125 1028 q 42 766 42 883 l 42 323 q 48 193 42 254 q 75 86 55 132 q 137 15 96 41 q 249 -11 178 -11 m 342 179 q 283 307 283 179 l 283 734 q 294 807 283 774 q 343 840 304 840 q 390 805 379 840 q 400 734 400 770 l 400 307 q 388 211 400 243 q 342 179 376 179 "},"¨":{"ha":662,"x_min":45,"x_max":616,"o":"m 373 1084 l 616 1084 l 616 1286 l 373 1286 l 373 1084 m 45 1084 l 288 1084 l 288 1286 l 45 1286 l 45 1084 "},"̤":{"ha":0,"x_min":-286,"x_max":286,"o":"m 43 -283 l 286 -283 l 286 -81 l 43 -81 l 43 -283 m -286 -283 l -43 -283 l -43 -81 l -286 -81 l -286 -283 "},"̈":{"ha":0,"x_min":-286,"x_max":286,"o":"m 43 1084 l 286 1084 l 286 1286 l 43 1286 l 43 1084 m -286 1084 l -43 1084 l -43 1286 l -286 1286 l -286 1084 "},"÷":{"ha":464,"x_min":23,"x_max":441,"o":"m 131 662 l 333 662 l 333 864 l 131 864 l 131 662 m 23 433 l 441 433 l 441 590 l 23 590 l 23 433 m 131 161 l 333 161 l 333 363 l 131 363 l 131 161 "},"∕":{"ha":490,"x_min":20,"x_max":470,"o":"m 20 0 l 191 0 l 470 1194 l 298 1194 l 20 0 "},"ḏ":{"ha":692,"x_min":42,"x_max":647,"o":"m 249 -11 q 346 21 313 -11 q 400 108 380 53 l 400 0 l 647 0 l 647 1194 l 400 1194 l 400 909 q 339 997 378 965 q 225 1028 299 1028 q 84 956 125 1028 q 42 766 42 883 l 42 323 q 48 193 42 254 q 75 86 55 132 q 137 15 96 41 q 249 -11 178 -11 m 342 179 q 283 307 283 179 l 283 734 q 294 807 283 774 q 343 840 304 840 q 390 805 379 840 q 400 734 400 770 l 400 307 q 388 207 400 235 q 342 179 376 179 m 154 -184 l 595 -184 l 595 -81 l 154 -81 l 154 -184 "},"$":{"ha":642,"x_min":23,"x_max":618,"o":"m 260 -77 l 378 -77 l 378 23 q 549 101 481 35 q 618 280 618 168 q 588 414 618 355 q 515 514 557 473 l 326 701 q 258 802 258 768 q 273 840 258 825 q 315 854 287 854 q 357 838 341 854 q 372 793 372 823 l 372 749 l 614 749 q 554 963 614 882 q 378 1059 494 1044 l 378 1139 l 260 1139 l 260 1057 q 148 1013 199 1046 q 66 928 97 980 q 35 808 35 876 q 142 576 35 683 l 337 380 q 380 294 380 336 q 367 253 380 271 q 325 235 353 235 q 259 340 259 235 l 259 368 l 23 368 l 23 331 q 78 114 23 189 q 260 24 133 39 l 260 -77 "},"₫":{"ha":707,"x_min":61,"x_max":647,"o":"m 248 -12 q 336 17 305 -12 q 385 96 366 47 l 385 -1 l 604 -1 l 604 903 l 647 903 l 647 1016 l 604 1016 l 604 1082 l 385 1082 l 385 1016 l 199 1016 l 199 903 l 385 903 l 385 787 q 252 848 340 848 q 109 783 157 848 q 61 625 61 718 l 61 292 q 72 138 61 207 q 123 28 83 69 q 248 -12 163 -12 m 332 161 q 279 276 279 161 l 279 581 q 289 647 279 617 q 333 677 298 677 q 375 646 365 677 q 385 581 385 614 l 385 277 q 373 189 385 218 q 332 161 361 161 m 73 -231 l 591 -231 l 591 -72 l 73 -72 l 73 -231 "},"͘":{"ha":0,"x_min":0,"x_max":243,"o":"m 0 1080 l 243 1080 l 243 1282 l 0 1282 l 0 1080 "},"˙":{"ha":333,"x_min":45,"x_max":288,"o":"m 45 1080 l 288 1080 l 288 1282 l 45 1282 l 45 1080 "},"̇":{"ha":0,"x_min":-121,"x_max":121,"o":"m -121 1080 l 121 1080 l 121 1282 l -121 1282 l -121 1080 "},"̣":{"ha":0,"x_min":-121,"x_max":121,"o":"m -121 -283 l 121 -283 l 121 -81 l -121 -81 l -121 -283 "},"ˮ":{"ha":732,"x_min":83,"x_max":662,"o":"m 124 655 l 267 655 l 336 821 l 336 1017 l 83 1017 l 83 815 l 169 815 l 124 655 m 450 655 l 593 655 l 662 821 l 662 1017 l 408 1017 l 408 815 l 494 815 l 450 655 "},"ʺ":{"ha":776,"x_min":90,"x_max":708,"o":"m 375 1017 l 519 1017 l 708 1461 l 479 1461 l 375 1017 m 90 1017 l 235 1017 l 423 1461 l 195 1461 l 90 1017 "},"↓":{"ha":537,"x_min":41,"x_max":496,"o":"m 269 0 l 496 131 l 496 340 l 380 275 l 380 1028 l 164 1028 l 164 272 l 41 340 l 41 131 l 269 0 "},"▼":{"ha":1120,"x_min":53,"x_max":1067,"o":"m 560 -11 l 1067 1017 l 53 1017 l 560 -11 "},"▽":{"ha":1120,"x_min":53,"x_max":1067,"o":"m 560 -11 l 1067 1017 l 53 1017 l 560 -11 m 560 288 l 266 885 l 854 885 l 560 288 "},"ɖ":{"ha":692,"x_min":42,"x_max":705,"o":"m 705 -133 l 705 54 q 660 77 672 54 q 647 144 647 100 l 647 1194 l 400 1194 l 400 909 q 339 997 378 965 q 225 1028 299 1028 q 84 956 125 1028 q 42 766 42 883 l 42 323 q 48 193 42 254 q 75 86 55 132 q 137 15 96 41 q 249 -11 178 -11 q 347 22 313 -11 q 401 111 381 55 q 478 -72 406 -12 q 705 -133 549 -133 m 342 179 q 283 307 283 179 l 283 734 q 294 807 283 774 q 343 840 304 840 q 390 805 379 840 q 400 734 400 770 l 400 307 q 389 211 400 243 q 342 179 378 179 "},"ǳ":{"ha":1227,"x_min":42,"x_max":1218,"o":"m 249 -11 q 346 21 313 -11 q 400 108 380 53 l 400 0 l 647 0 l 647 1194 l 400 1194 l 400 909 q 339 997 378 965 q 225 1028 299 1028 q 84 956 125 1028 q 42 766 42 883 l 42 323 q 48 193 42 254 q 75 86 55 132 q 137 15 96 41 q 249 -11 178 -11 m 342 179 q 283 307 283 179 l 283 734 q 294 807 283 774 q 343 840 304 840 q 390 805 379 840 q 400 734 400 770 l 400 307 q 388 207 400 235 q 342 179 376 179 m 711 0 l 1218 0 l 1218 182 l 977 182 l 1216 852 l 1216 1017 l 723 1017 l 723 825 l 964 825 l 711 149 l 711 0 "},"ǆ":{"ha":1227,"x_min":42,"x_max":1289,"o":"m 249 -11 q 346 21 313 -11 q 400 108 380 53 l 400 0 l 647 0 l 647 1194 l 400 1194 l 400 909 q 339 997 378 965 q 225 1028 299 1028 q 84 956 125 1028 q 42 766 42 883 l 42 323 q 48 193 42 254 q 75 86 55 132 q 137 15 96 41 q 249 -11 178 -11 m 342 179 q 283 307 283 179 l 283 734 q 294 807 283 774 q 343 840 304 840 q 390 805 379 840 q 400 734 400 770 l 400 307 q 388 207 400 235 q 342 179 376 179 m 711 0 l 1218 0 l 1218 182 l 977 182 l 1216 852 l 1216 1017 l 723 1017 l 723 825 l 964 825 l 711 149 l 711 0 m 849 1079 l 1126 1079 l 1289 1352 l 1046 1352 l 987 1159 l 929 1352 l 686 1352 l 849 1079 "},"e":{"ha":678,"x_min":41,"x_max":639,"o":"m 334 -11 q 516 28 449 -11 q 611 144 583 67 q 639 335 639 221 l 639 393 l 397 393 l 397 295 q 388 209 397 242 q 340 176 378 176 q 302 193 314 176 q 287 236 290 210 q 283 290 283 262 l 283 486 l 636 486 q 639 667 639 532 l 639 741 q 346 1028 639 1028 q 122 955 203 1028 q 41 741 41 882 l 41 332 q 68 147 41 224 q 161 30 96 71 q 334 -11 225 -11 m 282 607 l 282 744 q 298 824 282 801 q 343 847 314 847 q 384 823 370 847 q 397 744 397 799 l 397 607 l 282 607 "},"é":{"ha":678,"x_min":41,"x_max":639,"o":"m 334 -11 q 516 28 449 -11 q 611 144 583 67 q 639 335 639 221 l 639 393 l 397 393 l 397 295 q 388 209 397 242 q 340 176 378 176 q 302 193 314 176 q 287 236 290 210 q 283 290 283 262 l 283 486 l 636 486 q 639 667 639 532 l 639 741 q 346 1028 639 1028 q 122 955 203 1028 q 41 741 41 882 l 41 332 q 68 147 41 224 q 161 30 96 71 q 334 -11 225 -11 m 282 607 l 282 744 q 298 824 282 801 q 343 847 314 847 q 384 823 370 847 q 397 744 397 799 l 397 607 l 282 607 m 185 1053 l 507 1117 l 507 1352 l 185 1204 l 185 1053 "},"ĕ":{"ha":678,"x_min":41,"x_max":639,"o":"m 334 -11 q 516 28 449 -11 q 611 144 583 67 q 639 335 639 221 l 639 393 l 397 393 l 397 295 q 388 209 397 242 q 340 176 378 176 q 302 193 314 176 q 287 236 290 210 q 283 290 283 262 l 283 486 l 636 486 q 639 667 639 532 l 639 741 q 346 1028 639 1028 q 122 955 203 1028 q 41 741 41 882 l 41 332 q 68 147 41 224 q 161 30 96 71 q 334 -11 225 -11 m 282 607 l 282 744 q 298 824 282 801 q 343 847 314 847 q 384 823 370 847 q 397 744 397 799 l 397 607 l 282 607 m 348 1080 q 543 1131 470 1080 q 616 1295 616 1182 q 615 1305 616 1299 q 614 1319 615 1312 l 441 1319 q 421 1260 441 1280 q 349 1240 401 1240 q 277 1260 297 1240 q 258 1319 258 1280 l 84 1319 q 82 1291 82 1305 q 156 1130 82 1180 q 348 1080 229 1080 "},"ě":{"ha":678,"x_min":41,"x_max":648,"o":"m 334 -11 q 516 28 449 -11 q 611 144 583 67 q 639 335 639 221 l 639 393 l 397 393 l 397 295 q 388 209 397 242 q 340 176 378 176 q 302 193 314 176 q 287 236 290 210 q 283 290 283 262 l 283 486 l 636 486 q 639 667 639 532 l 639 741 q 346 1028 639 1028 q 122 955 203 1028 q 41 741 41 882 l 41 332 q 68 147 41 224 q 161 30 96 71 q 334 -11 225 -11 m 282 607 l 282 744 q 298 824 282 801 q 343 847 314 847 q 384 823 370 847 q 397 744 397 799 l 397 607 l 282 607 m 208 1079 l 484 1079 l 648 1352 l 404 1352 l 346 1159 l 288 1352 l 44 1352 l 208 1079 "},"ȩ":{"ha":678,"x_min":41,"x_max":639,"o":"m 334 -11 q 516 28 449 -11 q 611 144 583 67 q 639 335 639 221 l 639 393 l 397 393 l 397 295 q 388 209 397 242 q 340 176 378 176 q 302 193 314 176 q 287 236 290 210 q 283 290 283 262 l 283 486 l 636 486 q 639 667 639 532 l 639 741 q 346 1028 639 1028 q 122 955 203 1028 q 41 741 41 882 l 41 332 q 68 147 41 224 q 161 30 96 71 q 334 -11 225 -11 m 282 607 l 282 744 q 298 824 282 801 q 343 847 314 847 q 384 823 370 847 q 397 744 397 799 l 397 607 l 282 607 m 339 -428 q 493 -380 445 -428 q 541 -262 541 -332 q 505 -129 541 -199 q 403 0 469 -58 l 294 0 q 346 -98 327 -50 q 364 -185 364 -147 q 341 -247 364 -229 q 285 -265 319 -265 q 246 -261 267 -265 q 205 -250 226 -256 l 205 -401 q 339 -428 269 -428 "},"ḝ":{"ha":678,"x_min":41,"x_max":639,"o":"m 334 -11 q 516 28 449 -11 q 611 144 583 67 q 639 335 639 221 l 639 393 l 397 393 l 397 295 q 388 209 397 242 q 340 176 378 176 q 302 193 314 176 q 287 236 290 210 q 283 290 283 262 l 283 486 l 636 486 q 639 667 639 532 l 639 741 q 346 1028 639 1028 q 122 955 203 1028 q 41 741 41 882 l 41 332 q 68 147 41 224 q 161 30 96 71 q 334 -11 225 -11 m 282 607 l 282 744 q 298 824 282 801 q 343 847 314 847 q 384 823 370 847 q 397 744 397 799 l 397 607 l 282 607 m 340 -428 q 494 -380 446 -428 q 542 -262 542 -332 q 506 -129 542 -199 q 404 0 469 -58 l 294 0 q 346 -98 328 -50 q 365 -185 365 -147 q 342 -247 365 -229 q 286 -265 319 -265 q 247 -261 267 -265 q 205 -250 227 -256 l 205 -401 q 340 -428 270 -428 m 348 1080 q 543 1131 470 1080 q 616 1295 616 1182 q 615 1305 616 1299 q 614 1319 615 1312 l 441 1319 q 421 1260 441 1280 q 349 1240 401 1240 q 277 1260 297 1240 q 258 1319 258 1280 l 84 1319 q 82 1291 82 1305 q 156 1130 82 1180 q 348 1080 229 1080 "},"ê":{"ha":678,"x_min":41,"x_max":648,"o":"m 334 -11 q 516 28 449 -11 q 611 144 583 67 q 639 335 639 221 l 639 393 l 397 393 l 397 295 q 388 209 397 242 q 340 176 378 176 q 302 193 314 176 q 287 236 290 210 q 283 290 283 262 l 283 486 l 636 486 q 639 667 639 532 l 639 741 q 346 1028 639 1028 q 122 955 203 1028 q 41 741 41 882 l 41 332 q 68 147 41 224 q 161 30 96 71 q 334 -11 225 -11 m 282 607 l 282 744 q 298 824 282 801 q 343 847 314 847 q 384 823 370 847 q 397 744 397 799 l 397 607 l 282 607 m 44 1079 l 288 1079 l 346 1272 l 404 1079 l 648 1079 l 484 1352 l 208 1352 l 44 1079 "}}}
